<?xml version="1.0" encoding="UTF-8" standalone="no"?>
<!DOCTYPE svg PUBLIC "-//W3C//DTD SVG 1.1//EN"
 "http://www.w3.org/Graphics/SVG/1.1/DTD/svg11.dtd">
<!-- Generated by graphviz version 2.43.0 (0)
 -->
<!-- Title: %3 Pages: 1 -->
<svg width="1751pt" height="165pt"
 viewBox="0.00 0.00 1751.00 164.74" xmlns="http://www.w3.org/2000/svg" xmlns:xlink="http://www.w3.org/1999/xlink">
<g id="graph0" class="graph" transform="scale(1 1) rotate(0) translate(36 128.74)">
<title>%3</title>
<polygon fill="dimgray" stroke="transparent" points="-36,36 -36,-128.74 1715,-128.74 1715,36 -36,36"/>
<text text-anchor="middle" x="839.5" y="-77.54" font-family="Helvetica,sans-Serif" font-size="14.00">Sweep&#39;s Plan &amp; Progress</text>
<!-- start -->
<g id="node1" class="node">
<title>start</title>
</g>
<!-- e306d058&#45;d507&#45;49f7&#45;892a&#45;e920c2911a7b -->
<g id="node3" class="node">
<title>e306d058&#45;d507&#45;49f7&#45;892a&#45;e920c2911a7b</title>
<ellipse fill="#0ee832" stroke="black" cx="179.5" cy="-26.87" rx="126.64" ry="26.74"/>
<text text-anchor="middle" x="179.5" y="-30.67" font-family="Helvetica,sans-Serif" font-size="14.00">✓ Create</text>
<text text-anchor="middle" x="179.5" y="-15.67" font-family="Helvetica,sans-Serif" font-size="14.00">ultra_type/keystroke.py</text>
</g>
<!-- start&#45;&gt;e306d058&#45;d507&#45;49f7&#45;892a&#45;e920c2911a7b -->
<g id="edge6" class="edge">
<title>start&#45;&gt;e306d058&#45;d507&#45;49f7&#45;892a&#45;e920c2911a7b</title>
<path fill="none" stroke="black" d="M1.01,-26.87C4.09,-26.87 20.64,-26.87 42.53,-26.87"/>
<polygon fill="black" stroke="black" points="42.57,-30.37 52.57,-26.87 42.57,-23.37 42.57,-30.37"/>
<text text-anchor="middle" x="26.96" y="-33.67" font-family="Helvetica,sans-Serif" font-size="14.00">Start</text>
</g>
<!-- end -->
<g id="node2" class="node">
<title>end</title>
</g>
<!-- de582589&#45;f8e1&#45;4ac6&#45;8044&#45;2259cd6e5c36 -->
<g id="node4" class="node">
<title>de582589&#45;f8e1&#45;4ac6&#45;8044&#45;2259cd6e5c36</title>
<ellipse fill="#0ee832" stroke="black" cx="442.5" cy="-26.87" rx="101.23" ry="26.74"/>
<text text-anchor="middle" x="442.5" y="-30.67" font-family="Helvetica,sans-Serif" font-size="14.00">✓ Modify</text>
<text text-anchor="middle" x="442.5" y="-15.67" font-family="Helvetica,sans-Serif" font-size="14.00">ultra_type/view.py</text>
</g>
<!-- e306d058&#45;d507&#45;49f7&#45;892a&#45;e920c2911a7b&#45;&gt;de582589&#45;f8e1&#45;4ac6&#45;8044&#45;2259cd6e5c36 -->
<g id="edge1" class="edge">
<title>e306d058&#45;d507&#45;49f7&#45;892a&#45;e920c2911a7b&#45;&gt;de582589&#45;f8e1&#45;4ac6&#45;8044&#45;2259cd6e5c36</title>
<path fill="none" stroke="black" d="M306.12,-26.87C314.45,-26.87 322.78,-26.87 331.12,-26.87"/>
<polygon fill="black" stroke="black" points="331.28,-30.37 341.28,-26.87 331.28,-23.37 331.28,-30.37"/>
</g>
<!-- 5dd4e29c&#45;0022&#45;45f5&#45;afbe&#45;39ddde7ae4d3 -->
<g id="node5" class="node">
<title>5dd4e29c&#45;0022&#45;45f5&#45;afbe&#45;39ddde7ae4d3</title>
<ellipse fill="#0ee832" stroke="black" cx="702.5" cy="-26.87" rx="123.07" ry="26.74"/>
<text text-anchor="middle" x="702.5" y="-30.67" font-family="Helvetica,sans-Serif" font-size="14.00">✓ Modify</text>
<text text-anchor="middle" x="702.5" y="-15.67" font-family="Helvetica,sans-Serif" font-size="14.00">ultra_type/statistics.py</text>
</g>
<!-- de582589&#45;f8e1&#45;4ac6&#45;8044&#45;2259cd6e5c36&#45;&gt;5dd4e29c&#45;0022&#45;45f5&#45;afbe&#45;39ddde7ae4d3 -->
<g id="edge2" class="edge">
<title>de582589&#45;f8e1&#45;4ac6&#45;8044&#45;2259cd6e5c36&#45;&gt;5dd4e29c&#45;0022&#45;45f5&#45;afbe&#45;39ddde7ae4d3</title>
<path fill="none" stroke="black" d="M543.81,-26.87C552.35,-26.87 560.89,-26.87 569.43,-26.87"/>
<polygon fill="black" stroke="black" points="569.45,-30.37 579.45,-26.87 569.45,-23.37 569.45,-30.37"/>
</g>
<!-- 5c39b936&#45;73b9&#45;4a0f&#45;9ef4&#45;bb6f30f4ff68 -->
<g id="node6" class="node">
<title>5c39b936&#45;73b9&#45;4a0f&#45;9ef4&#45;bb6f30f4ff68</title>
<ellipse fill="yellow" stroke="black" cx="985.5" cy="-26.87" rx="124.4" ry="26.74"/>
<text text-anchor="middle" x="985.5" y="-30.67" font-family="Helvetica,sans-Serif" font-size="14.00">⋯ Create</text>
<text text-anchor="middle" x="985.5" y="-15.67" font-family="Helvetica,sans-Serif" font-size="14.00">tests/test_keystroke.py</text>
</g>
<!-- 5dd4e29c&#45;0022&#45;45f5&#45;afbe&#45;39ddde7ae4d3&#45;&gt;5c39b936&#45;73b9&#45;4a0f&#45;9ef4&#45;bb6f30f4ff68 -->
<g id="edge3" class="edge">
<title>5dd4e29c&#45;0022&#45;45f5&#45;afbe&#45;39ddde7ae4d3&#45;&gt;5c39b936&#45;73b9&#45;4a0f&#45;9ef4&#45;bb6f30f4ff68</title>
<path fill="none" stroke="black" d="M825.76,-26.87C834.11,-26.87 842.47,-26.87 850.82,-26.87"/>
<polygon fill="black" stroke="black" points="851.01,-30.37 861.01,-26.87 851.01,-23.37 851.01,-30.37"/>
</g>
<!-- 0d384532&#45;07c3&#45;4d19&#45;b5d1&#45;b926e48ad475 -->
<g id="node7" class="node">
<title>0d384532&#45;07c3&#45;4d19&#45;b5d1&#45;b926e48ad475</title>
<ellipse fill="white" stroke="black" cx="1244.5" cy="-26.87" rx="98.99" ry="26.74"/>
<text text-anchor="middle" x="1244.5" y="-30.67" font-family="Helvetica,sans-Serif" font-size="14.00">▶ Create</text>
<text text-anchor="middle" x="1244.5" y="-15.67" font-family="Helvetica,sans-Serif" font-size="14.00">tests/test_view.py</text>
</g>
<!-- 5c39b936&#45;73b9&#45;4a0f&#45;9ef4&#45;bb6f30f4ff68&#45;&gt;0d384532&#45;07c3&#45;4d19&#45;b5d1&#45;b926e48ad475 -->
<g id="edge4" class="edge">
<title>5c39b936&#45;73b9&#45;4a0f&#45;9ef4&#45;bb6f30f4ff68&#45;&gt;0d384532&#45;07c3&#45;4d19&#45;b5d1&#45;b926e48ad475</title>
<path fill="none" stroke="black" d="M1110.19,-26.87C1118.52,-26.87 1126.85,-26.87 1135.18,-26.87"/>
<polygon fill="black" stroke="black" points="1135.34,-30.37 1145.34,-26.87 1135.34,-23.37 1135.34,-30.37"/>
</g>
<!-- 2f76f269&#45;b4e5&#45;46d2&#45;97c0&#45;a82ab8f72a99 -->
<g id="node8" class="node">
<title>2f76f269&#45;b4e5&#45;46d2&#45;97c0&#45;a82ab8f72a99</title>
<ellipse fill="white" stroke="black" cx="1499.5" cy="-26.87" rx="120.83" ry="26.74"/>
<text text-anchor="middle" x="1499.5" y="-30.67" font-family="Helvetica,sans-Serif" font-size="14.00">▶ Modify</text>
<text text-anchor="middle" x="1499.5" y="-15.67" font-family="Helvetica,sans-Serif" font-size="14.00">tests/test_statistics.py</text>
</g>
<!-- 0d384532&#45;07c3&#45;4d19&#45;b5d1&#45;b926e48ad475&#45;&gt;2f76f269&#45;b4e5&#45;46d2&#45;97c0&#45;a82ab8f72a99 -->
<g id="edge5" class="edge">
<title>0d384532&#45;07c3&#45;4d19&#45;b5d1&#45;b926e48ad475&#45;&gt;2f76f269&#45;b4e5&#45;46d2&#45;97c0&#45;a82ab8f72a99</title>
<path fill="none" stroke="black" d="M1343.61,-26.87C1351.84,-26.87 1360.06,-26.87 1368.29,-26.87"/>
<polygon fill="black" stroke="black" points="1368.32,-30.37 1378.32,-26.87 1368.32,-23.37 1368.32,-30.37"/>
</g>
<!-- 2f76f269&#45;b4e5&#45;46d2&#45;97c0&#45;a82ab8f72a99&#45;&gt;end -->
<g id="edge7" class="edge">
<title>2f76f269&#45;b4e5&#45;46d2&#45;97c0&#45;a82ab8f72a99&#45;&gt;end</title>
<path fill="none" stroke="black" d="M1620.88,-26.87C1640.09,-26.87 1657.05,-26.87 1667.51,-26.87"/>
<polygon fill="black" stroke="black" points="1667.84,-30.37 1677.84,-26.87 1667.84,-23.37 1667.84,-30.37"/>
<text text-anchor="middle" x="1649.21" y="-33.67" font-family="Helvetica,sans-Serif" font-size="14.00">Finish</text>
</g>
</g>
</svg>
