<?xml version="1.0" encoding="UTF-8" standalone="no"?>
<!DOCTYPE svg PUBLIC "-//W3C//DTD SVG 1.1//EN"
 "http://www.w3.org/Graphics/SVG/1.1/DTD/svg11.dtd">
<!-- Generated by graphviz version 2.43.0 (0)
 -->
<!-- Title: %3 Pages: 1 -->
<svg width="738pt" height="415pt"
 viewBox="0.00 0.00 738.00 415.48" xmlns="http://www.w3.org/2000/svg" xmlns:xlink="http://www.w3.org/1999/xlink">
<g id="graph0" class="graph" transform="scale(1 1) rotate(0) translate(36 379.48)">
<title>%3</title>
<polygon fill="dimgray" stroke="transparent" points="-36,36 -36,-379.48 702,-379.48 702,36 -36,36"/>
<text text-anchor="middle" x="333" y="-328.28" font-family="Helvetica,sans-Serif" font-size="14.00">Sweep&#39;s Plan &amp; Progress</text>
<!-- start -->
<g id="node1" class="node">
<title>start</title>
</g>
<!-- 30f89c65&#45;7e96&#45;4d84&#45;9633&#45;23cc8fe45649 -->
<g id="node3" class="node">
<title>30f89c65&#45;7e96&#45;4d84&#45;9633&#45;23cc8fe45649</title>
<ellipse fill="#0ee832" stroke="black" cx="413.5" cy="-277.61" rx="120.83" ry="26.74"/>
<text text-anchor="middle" x="413.5" y="-281.41" font-family="Helvetica,sans-Serif" font-size="14.00">✓ Test</text>
<text text-anchor="middle" x="413.5" y="-266.41" font-family="Helvetica,sans-Serif" font-size="14.00">tests/test_statistics.py</text>
</g>
<!-- start&#45;&gt;30f89c65&#45;7e96&#45;4d84&#45;9633&#45;23cc8fe45649 -->
<g id="edge5" class="edge">
<title>start&#45;&gt;30f89c65&#45;7e96&#45;4d84&#45;9633&#45;23cc8fe45649</title>
<path fill="none" stroke="black" d="M241.27,-277.61C244.93,-277.61 261.23,-277.61 282.45,-277.61"/>
<polygon fill="black" stroke="black" points="282.52,-281.11 292.52,-277.61 282.52,-274.11 282.52,-281.11"/>
<text text-anchor="middle" x="266.79" y="-284.41" font-family="Helvetica,sans-Serif" font-size="14.00">Start</text>
</g>
<!-- end -->
<g id="node2" class="node">
<title>end</title>
</g>
<!-- 30f89c65&#45;7e96&#45;4d84&#45;9633&#45;23cc8fe45649&#45;&gt;end -->
<g id="edge6" class="edge">
<title>30f89c65&#45;7e96&#45;4d84&#45;9633&#45;23cc8fe45649&#45;&gt;end</title>
<path fill="none" stroke="black" d="M534.88,-277.61C554.09,-277.61 571.05,-277.61 581.51,-277.61"/>
<polygon fill="black" stroke="black" points="581.84,-281.11 591.84,-277.61 581.84,-274.11 581.84,-281.11"/>
<text text-anchor="middle" x="563.21" y="-284.41" font-family="Helvetica,sans-Serif" font-size="14.00">Finish</text>
</g>
<!-- 2c1ad4b0&#45;2468&#45;4efc&#45;956c&#45;3a492a7ae696 -->
<g id="node4" class="node">
<title>2c1ad4b0&#45;2468&#45;4efc&#45;956c&#45;3a492a7ae696</title>
<polygon fill="#ee0000" stroke="black" points="325,-213.74 0,-213.74 0,-177.74 325,-177.74 325,-213.74"/>
<text text-anchor="middle" x="162.5" y="-192.04" font-family="Helvetica,sans-Serif" font-size="14.00">✗ Ran sandbox for `tests/test_statistics.py`.</text>
</g>
<!-- 30f89c65&#45;7e96&#45;4d84&#45;9633&#45;23cc8fe45649&#45;&gt;2c1ad4b0&#45;2468&#45;4efc&#45;956c&#45;3a492a7ae696 -->
<g id="edge1" class="edge">
<title>30f89c65&#45;7e96&#45;4d84&#45;9633&#45;23cc8fe45649&#45;&gt;2c1ad4b0&#45;2468&#45;4efc&#45;956c&#45;3a492a7ae696</title>
<path fill="none" stroke="black" stroke-dasharray="5,2" d="M346.24,-255.21C308.78,-243.29 262.43,-228.54 225.65,-216.84"/>
<polygon fill="black" stroke="black" points="226.63,-213.47 216.04,-213.78 224.5,-220.14 226.63,-213.47"/>
</g>
<!-- ca646fd4&#45;1b80&#45;4038&#45;98cc&#45;749e36dd55f4 -->
<g id="node5" class="node">
<title>ca646fd4&#45;1b80&#45;4038&#45;98cc&#45;749e36dd55f4</title>
<polygon fill="white" stroke="black" points="666,-213.74 343,-213.74 343,-177.74 666,-177.74 666,-213.74"/>
<text text-anchor="middle" x="504.5" y="-192.04" font-family="Helvetica,sans-Serif" font-size="14.00">▶ Ran sandbox for `tests/test_statistics.py`.</text>
</g>
<!-- 30f89c65&#45;7e96&#45;4d84&#45;9633&#45;23cc8fe45649&#45;&gt;ca646fd4&#45;1b80&#45;4038&#45;98cc&#45;749e36dd55f4 -->
<g id="edge4" class="edge">
<title>30f89c65&#45;7e96&#45;4d84&#45;9633&#45;23cc8fe45649&#45;&gt;ca646fd4&#45;1b80&#45;4038&#45;98cc&#45;749e36dd55f4</title>
<path fill="none" stroke="black" stroke-dasharray="5,2" d="M442.29,-251.34C453.52,-241.48 466.33,-230.24 477.39,-220.53"/>
<polygon fill="black" stroke="black" points="479.88,-223 485.09,-213.78 475.27,-217.74 479.88,-223"/>
</g>
<!-- 3526673a&#45;c985&#45;4bf6&#45;bef7&#45;a459a2062c30 -->
<g id="node6" class="node">
<title>3526673a&#45;c985&#45;4bf6&#45;bef7&#45;a459a2062c30</title>
<ellipse fill="yellow" stroke="black" cx="162.5" cy="-99.87" rx="120.83" ry="26.74"/>
<text text-anchor="middle" x="162.5" y="-103.67" font-family="Helvetica,sans-Serif" font-size="14.00">⋯ Modify</text>
<text text-anchor="middle" x="162.5" y="-88.67" font-family="Helvetica,sans-Serif" font-size="14.00">tests/test_statistics.py</text>
</g>
<!-- 2c1ad4b0&#45;2468&#45;4efc&#45;956c&#45;3a492a7ae696&#45;&gt;3526673a&#45;c985&#45;4bf6&#45;bef7&#45;a459a2062c30 -->
<g id="edge2" class="edge">
<title>2c1ad4b0&#45;2468&#45;4efc&#45;956c&#45;3a492a7ae696&#45;&gt;3526673a&#45;c985&#45;4bf6&#45;bef7&#45;a459a2062c30</title>
<path fill="none" stroke="black" d="M162.5,-177.52C162.5,-166.22 162.5,-151.01 162.5,-137.12"/>
<polygon fill="black" stroke="black" points="166,-136.84 162.5,-126.84 159,-136.84 166,-136.84"/>
<text text-anchor="middle" x="260" y="-148.54" font-family="Helvetica,sans-Serif" font-size="14.00">Additional changes required</text>
</g>
<!-- 0cae9d7b&#45;651d&#45;4257&#45;8574&#45;6bf353e8465a -->
<g id="node7" class="node">
<title>0cae9d7b&#45;651d&#45;4257&#45;8574&#45;6bf353e8465a</title>
<polygon fill="white" stroke="black" points="324,-36 1,-36 1,0 324,0 324,-36"/>
<text text-anchor="middle" x="162.5" y="-14.3" font-family="Helvetica,sans-Serif" font-size="14.00">▶ Ran sandbox for `tests/test_statistics.py`.</text>
</g>
<!-- 3526673a&#45;c985&#45;4bf6&#45;bef7&#45;a459a2062c30&#45;&gt;0cae9d7b&#45;651d&#45;4257&#45;8574&#45;6bf353e8465a -->
<g id="edge3" class="edge">
<title>3526673a&#45;c985&#45;4bf6&#45;bef7&#45;a459a2062c30&#45;&gt;0cae9d7b&#45;651d&#45;4257&#45;8574&#45;6bf353e8465a</title>
<path fill="none" stroke="black" stroke-dasharray="5,2" d="M162.5,-72.72C162.5,-64.27 162.5,-54.89 162.5,-46.36"/>
<polygon fill="black" stroke="black" points="166,-46.15 162.5,-36.15 159,-46.15 166,-46.15"/>
</g>
</g>
</svg>
