<?xml version="1.0" encoding="UTF-8" standalone="no"?>
<!DOCTYPE svg PUBLIC "-//W3C//DTD SVG 1.1//EN"
 "http://www.w3.org/Graphics/SVG/1.1/DTD/svg11.dtd">
<!-- Generated by graphviz version 2.43.0 (0)
 -->
<!-- Title: %3 Pages: 1 -->
<svg width="429pt" height="238pt"
 viewBox="0.00 0.00 429.00 237.74" xmlns="http://www.w3.org/2000/svg" xmlns:xlink="http://www.w3.org/1999/xlink">
<g id="graph0" class="graph" transform="scale(1 1) rotate(0) translate(36 201.74)">
<title>%3</title>
<polygon fill="dimgray" stroke="transparent" points="-36,36 -36,-201.74 393,-201.74 393,36 -36,36"/>
<text text-anchor="middle" x="178.5" y="-150.54" font-family="Helvetica,sans-Serif" font-size="14.00">Sweep&#39;s Plan &amp; Progress</text>
<!-- start -->
<g id="node1" class="node">
<title>start</title>
</g>
<!-- 825b5458&#45;bc60&#45;494f&#45;ae44&#45;16dd87cbad68 -->
<g id="node3" class="node">
<title>825b5458&#45;bc60&#45;494f&#45;ae44&#45;16dd87cbad68</title>
<ellipse fill="#0ee832" stroke="black" cx="175.5" cy="-99.87" rx="123.07" ry="26.74"/>
<text text-anchor="middle" x="175.5" y="-103.67" font-family="Helvetica,sans-Serif" font-size="14.00">✓ Test</text>
<text text-anchor="middle" x="175.5" y="-88.67" font-family="Helvetica,sans-Serif" font-size="14.00">tests/test_language.py</text>
</g>
<!-- start&#45;&gt;825b5458&#45;bc60&#45;494f&#45;ae44&#45;16dd87cbad68 -->
<g id="edge2" class="edge">
<title>start&#45;&gt;825b5458&#45;bc60&#45;494f&#45;ae44&#45;16dd87cbad68</title>
<path fill="none" stroke="black" d="M1,-99.87C4.03,-99.87 20.42,-99.87 42.05,-99.87"/>
<polygon fill="black" stroke="black" points="42.33,-103.37 52.33,-99.87 42.32,-96.37 42.33,-103.37"/>
<text text-anchor="middle" x="26.73" y="-106.67" font-family="Helvetica,sans-Serif" font-size="14.00">Start</text>
</g>
<!-- end -->
<g id="node2" class="node">
<title>end</title>
</g>
<!-- 825b5458&#45;bc60&#45;494f&#45;ae44&#45;16dd87cbad68&#45;&gt;end -->
<g id="edge3" class="edge">
<title>825b5458&#45;bc60&#45;494f&#45;ae44&#45;16dd87cbad68&#45;&gt;end</title>
<path fill="none" stroke="black" d="M298.73,-99.87C318.02,-99.87 335.01,-99.87 345.49,-99.87"/>
<polygon fill="black" stroke="black" points="345.84,-103.37 355.84,-99.87 345.84,-96.37 345.84,-103.37"/>
<text text-anchor="middle" x="327.27" y="-106.67" font-family="Helvetica,sans-Serif" font-size="14.00">Finish</text>
</g>
<!-- f1f8e6e3&#45;53a3&#45;4f1f&#45;867f&#45;354664e0835f -->
<g id="node4" class="node">
<title>f1f8e6e3&#45;53a3&#45;4f1f&#45;867f&#45;354664e0835f</title>
<polygon fill="white" stroke="black" points="338.5,-36 12.5,-36 12.5,0 338.5,0 338.5,-36"/>
<text text-anchor="middle" x="175.5" y="-14.3" font-family="Helvetica,sans-Serif" font-size="14.00">▶ Ran sandbox for `tests/test_language.py`.</text>
</g>
<!-- 825b5458&#45;bc60&#45;494f&#45;ae44&#45;16dd87cbad68&#45;&gt;f1f8e6e3&#45;53a3&#45;4f1f&#45;867f&#45;354664e0835f -->
<g id="edge1" class="edge">
<title>825b5458&#45;bc60&#45;494f&#45;ae44&#45;16dd87cbad68&#45;&gt;f1f8e6e3&#45;53a3&#45;4f1f&#45;867f&#45;354664e0835f</title>
<path fill="none" stroke="black" stroke-dasharray="5,2" d="M175.5,-72.72C175.5,-64.27 175.5,-54.89 175.5,-46.36"/>
<polygon fill="black" stroke="black" points="179,-46.15 175.5,-36.15 172,-46.15 179,-46.15"/>
</g>
</g>
</svg>
