<?xml version="1.0" encoding="UTF-8" standalone="no"?>
<!DOCTYPE svg PUBLIC "-//W3C//DTD SVG 1.1//EN"
 "http://www.w3.org/Graphics/SVG/1.1/DTD/svg11.dtd">
<!-- Generated by graphviz version 2.43.0 (0)
 -->
<!-- Title: %3 Pages: 1 -->
<svg width="1529pt" height="238pt"
 viewBox="0.00 0.00 1529.00 237.74" xmlns="http://www.w3.org/2000/svg" xmlns:xlink="http://www.w3.org/1999/xlink">
<g id="graph0" class="graph" transform="scale(1 1) rotate(0) translate(36 201.74)">
<title>%3</title>
<polygon fill="dimgray" stroke="transparent" points="-36,36 -36,-201.74 1493,-201.74 1493,36 -36,36"/>
<text text-anchor="middle" x="728.5" y="-150.54" font-family="Helvetica,sans-Serif" font-size="14.00">Sweep&#39;s Plan &amp; Progress</text>
<!-- start -->
<g id="node1" class="node">
<title>start</title>
</g>
<!-- c7e9640d&#45;3b4d&#45;4da3&#45;aa4e&#45;3776dc4f84c7 -->
<g id="node3" class="node">
<title>c7e9640d&#45;3b4d&#45;4da3&#45;aa4e&#45;3776dc4f84c7</title>
<ellipse fill="#0ee832" stroke="black" cx="239.5" cy="-99.87" rx="124.4" ry="26.74"/>
<text text-anchor="middle" x="239.5" y="-103.67" font-family="Helvetica,sans-Serif" font-size="14.00">✓ Modify</text>
<text text-anchor="middle" x="239.5" y="-88.67" font-family="Helvetica,sans-Serif" font-size="14.00">ultra_type/controller.py</text>
</g>
<!-- start&#45;&gt;c7e9640d&#45;3b4d&#45;4da3&#45;aa4e&#45;3776dc4f84c7 -->
<g id="edge8" class="edge">
<title>start&#45;&gt;c7e9640d&#45;3b4d&#45;4da3&#45;aa4e&#45;3776dc4f84c7</title>
<path fill="none" stroke="black" d="M64,-99.87C67.01,-99.87 83.16,-99.87 104.54,-99.87"/>
<polygon fill="black" stroke="black" points="104.7,-103.37 114.7,-99.87 104.7,-96.37 104.7,-103.37"/>
<text text-anchor="middle" x="89.52" y="-106.67" font-family="Helvetica,sans-Serif" font-size="14.00">Start</text>
</g>
<!-- end -->
<g id="node2" class="node">
<title>end</title>
</g>
<!-- c2ec7600&#45;ce16&#45;4a7b&#45;9ad1&#45;3bcf3d33a2f3 -->
<g id="node4" class="node">
<title>c2ec7600&#45;ce16&#45;4a7b&#45;9ad1&#45;3bcf3d33a2f3</title>
<ellipse fill="#0ee832" stroke="black" cx="555.5" cy="-99.87" rx="101.23" ry="26.74"/>
<text text-anchor="middle" x="555.5" y="-103.67" font-family="Helvetica,sans-Serif" font-size="14.00">✓ Modify</text>
<text text-anchor="middle" x="555.5" y="-88.67" font-family="Helvetica,sans-Serif" font-size="14.00">ultra_type/view.py</text>
</g>
<!-- c7e9640d&#45;3b4d&#45;4da3&#45;aa4e&#45;3776dc4f84c7&#45;&gt;c2ec7600&#45;ce16&#45;4a7b&#45;9ad1&#45;3bcf3d33a2f3 -->
<g id="edge2" class="edge">
<title>c7e9640d&#45;3b4d&#45;4da3&#45;aa4e&#45;3776dc4f84c7&#45;&gt;c2ec7600&#45;ce16&#45;4a7b&#45;9ad1&#45;3bcf3d33a2f3</title>
<path fill="none" stroke="black" d="M364.17,-99.87C390.79,-99.87 417.41,-99.87 444.03,-99.87"/>
<polygon fill="black" stroke="black" points="444.23,-103.37 454.23,-99.87 444.23,-96.37 444.23,-103.37"/>
</g>
<!-- 3c28abea&#45;0cbd&#45;46cd&#45;bb61&#45;36ca66e11756 -->
<g id="node7" class="node">
<title>3c28abea&#45;0cbd&#45;46cd&#45;bb61&#45;36ca66e11756</title>
<polygon fill="#0ee832" stroke="black" points="369,-36 0,-36 0,0 369,0 369,-36"/>
<text text-anchor="middle" x="184.5" y="-14.3" font-family="Helvetica,sans-Serif" font-size="14.00">✓ Run GitHub Actions for `ultra_type/controller.py`</text>
</g>
<!-- c7e9640d&#45;3b4d&#45;4da3&#45;aa4e&#45;3776dc4f84c7&#45;&gt;3c28abea&#45;0cbd&#45;46cd&#45;bb61&#45;36ca66e11756 -->
<g id="edge1" class="edge">
<title>c7e9640d&#45;3b4d&#45;4da3&#45;aa4e&#45;3776dc4f84c7&#45;&gt;3c28abea&#45;0cbd&#45;46cd&#45;bb61&#45;36ca66e11756</title>
<path fill="none" stroke="black" stroke-dasharray="5,2" d="M221.79,-73.16C215.51,-64.04 208.45,-53.77 202.17,-44.65"/>
<polygon fill="black" stroke="black" points="204.99,-42.59 196.44,-36.34 199.23,-46.56 204.99,-42.59"/>
</g>
<!-- 2d244272&#45;6c92&#45;4878&#45;aee1&#45;6b6b1470b4be -->
<g id="node5" class="node">
<title>2d244272&#45;6c92&#45;4878&#45;aee1&#45;6b6b1470b4be</title>
<ellipse fill="#0ee832" stroke="black" cx="916.5" cy="-99.87" rx="109.7" ry="26.74"/>
<text text-anchor="middle" x="916.5" y="-103.67" font-family="Helvetica,sans-Serif" font-size="14.00">✓ Modify</text>
<text text-anchor="middle" x="916.5" y="-88.67" font-family="Helvetica,sans-Serif" font-size="14.00">ultra_type/clicker.py</text>
</g>
<!-- c2ec7600&#45;ce16&#45;4a7b&#45;9ad1&#45;3bcf3d33a2f3&#45;&gt;2d244272&#45;6c92&#45;4878&#45;aee1&#45;6b6b1470b4be -->
<g id="edge4" class="edge">
<title>c2ec7600&#45;ce16&#45;4a7b&#45;9ad1&#45;3bcf3d33a2f3&#45;&gt;2d244272&#45;6c92&#45;4878&#45;aee1&#45;6b6b1470b4be</title>
<path fill="none" stroke="black" d="M656.68,-99.87C703.33,-99.87 749.97,-99.87 796.62,-99.87"/>
<polygon fill="black" stroke="black" points="796.89,-103.37 806.89,-99.87 796.89,-96.37 796.89,-103.37"/>
</g>
<!-- d1135ece&#45;305b&#45;45b4&#45;8061&#45;f003f37c09ea -->
<g id="node8" class="node">
<title>d1135ece&#45;305b&#45;45b4&#45;8061&#45;f003f37c09ea</title>
<polygon fill="#0ee832" stroke="black" points="723.5,-36 387.5,-36 387.5,0 723.5,0 723.5,-36"/>
<text text-anchor="middle" x="555.5" y="-14.3" font-family="Helvetica,sans-Serif" font-size="14.00">✓ Run GitHub Actions for `ultra_type/view.py`</text>
</g>
<!-- c2ec7600&#45;ce16&#45;4a7b&#45;9ad1&#45;3bcf3d33a2f3&#45;&gt;d1135ece&#45;305b&#45;45b4&#45;8061&#45;f003f37c09ea -->
<g id="edge3" class="edge">
<title>c2ec7600&#45;ce16&#45;4a7b&#45;9ad1&#45;3bcf3d33a2f3&#45;&gt;d1135ece&#45;305b&#45;45b4&#45;8061&#45;f003f37c09ea</title>
<path fill="none" stroke="black" stroke-dasharray="5,2" d="M555.5,-72.72C555.5,-64.27 555.5,-54.89 555.5,-46.36"/>
<polygon fill="black" stroke="black" points="559,-46.15 555.5,-36.15 552,-46.15 559,-46.15"/>
</g>
<!-- 9c8d3b8e&#45;16b1&#45;4a41&#45;92fe&#45;722412f87a5a -->
<g id="node6" class="node">
<title>9c8d3b8e&#45;16b1&#45;4a41&#45;92fe&#45;722412f87a5a</title>
<ellipse fill="white" stroke="black" cx="1227.5" cy="-99.87" rx="109.7" ry="26.74"/>
<text text-anchor="middle" x="1227.5" y="-103.67" font-family="Helvetica,sans-Serif" font-size="14.00">▶ Modify</text>
<text text-anchor="middle" x="1227.5" y="-88.67" font-family="Helvetica,sans-Serif" font-size="14.00">ultra_type/model.py</text>
</g>
<!-- 2d244272&#45;6c92&#45;4878&#45;aee1&#45;6b6b1470b4be&#45;&gt;9c8d3b8e&#45;16b1&#45;4a41&#45;92fe&#45;722412f87a5a -->
<g id="edge6" class="edge">
<title>2d244272&#45;6c92&#45;4878&#45;aee1&#45;6b6b1470b4be&#45;&gt;9c8d3b8e&#45;16b1&#45;4a41&#45;92fe&#45;722412f87a5a</title>
<path fill="none" stroke="black" d="M1026.14,-99.87C1053.34,-99.87 1080.55,-99.87 1107.75,-99.87"/>
<polygon fill="black" stroke="black" points="1107.77,-103.37 1117.77,-99.87 1107.77,-96.37 1107.77,-103.37"/>
</g>
<!-- 17c51c98&#45;ac86&#45;4479&#45;a184&#45;5b786bc50634 -->
<g id="node9" class="node">
<title>17c51c98&#45;ac86&#45;4479&#45;a184&#45;5b786bc50634</title>
<polygon fill="yellow" stroke="black" points="1091.5,-36 741.5,-36 741.5,0 1091.5,0 1091.5,-36"/>
<text text-anchor="middle" x="916.5" y="-14.3" font-family="Helvetica,sans-Serif" font-size="14.00">⋯ Run GitHub Actions for `ultra_type/clicker.py`</text>
</g>
<!-- 2d244272&#45;6c92&#45;4878&#45;aee1&#45;6b6b1470b4be&#45;&gt;17c51c98&#45;ac86&#45;4479&#45;a184&#45;5b786bc50634 -->
<g id="edge5" class="edge">
<title>2d244272&#45;6c92&#45;4878&#45;aee1&#45;6b6b1470b4be&#45;&gt;17c51c98&#45;ac86&#45;4479&#45;a184&#45;5b786bc50634</title>
<path fill="none" stroke="black" stroke-dasharray="5,2" d="M916.5,-72.72C916.5,-64.27 916.5,-54.89 916.5,-46.36"/>
<polygon fill="black" stroke="black" points="920,-46.15 916.5,-36.15 913,-46.15 920,-46.15"/>
</g>
<!-- 9c8d3b8e&#45;16b1&#45;4a41&#45;92fe&#45;722412f87a5a&#45;&gt;end -->
<g id="edge9" class="edge">
<title>9c8d3b8e&#45;16b1&#45;4a41&#45;92fe&#45;722412f87a5a&#45;&gt;end</title>
<path fill="none" stroke="black" d="M1337.21,-99.87C1356.62,-99.87 1374.01,-99.87 1384.63,-99.87"/>
<polygon fill="black" stroke="black" points="1384.82,-103.37 1394.82,-99.87 1384.82,-96.37 1384.82,-103.37"/>
<text text-anchor="middle" x="1366.05" y="-106.67" font-family="Helvetica,sans-Serif" font-size="14.00">Finish</text>
</g>
<!-- 99d3e6cc&#45;eea9&#45;4d81&#45;8314&#45;bf889d364369 -->
<g id="node10" class="node">
<title>99d3e6cc&#45;eea9&#45;4d81&#45;8314&#45;bf889d364369</title>
<polygon fill="white" stroke="black" points="1457,-36 1110,-36 1110,0 1457,0 1457,-36"/>
<text text-anchor="middle" x="1283.5" y="-14.3" font-family="Helvetica,sans-Serif" font-size="14.00">▶ Run GitHub Actions for `ultra_type/model.py`</text>
</g>
<!-- 9c8d3b8e&#45;16b1&#45;4a41&#45;92fe&#45;722412f87a5a&#45;&gt;99d3e6cc&#45;eea9&#45;4d81&#45;8314&#45;bf889d364369 -->
<g id="edge7" class="edge">
<title>9c8d3b8e&#45;16b1&#45;4a41&#45;92fe&#45;722412f87a5a&#45;&gt;99d3e6cc&#45;eea9&#45;4d81&#45;8314&#45;bf889d364369</title>
<path fill="none" stroke="black" stroke-dasharray="5,2" d="M1245.53,-73.16C1251.92,-64.04 1259.12,-53.77 1265.51,-44.65"/>
<polygon fill="black" stroke="black" points="1268.47,-46.53 1271.34,-36.34 1262.74,-42.52 1268.47,-46.53"/>
</g>
</g>
</svg>
