<?xml version="1.0" encoding="UTF-8" standalone="no"?>
<!DOCTYPE svg PUBLIC "-//W3C//DTD SVG 1.1//EN"
 "http://www.w3.org/Graphics/SVG/1.1/DTD/svg11.dtd">
<!-- Generated by graphviz version 2.43.0 (0)
 -->
<!-- Title: %3 Pages: 1 -->
<svg width="917pt" height="593pt"
 viewBox="0.00 0.00 917.00 593.22" xmlns="http://www.w3.org/2000/svg" xmlns:xlink="http://www.w3.org/1999/xlink">
<g id="graph0" class="graph" transform="scale(1 1) rotate(0) translate(36 557.22)">
<title>%3</title>
<polygon fill="dimgray" stroke="transparent" points="-36,36 -36,-557.22 881,-557.22 881,36 -36,36"/>
<text text-anchor="middle" x="422.5" y="-506.02" font-family="Helvetica,sans-Serif" font-size="14.00">Sweep&#39;s Plan &amp; Progress</text>
<!-- start -->
<g id="node1" class="node">
<title>start</title>
</g>
<!-- 4d1d7521&#45;f501&#45;42c6&#45;bd33&#45;c3a0dbbbba96 -->
<g id="node3" class="node">
<title>4d1d7521&#45;f501&#45;42c6&#45;bd33&#45;c3a0dbbbba96</title>
<ellipse fill="#0ee832" stroke="black" cx="589" cy="-455.35" rx="123.07" ry="26.74"/>
<text text-anchor="middle" x="589" y="-459.15" font-family="Helvetica,sans-Serif" font-size="14.00">✓ Test</text>
<text text-anchor="middle" x="589" y="-444.15" font-family="Helvetica,sans-Serif" font-size="14.00">tests/test_language.py</text>
</g>
<!-- start&#45;&gt;4d1d7521&#45;f501&#45;42c6&#45;bd33&#45;c3a0dbbbba96 -->
<g id="edge8" class="edge">
<title>start&#45;&gt;4d1d7521&#45;f501&#45;42c6&#45;bd33&#45;c3a0dbbbba96</title>
<path fill="none" stroke="black" d="M414.5,-455.35C417.53,-455.35 433.92,-455.35 455.55,-455.35"/>
<polygon fill="black" stroke="black" points="455.82,-458.85 465.83,-455.35 455.83,-451.85 455.82,-458.85"/>
<text text-anchor="middle" x="440.23" y="-462.15" font-family="Helvetica,sans-Serif" font-size="14.00">Start</text>
</g>
<!-- end -->
<g id="node2" class="node">
<title>end</title>
</g>
<!-- 4d1d7521&#45;f501&#45;42c6&#45;bd33&#45;c3a0dbbbba96&#45;&gt;end -->
<g id="edge9" class="edge">
<title>4d1d7521&#45;f501&#45;42c6&#45;bd33&#45;c3a0dbbbba96&#45;&gt;end</title>
<path fill="none" stroke="black" d="M712.23,-455.35C731.52,-455.35 748.51,-455.35 758.99,-455.35"/>
<polygon fill="black" stroke="black" points="759.34,-458.85 769.34,-455.35 759.34,-451.85 759.34,-458.85"/>
<text text-anchor="middle" x="740.77" y="-462.15" font-family="Helvetica,sans-Serif" font-size="14.00">Finish</text>
</g>
<!-- 5a5c560f&#45;dd1d&#45;4b40&#45;92c9&#45;e62c07f9f4f4 -->
<g id="node4" class="node">
<title>5a5c560f&#45;dd1d&#45;4b40&#45;92c9&#45;e62c07f9f4f4</title>
<polygon fill="#ee0000" stroke="black" points="501,-391.48 173,-391.48 173,-355.48 501,-355.48 501,-391.48"/>
<text text-anchor="middle" x="337" y="-369.78" font-family="Helvetica,sans-Serif" font-size="14.00">✗ Ran sandbox for `tests/test_language.py`.</text>
</g>
<!-- 4d1d7521&#45;f501&#45;42c6&#45;bd33&#45;c3a0dbbbba96&#45;&gt;5a5c560f&#45;dd1d&#45;4b40&#45;92c9&#45;e62c07f9f4f4 -->
<g id="edge1" class="edge">
<title>4d1d7521&#45;f501&#45;42c6&#45;bd33&#45;c3a0dbbbba96&#45;&gt;5a5c560f&#45;dd1d&#45;4b40&#45;92c9&#45;e62c07f9f4f4</title>
<path fill="none" stroke="black" stroke-dasharray="5,2" d="M521.14,-432.84C483.67,-420.97 437.41,-406.31 400.64,-394.65"/>
<polygon fill="black" stroke="black" points="401.61,-391.29 391.02,-391.6 399.49,-397.96 401.61,-391.29"/>
</g>
<!-- 1fe8182a&#45;1d46&#45;40d9&#45;94f5&#45;fba7098bb560 -->
<g id="node5" class="node">
<title>1fe8182a&#45;1d46&#45;40d9&#45;94f5&#45;fba7098bb560</title>
<polygon fill="white" stroke="black" points="845,-391.48 519,-391.48 519,-355.48 845,-355.48 845,-391.48"/>
<text text-anchor="middle" x="682" y="-369.78" font-family="Helvetica,sans-Serif" font-size="14.00">▶ Ran sandbox for `tests/test_language.py`.</text>
</g>
<!-- 4d1d7521&#45;f501&#45;42c6&#45;bd33&#45;c3a0dbbbba96&#45;&gt;1fe8182a&#45;1d46&#45;40d9&#45;94f5&#45;fba7098bb560 -->
<g id="edge7" class="edge">
<title>4d1d7521&#45;f501&#45;42c6&#45;bd33&#45;c3a0dbbbba96&#45;&gt;1fe8182a&#45;1d46&#45;40d9&#45;94f5&#45;fba7098bb560</title>
<path fill="none" stroke="black" stroke-dasharray="5,2" d="M618.43,-429.08C629.9,-419.22 642.99,-407.98 654.29,-398.27"/>
<polygon fill="black" stroke="black" points="656.86,-400.69 662.16,-391.52 652.3,-395.38 656.86,-400.69"/>
</g>
<!-- 0667abdc&#45;86c4&#45;4844&#45;b023&#45;3305b20c6392 -->
<g id="node6" class="node">
<title>0667abdc&#45;86c4&#45;4844&#45;b023&#45;3305b20c6392</title>
<ellipse fill="#0ee832" stroke="black" cx="337" cy="-277.61" rx="123.07" ry="26.74"/>
<text text-anchor="middle" x="337" y="-281.41" font-family="Helvetica,sans-Serif" font-size="14.00">✓ Modify</text>
<text text-anchor="middle" x="337" y="-266.41" font-family="Helvetica,sans-Serif" font-size="14.00">tests/test_language.py</text>
</g>
<!-- 5a5c560f&#45;dd1d&#45;4b40&#45;92c9&#45;e62c07f9f4f4&#45;&gt;0667abdc&#45;86c4&#45;4844&#45;b023&#45;3305b20c6392 -->
<g id="edge2" class="edge">
<title>5a5c560f&#45;dd1d&#45;4b40&#45;92c9&#45;e62c07f9f4f4&#45;&gt;0667abdc&#45;86c4&#45;4844&#45;b023&#45;3305b20c6392</title>
<path fill="none" stroke="black" d="M337,-355.26C337,-343.96 337,-328.75 337,-314.86"/>
<polygon fill="black" stroke="black" points="340.5,-314.58 337,-304.58 333.5,-314.58 340.5,-314.58"/>
<text text-anchor="middle" x="434.5" y="-326.28" font-family="Helvetica,sans-Serif" font-size="14.00">Additional changes required</text>
</g>
<!-- b0ec629c&#45;6ebe&#45;4ccf&#45;9984&#45;5b96cd3688d9 -->
<g id="node7" class="node">
<title>b0ec629c&#45;6ebe&#45;4ccf&#45;9984&#45;5b96cd3688d9</title>
<polygon fill="#ee0000" stroke="black" points="329,-213.74 1,-213.74 1,-177.74 329,-177.74 329,-213.74"/>
<text text-anchor="middle" x="165" y="-192.04" font-family="Helvetica,sans-Serif" font-size="14.00">✗ Ran sandbox for `tests/test_language.py`.</text>
</g>
<!-- 0667abdc&#45;86c4&#45;4844&#45;b023&#45;3305b20c6392&#45;&gt;b0ec629c&#45;6ebe&#45;4ccf&#45;9984&#45;5b96cd3688d9 -->
<g id="edge3" class="edge">
<title>0667abdc&#45;86c4&#45;4844&#45;b023&#45;3305b20c6392&#45;&gt;b0ec629c&#45;6ebe&#45;4ccf&#45;9984&#45;5b96cd3688d9</title>
<path fill="none" stroke="black" stroke-dasharray="5,2" d="M286.32,-253.08C262.46,-242 234.21,-228.88 210.97,-218.09"/>
<polygon fill="black" stroke="black" points="212.22,-214.81 201.67,-213.77 209.27,-221.16 212.22,-214.81"/>
</g>
<!-- 4e25966d&#45;90ce&#45;411f&#45;9519&#45;710b8d29ff93 -->
<g id="node8" class="node">
<title>4e25966d&#45;90ce&#45;411f&#45;9519&#45;710b8d29ff93</title>
<polygon fill="white" stroke="black" points="673,-213.74 347,-213.74 347,-177.74 673,-177.74 673,-213.74"/>
<text text-anchor="middle" x="510" y="-192.04" font-family="Helvetica,sans-Serif" font-size="14.00">▶ Ran sandbox for `tests/test_language.py`.</text>
</g>
<!-- 0667abdc&#45;86c4&#45;4844&#45;b023&#45;3305b20c6392&#45;&gt;4e25966d&#45;90ce&#45;411f&#45;9519&#45;710b8d29ff93 -->
<g id="edge6" class="edge">
<title>0667abdc&#45;86c4&#45;4844&#45;b023&#45;3305b20c6392&#45;&gt;4e25966d&#45;90ce&#45;411f&#45;9519&#45;710b8d29ff93</title>
<path fill="none" stroke="black" stroke-dasharray="5,2" d="M387.97,-253.08C411.97,-242 440.39,-228.88 463.76,-218.09"/>
<polygon fill="black" stroke="black" points="465.5,-221.14 473.11,-213.77 462.57,-214.78 465.5,-221.14"/>
</g>
<!-- 6f913ec6&#45;6f7a&#45;411a&#45;92a0&#45;0fcaeb1cabb6 -->
<g id="node9" class="node">
<title>6f913ec6&#45;6f7a&#45;411a&#45;92a0&#45;0fcaeb1cabb6</title>
<ellipse fill="#0ee832" stroke="black" cx="165" cy="-99.87" rx="123.07" ry="26.74"/>
<text text-anchor="middle" x="165" y="-103.67" font-family="Helvetica,sans-Serif" font-size="14.00">✓ Modify</text>
<text text-anchor="middle" x="165" y="-88.67" font-family="Helvetica,sans-Serif" font-size="14.00">tests/test_language.py</text>
</g>
<!-- b0ec629c&#45;6ebe&#45;4ccf&#45;9984&#45;5b96cd3688d9&#45;&gt;6f913ec6&#45;6f7a&#45;411a&#45;92a0&#45;0fcaeb1cabb6 -->
<g id="edge4" class="edge">
<title>b0ec629c&#45;6ebe&#45;4ccf&#45;9984&#45;5b96cd3688d9&#45;&gt;6f913ec6&#45;6f7a&#45;411a&#45;92a0&#45;0fcaeb1cabb6</title>
<path fill="none" stroke="black" d="M165,-177.52C165,-166.22 165,-151.01 165,-137.12"/>
<polygon fill="black" stroke="black" points="168.5,-136.84 165,-126.84 161.5,-136.84 168.5,-136.84"/>
<text text-anchor="middle" x="262.5" y="-148.54" font-family="Helvetica,sans-Serif" font-size="14.00">Additional changes required</text>
</g>
<!-- 52eb852d&#45;46ce&#45;42df&#45;a449&#45;3fb71f5bfef7 -->
<g id="node10" class="node">
<title>52eb852d&#45;46ce&#45;42df&#45;a449&#45;3fb71f5bfef7</title>
<polygon fill="yellow" stroke="black" points="330,-36 0,-36 0,0 330,0 330,-36"/>
<text text-anchor="middle" x="165" y="-14.3" font-family="Helvetica,sans-Serif" font-size="14.00">⋯ Ran sandbox for `tests/test_language.py`.</text>
</g>
<!-- 6f913ec6&#45;6f7a&#45;411a&#45;92a0&#45;0fcaeb1cabb6&#45;&gt;52eb852d&#45;46ce&#45;42df&#45;a449&#45;3fb71f5bfef7 -->
<g id="edge5" class="edge">
<title>6f913ec6&#45;6f7a&#45;411a&#45;92a0&#45;0fcaeb1cabb6&#45;&gt;52eb852d&#45;46ce&#45;42df&#45;a449&#45;3fb71f5bfef7</title>
<path fill="none" stroke="black" stroke-dasharray="5,2" d="M165,-72.72C165,-64.27 165,-54.89 165,-46.36"/>
<polygon fill="black" stroke="black" points="168.5,-46.15 165,-36.15 161.5,-46.15 168.5,-46.15"/>
</g>
</g>
</svg>
