<?xml version="1.0" encoding="UTF-8" standalone="no"?>
<!DOCTYPE svg PUBLIC "-//W3C//DTD SVG 1.1//EN"
 "http://www.w3.org/Graphics/SVG/1.1/DTD/svg11.dtd">
<!-- Generated by graphviz version 2.43.0 (0)
 -->
<!-- Title: %3 Pages: 1 -->
<svg width="1098pt" height="771pt"
 viewBox="0.00 0.00 1097.50 770.96" xmlns="http://www.w3.org/2000/svg" xmlns:xlink="http://www.w3.org/1999/xlink">
<g id="graph0" class="graph" transform="scale(1 1) rotate(0) translate(36 734.96)">
<title>%3</title>
<polygon fill="dimgray" stroke="transparent" points="-36,36 -36,-734.96 1061.5,-734.96 1061.5,36 -36,36"/>
<text text-anchor="middle" x="512.75" y="-683.76" font-family="Helvetica,sans-Serif" font-size="14.00">Sweep&#39;s Plan &amp; Progress</text>
<!-- start -->
<g id="node1" class="node">
<title>start</title>
</g>
<!-- 7e80c70c&#45;48a6&#45;452d&#45;abb0&#45;9c6c4163cec5 -->
<g id="node3" class="node">
<title>7e80c70c&#45;48a6&#45;452d&#45;abb0&#45;9c6c4163cec5</title>
<ellipse fill="#0ee832" stroke="black" cx="768" cy="-633.09" rx="124.4" ry="26.74"/>
<text text-anchor="middle" x="768" y="-636.89" font-family="Helvetica,sans-Serif" font-size="14.00">✓ Modify</text>
<text text-anchor="middle" x="768" y="-621.89" font-family="Helvetica,sans-Serif" font-size="14.00">ultra_type/controller.py</text>
</g>
<!-- start&#45;&gt;7e80c70c&#45;48a6&#45;452d&#45;abb0&#45;9c6c4163cec5 -->
<g id="edge11" class="edge">
<title>start&#45;&gt;7e80c70c&#45;48a6&#45;452d&#45;abb0&#45;9c6c4163cec5</title>
<path fill="none" stroke="black" d="M592.5,-633.09C595.51,-633.09 611.66,-633.09 633.04,-633.09"/>
<polygon fill="black" stroke="black" points="633.2,-636.59 643.2,-633.09 633.2,-629.59 633.2,-636.59"/>
<text text-anchor="middle" x="618.02" y="-639.89" font-family="Helvetica,sans-Serif" font-size="14.00">Start</text>
</g>
<!-- end -->
<g id="node2" class="node">
<title>end</title>
</g>
<!-- 7e80c70c&#45;48a6&#45;452d&#45;abb0&#45;9c6c4163cec5&#45;&gt;end -->
<g id="edge12" class="edge">
<title>7e80c70c&#45;48a6&#45;452d&#45;abb0&#45;9c6c4163cec5&#45;&gt;end</title>
<path fill="none" stroke="black" d="M892.91,-633.09C912.03,-633.09 928.81,-633.09 939.15,-633.09"/>
<polygon fill="black" stroke="black" points="939.35,-636.59 949.35,-633.09 939.35,-629.59 939.35,-636.59"/>
<text text-anchor="middle" x="920.98" y="-639.89" font-family="Helvetica,sans-Serif" font-size="14.00">Finish</text>
</g>
<!-- 1f91a768&#45;e50b&#45;46f4&#45;9b40&#45;60b5e5b4eee2 -->
<g id="node4" class="node">
<title>1f91a768&#45;e50b&#45;46f4&#45;9b40&#45;60b5e5b4eee2</title>
<polygon fill="#ee0000" stroke="black" points="678,-569.22 348,-569.22 348,-533.22 678,-533.22 678,-569.22"/>
<text text-anchor="middle" x="513" y="-547.52" font-family="Helvetica,sans-Serif" font-size="14.00">✗ Ran sandbox for `ultra_type/controller.py`.</text>
</g>
<!-- 7e80c70c&#45;48a6&#45;452d&#45;abb0&#45;9c6c4163cec5&#45;&gt;1f91a768&#45;e50b&#45;46f4&#45;9b40&#45;60b5e5b4eee2 -->
<g id="edge1" class="edge">
<title>7e80c70c&#45;48a6&#45;452d&#45;abb0&#45;9c6c4163cec5&#45;&gt;1f91a768&#45;e50b&#45;46f4&#45;9b40&#45;60b5e5b4eee2</title>
<path fill="none" stroke="black" stroke-dasharray="5,2" d="M699.33,-610.58C661.41,-598.71 614.61,-584.05 577.39,-572.39"/>
<polygon fill="black" stroke="black" points="578.25,-568.99 567.66,-569.34 576.16,-575.67 578.25,-568.99"/>
</g>
<!-- 747499c1&#45;edcc&#45;4c8b&#45;bd30&#45;a8222f962f78 -->
<g id="node5" class="node">
<title>747499c1&#45;edcc&#45;4c8b&#45;bd30&#45;a8222f962f78</title>
<polygon fill="white" stroke="black" points="1025.5,-569.22 696.5,-569.22 696.5,-533.22 1025.5,-533.22 1025.5,-569.22"/>
<text text-anchor="middle" x="861" y="-547.52" font-family="Helvetica,sans-Serif" font-size="14.00">▶ Ran sandbox for `ultra_type/controller.py`.</text>
</g>
<!-- 7e80c70c&#45;48a6&#45;452d&#45;abb0&#45;9c6c4163cec5&#45;&gt;747499c1&#45;edcc&#45;4c8b&#45;bd30&#45;a8222f962f78 -->
<g id="edge10" class="edge">
<title>7e80c70c&#45;48a6&#45;452d&#45;abb0&#45;9c6c4163cec5&#45;&gt;747499c1&#45;edcc&#45;4c8b&#45;bd30&#45;a8222f962f78</title>
<path fill="none" stroke="black" stroke-dasharray="5,2" d="M797.43,-606.82C808.9,-596.96 821.99,-585.72 833.29,-576.01"/>
<polygon fill="black" stroke="black" points="835.86,-578.43 841.16,-569.26 831.3,-573.12 835.86,-578.43"/>
</g>
<!-- bab0e844&#45;a3d7&#45;4408&#45;b71b&#45;13f37d594be1 -->
<g id="node6" class="node">
<title>bab0e844&#45;a3d7&#45;4408&#45;b71b&#45;13f37d594be1</title>
<ellipse fill="#0ee832" stroke="black" cx="513" cy="-455.35" rx="124.4" ry="26.74"/>
<text text-anchor="middle" x="513" y="-459.15" font-family="Helvetica,sans-Serif" font-size="14.00">✓ Modify</text>
<text text-anchor="middle" x="513" y="-444.15" font-family="Helvetica,sans-Serif" font-size="14.00">ultra_type/controller.py</text>
</g>
<!-- 1f91a768&#45;e50b&#45;46f4&#45;9b40&#45;60b5e5b4eee2&#45;&gt;bab0e844&#45;a3d7&#45;4408&#45;b71b&#45;13f37d594be1 -->
<g id="edge2" class="edge">
<title>1f91a768&#45;e50b&#45;46f4&#45;9b40&#45;60b5e5b4eee2&#45;&gt;bab0e844&#45;a3d7&#45;4408&#45;b71b&#45;13f37d594be1</title>
<path fill="none" stroke="black" d="M513,-533C513,-521.7 513,-506.49 513,-492.6"/>
<polygon fill="black" stroke="black" points="516.5,-492.32 513,-482.32 509.5,-492.32 516.5,-492.32"/>
<text text-anchor="middle" x="610.5" y="-504.02" font-family="Helvetica,sans-Serif" font-size="14.00">Additional changes required</text>
</g>
<!-- eaa82886&#45;7418&#45;4617&#45;8655&#45;9b90bdcb61f3 -->
<g id="node7" class="node">
<title>eaa82886&#45;7418&#45;4617&#45;8655&#45;9b90bdcb61f3</title>
<polygon fill="#ee0000" stroke="black" points="504,-391.48 174,-391.48 174,-355.48 504,-355.48 504,-391.48"/>
<text text-anchor="middle" x="339" y="-369.78" font-family="Helvetica,sans-Serif" font-size="14.00">✗ Ran sandbox for `ultra_type/controller.py`.</text>
</g>
<!-- bab0e844&#45;a3d7&#45;4408&#45;b71b&#45;13f37d594be1&#45;&gt;eaa82886&#45;7418&#45;4617&#45;8655&#45;9b90bdcb61f3 -->
<g id="edge3" class="edge">
<title>bab0e844&#45;a3d7&#45;4408&#45;b71b&#45;13f37d594be1&#45;&gt;eaa82886&#45;7418&#45;4617&#45;8655&#45;9b90bdcb61f3</title>
<path fill="none" stroke="black" stroke-dasharray="5,2" d="M461.74,-430.82C437.49,-419.69 408.76,-406.5 385.19,-395.68"/>
<polygon fill="black" stroke="black" points="386.65,-392.5 376.1,-391.51 383.73,-398.86 386.65,-392.5"/>
</g>
<!-- 1561d145&#45;f758&#45;41ad&#45;b0c2&#45;5e76a737caf6 -->
<g id="node8" class="node">
<title>1561d145&#45;f758&#45;41ad&#45;b0c2&#45;5e76a737caf6</title>
<polygon fill="white" stroke="black" points="851.5,-391.48 522.5,-391.48 522.5,-355.48 851.5,-355.48 851.5,-391.48"/>
<text text-anchor="middle" x="687" y="-369.78" font-family="Helvetica,sans-Serif" font-size="14.00">▶ Ran sandbox for `ultra_type/controller.py`.</text>
</g>
<!-- bab0e844&#45;a3d7&#45;4408&#45;b71b&#45;13f37d594be1&#45;&gt;1561d145&#45;f758&#45;41ad&#45;b0c2&#45;5e76a737caf6 -->
<g id="edge9" class="edge">
<title>bab0e844&#45;a3d7&#45;4408&#45;b71b&#45;13f37d594be1&#45;&gt;1561d145&#45;f758&#45;41ad&#45;b0c2&#45;5e76a737caf6</title>
<path fill="none" stroke="black" stroke-dasharray="5,2" d="M564.26,-430.82C588.51,-419.69 617.24,-406.5 640.81,-395.68"/>
<polygon fill="black" stroke="black" points="642.27,-398.86 649.9,-391.51 639.35,-392.5 642.27,-398.86"/>
</g>
<!-- 8d10f238&#45;f10a&#45;4234&#45;b4d8&#45;80f91a667c3a -->
<g id="node9" class="node">
<title>8d10f238&#45;f10a&#45;4234&#45;b4d8&#45;80f91a667c3a</title>
<ellipse fill="#0ee832" stroke="black" cx="339" cy="-277.61" rx="124.4" ry="26.74"/>
<text text-anchor="middle" x="339" y="-281.41" font-family="Helvetica,sans-Serif" font-size="14.00">✓ Modify</text>
<text text-anchor="middle" x="339" y="-266.41" font-family="Helvetica,sans-Serif" font-size="14.00">ultra_type/controller.py</text>
</g>
<!-- eaa82886&#45;7418&#45;4617&#45;8655&#45;9b90bdcb61f3&#45;&gt;8d10f238&#45;f10a&#45;4234&#45;b4d8&#45;80f91a667c3a -->
<g id="edge4" class="edge">
<title>eaa82886&#45;7418&#45;4617&#45;8655&#45;9b90bdcb61f3&#45;&gt;8d10f238&#45;f10a&#45;4234&#45;b4d8&#45;80f91a667c3a</title>
<path fill="none" stroke="black" d="M339,-355.26C339,-343.96 339,-328.75 339,-314.86"/>
<polygon fill="black" stroke="black" points="342.5,-314.58 339,-304.58 335.5,-314.58 342.5,-314.58"/>
<text text-anchor="middle" x="436.5" y="-326.28" font-family="Helvetica,sans-Serif" font-size="14.00">Additional changes required</text>
</g>
<!-- 35109820&#45;0b6f&#45;4431&#45;b058&#45;b5cbd3c79e46 -->
<g id="node10" class="node">
<title>35109820&#45;0b6f&#45;4431&#45;b058&#45;b5cbd3c79e46</title>
<polygon fill="#ee0000" stroke="black" points="330,-213.74 0,-213.74 0,-177.74 330,-177.74 330,-213.74"/>
<text text-anchor="middle" x="165" y="-192.04" font-family="Helvetica,sans-Serif" font-size="14.00">✗ Ran sandbox for `ultra_type/controller.py`.</text>
</g>
<!-- 8d10f238&#45;f10a&#45;4234&#45;b4d8&#45;80f91a667c3a&#45;&gt;35109820&#45;0b6f&#45;4431&#45;b058&#45;b5cbd3c79e46 -->
<g id="edge5" class="edge">
<title>8d10f238&#45;f10a&#45;4234&#45;b4d8&#45;80f91a667c3a&#45;&gt;35109820&#45;0b6f&#45;4431&#45;b058&#45;b5cbd3c79e46</title>
<path fill="none" stroke="black" stroke-dasharray="5,2" d="M287.74,-253.08C263.49,-241.95 234.76,-228.76 211.19,-217.94"/>
<polygon fill="black" stroke="black" points="212.65,-214.76 202.1,-213.77 209.73,-221.12 212.65,-214.76"/>
</g>
<!-- 10ac2dcc&#45;6c51&#45;44e7&#45;a682&#45;8609bd588881 -->
<g id="node11" class="node">
<title>10ac2dcc&#45;6c51&#45;44e7&#45;a682&#45;8609bd588881</title>
<polygon fill="white" stroke="black" points="677.5,-213.74 348.5,-213.74 348.5,-177.74 677.5,-177.74 677.5,-213.74"/>
<text text-anchor="middle" x="513" y="-192.04" font-family="Helvetica,sans-Serif" font-size="14.00">▶ Ran sandbox for `ultra_type/controller.py`.</text>
</g>
<!-- 8d10f238&#45;f10a&#45;4234&#45;b4d8&#45;80f91a667c3a&#45;&gt;10ac2dcc&#45;6c51&#45;44e7&#45;a682&#45;8609bd588881 -->
<g id="edge8" class="edge">
<title>8d10f238&#45;f10a&#45;4234&#45;b4d8&#45;80f91a667c3a&#45;&gt;10ac2dcc&#45;6c51&#45;44e7&#45;a682&#45;8609bd588881</title>
<path fill="none" stroke="black" stroke-dasharray="5,2" d="M390.26,-253.08C414.51,-241.95 443.24,-228.76 466.81,-217.94"/>
<polygon fill="black" stroke="black" points="468.27,-221.12 475.9,-213.77 465.35,-214.76 468.27,-221.12"/>
</g>
<!-- 6096b44f&#45;4660&#45;4434&#45;8654&#45;46c4cdec9d9b -->
<g id="node12" class="node">
<title>6096b44f&#45;4660&#45;4434&#45;8654&#45;46c4cdec9d9b</title>
<ellipse fill="yellow" stroke="black" cx="165" cy="-99.87" rx="124.4" ry="26.74"/>
<text text-anchor="middle" x="165" y="-103.67" font-family="Helvetica,sans-Serif" font-size="14.00">⋯ Modify</text>
<text text-anchor="middle" x="165" y="-88.67" font-family="Helvetica,sans-Serif" font-size="14.00">ultra_type/controller.py</text>
</g>
<!-- 35109820&#45;0b6f&#45;4431&#45;b058&#45;b5cbd3c79e46&#45;&gt;6096b44f&#45;4660&#45;4434&#45;8654&#45;46c4cdec9d9b -->
<g id="edge6" class="edge">
<title>35109820&#45;0b6f&#45;4431&#45;b058&#45;b5cbd3c79e46&#45;&gt;6096b44f&#45;4660&#45;4434&#45;8654&#45;46c4cdec9d9b</title>
<path fill="none" stroke="black" d="M165,-177.52C165,-166.22 165,-151.01 165,-137.12"/>
<polygon fill="black" stroke="black" points="168.5,-136.84 165,-126.84 161.5,-136.84 168.5,-136.84"/>
<text text-anchor="middle" x="262.5" y="-148.54" font-family="Helvetica,sans-Serif" font-size="14.00">Additional changes required</text>
</g>
<!-- c92ee8db&#45;2a99&#45;406c&#45;ab5d&#45;0b2995709448 -->
<g id="node13" class="node">
<title>c92ee8db&#45;2a99&#45;406c&#45;ab5d&#45;0b2995709448</title>
<polygon fill="white" stroke="black" points="329.5,-36 0.5,-36 0.5,0 329.5,0 329.5,-36"/>
<text text-anchor="middle" x="165" y="-14.3" font-family="Helvetica,sans-Serif" font-size="14.00">▶ Ran sandbox for `ultra_type/controller.py`.</text>
</g>
<!-- 6096b44f&#45;4660&#45;4434&#45;8654&#45;46c4cdec9d9b&#45;&gt;c92ee8db&#45;2a99&#45;406c&#45;ab5d&#45;0b2995709448 -->
<g id="edge7" class="edge">
<title>6096b44f&#45;4660&#45;4434&#45;8654&#45;46c4cdec9d9b&#45;&gt;c92ee8db&#45;2a99&#45;406c&#45;ab5d&#45;0b2995709448</title>
<path fill="none" stroke="black" stroke-dasharray="5,2" d="M165,-72.72C165,-64.27 165,-54.89 165,-46.36"/>
<polygon fill="black" stroke="black" points="168.5,-46.15 165,-36.15 161.5,-46.15 168.5,-46.15"/>
</g>
</g>
</svg>
