<?xml version="1.0" encoding="UTF-8" standalone="no"?>
<!DOCTYPE svg PUBLIC "-//W3C//DTD SVG 1.1//EN"
 "http://www.w3.org/Graphics/SVG/1.1/DTD/svg11.dtd">
<!-- Generated by graphviz version 2.43.0 (0)
 -->
<!-- Title: %3 Pages: 1 -->
<svg width="429pt" height="165pt"
 viewBox="0.00 0.00 429.00 164.74" xmlns="http://www.w3.org/2000/svg" xmlns:xlink="http://www.w3.org/1999/xlink">
<g id="graph0" class="graph" transform="scale(1 1) rotate(0) translate(36 128.74)">
<title>%3</title>
<polygon fill="dimgray" stroke="transparent" points="-36,36 -36,-128.74 393,-128.74 393,36 -36,36"/>
<text text-anchor="middle" x="178.5" y="-77.54" font-family="Helvetica,sans-Serif" font-size="14.00">Sweep&#39;s Plan &amp; Progress</text>
<!-- start -->
<g id="node1" class="node">
<title>start</title>
</g>
<!-- 54f77461&#45;4047&#45;4d23&#45;97e7&#45;d8a1e25f3a25 -->
<g id="node3" class="node">
<title>54f77461&#45;4047&#45;4d23&#45;97e7&#45;d8a1e25f3a25</title>
<ellipse fill="#0ee832" stroke="black" cx="175.5" cy="-26.87" rx="123.07" ry="26.74"/>
<text text-anchor="middle" x="175.5" y="-30.67" font-family="Helvetica,sans-Serif" font-size="14.00">✓ Modify</text>
<text text-anchor="middle" x="175.5" y="-15.67" font-family="Helvetica,sans-Serif" font-size="14.00">tests/test_language.py</text>
</g>
<!-- start&#45;&gt;54f77461&#45;4047&#45;4d23&#45;97e7&#45;d8a1e25f3a25 -->
<g id="edge1" class="edge">
<title>start&#45;&gt;54f77461&#45;4047&#45;4d23&#45;97e7&#45;d8a1e25f3a25</title>
<path fill="none" stroke="black" d="M1,-26.87C4.03,-26.87 20.42,-26.87 42.05,-26.87"/>
<polygon fill="black" stroke="black" points="42.33,-30.37 52.33,-26.87 42.32,-23.37 42.33,-30.37"/>
<text text-anchor="middle" x="26.73" y="-33.67" font-family="Helvetica,sans-Serif" font-size="14.00">Start</text>
</g>
<!-- end -->
<g id="node2" class="node">
<title>end</title>
</g>
<!-- 54f77461&#45;4047&#45;4d23&#45;97e7&#45;d8a1e25f3a25&#45;&gt;end -->
<g id="edge2" class="edge">
<title>54f77461&#45;4047&#45;4d23&#45;97e7&#45;d8a1e25f3a25&#45;&gt;end</title>
<path fill="none" stroke="black" d="M298.73,-26.87C318.02,-26.87 335.01,-26.87 345.49,-26.87"/>
<polygon fill="black" stroke="black" points="345.84,-30.37 355.84,-26.87 345.84,-23.37 345.84,-30.37"/>
<text text-anchor="middle" x="327.27" y="-33.67" font-family="Helvetica,sans-Serif" font-size="14.00">Finish</text>
</g>
</g>
</svg>
