<?xml version="1.0" encoding="UTF-8" standalone="no"?>
<!DOCTYPE svg PUBLIC "-//W3C//DTD SVG 1.1//EN"
 "http://www.w3.org/Graphics/SVG/1.1/DTD/svg11.dtd">
<!-- Generated by graphviz version 2.43.0 (0)
 -->
<!-- Title: %3 Pages: 1 -->
<svg width="1978pt" height="342pt"
 viewBox="0.00 0.00 1978.00 342.48" xmlns="http://www.w3.org/2000/svg" xmlns:xlink="http://www.w3.org/1999/xlink">
<g id="graph0" class="graph" transform="scale(1 1) rotate(0) translate(36 306.48)">
<title>%3</title>
<polygon fill="dimgray" stroke="transparent" points="-36,36 -36,-306.48 1942,-306.48 1942,36 -36,36"/>
<text text-anchor="middle" x="953" y="-255.28" font-family="Helvetica,sans-Serif" font-size="14.00">Sweep&#39;s Plan &amp; Progress</text>
<!-- start -->
<g id="node1" class="node">
<title>start</title>
</g>
<!-- c25745ea&#45;c295&#45;42a4&#45;aad1&#45;4ebfb5802c3a -->
<g id="node3" class="node">
<title>c25745ea&#45;c295&#45;42a4&#45;aad1&#45;4ebfb5802c3a</title>
<ellipse fill="#0ee832" stroke="black" cx="344.5" cy="-204.61" rx="101.23" ry="26.74"/>
<text text-anchor="middle" x="344.5" y="-208.41" font-family="Helvetica,sans-Serif" font-size="14.00">✓ Modify</text>
<text text-anchor="middle" x="344.5" y="-193.41" font-family="Helvetica,sans-Serif" font-size="14.00">ultra_type/view.py</text>
</g>
<!-- start&#45;&gt;c25745ea&#45;c295&#45;42a4&#45;aad1&#45;4ebfb5802c3a -->
<g id="edge12" class="edge">
<title>start&#45;&gt;c25745ea&#45;c295&#45;42a4&#45;aad1&#45;4ebfb5802c3a</title>
<path fill="none" stroke="black" d="M192.18,-204.61C195.66,-204.61 212.09,-204.61 232.96,-204.61"/>
<polygon fill="black" stroke="black" points="233.17,-208.11 243.17,-204.61 233.17,-201.11 233.17,-208.11"/>
<text text-anchor="middle" x="217.69" y="-211.41" font-family="Helvetica,sans-Serif" font-size="14.00">Start</text>
</g>
<!-- end -->
<g id="node2" class="node">
<title>end</title>
</g>
<!-- d6c9a186&#45;6269&#45;4f57&#45;8def&#45;9befd659fa35 -->
<g id="node4" class="node">
<title>d6c9a186&#45;6269&#45;4f57&#45;8def&#45;9befd659fa35</title>
<ellipse fill="#0ee832" stroke="black" cx="778.5" cy="-204.61" rx="101.23" ry="26.74"/>
<text text-anchor="middle" x="778.5" y="-208.41" font-family="Helvetica,sans-Serif" font-size="14.00">✓ Modify</text>
<text text-anchor="middle" x="778.5" y="-193.41" font-family="Helvetica,sans-Serif" font-size="14.00">ultra_type/view.py</text>
</g>
<!-- c25745ea&#45;c295&#45;42a4&#45;aad1&#45;4ebfb5802c3a&#45;&gt;d6c9a186&#45;6269&#45;4f57&#45;8def&#45;9befd659fa35 -->
<g id="edge2" class="edge">
<title>c25745ea&#45;c295&#45;42a4&#45;aad1&#45;4ebfb5802c3a&#45;&gt;d6c9a186&#45;6269&#45;4f57&#45;8def&#45;9befd659fa35</title>
<path fill="none" stroke="black" d="M445.79,-204.61C519.44,-204.61 593.09,-204.61 666.74,-204.61"/>
<polygon fill="black" stroke="black" points="667.13,-208.11 677.13,-204.61 667.13,-201.11 667.13,-208.11"/>
</g>
<!-- 29769701&#45;8612&#45;4a9b&#45;aef2&#45;c611888521d7 -->
<g id="node7" class="node">
<title>29769701&#45;8612&#45;4a9b&#45;aef2&#45;c611888521d7</title>
<polygon fill="#0ee832" stroke="black" points="297,-140.74 0,-140.74 0,-104.74 297,-104.74 297,-140.74"/>
<text text-anchor="middle" x="148.5" y="-119.04" font-family="Helvetica,sans-Serif" font-size="14.00">✓ Ran sandbox for `ultra_type/view.py`.</text>
</g>
<!-- c25745ea&#45;c295&#45;42a4&#45;aad1&#45;4ebfb5802c3a&#45;&gt;29769701&#45;8612&#45;4a9b&#45;aef2&#45;c611888521d7 -->
<g id="edge1" class="edge">
<title>c25745ea&#45;c295&#45;42a4&#45;aad1&#45;4ebfb5802c3a&#45;&gt;29769701&#45;8612&#45;4a9b&#45;aef2&#45;c611888521d7</title>
<path fill="none" stroke="black" stroke-dasharray="5,2" d="M290.94,-181.79C262.65,-170.26 228.1,-156.18 200.11,-144.77"/>
<polygon fill="black" stroke="black" points="201.08,-141.39 190.5,-140.86 198.44,-147.87 201.08,-141.39"/>
</g>
<!-- 0dcba031&#45;916d&#45;472e&#45;87cf&#45;9337e1b13f56 -->
<g id="node5" class="node">
<title>0dcba031&#45;916d&#45;472e&#45;87cf&#45;9337e1b13f56</title>
<ellipse fill="white" stroke="black" cx="1410.5" cy="-204.61" rx="101.23" ry="26.74"/>
<text text-anchor="middle" x="1410.5" y="-208.41" font-family="Helvetica,sans-Serif" font-size="14.00">▶ Modify</text>
<text text-anchor="middle" x="1410.5" y="-193.41" font-family="Helvetica,sans-Serif" font-size="14.00">ultra_type/view.py</text>
</g>
<!-- d6c9a186&#45;6269&#45;4f57&#45;8def&#45;9befd659fa35&#45;&gt;0dcba031&#45;916d&#45;472e&#45;87cf&#45;9337e1b13f56 -->
<g id="edge8" class="edge">
<title>d6c9a186&#45;6269&#45;4f57&#45;8def&#45;9befd659fa35&#45;&gt;0dcba031&#45;916d&#45;472e&#45;87cf&#45;9337e1b13f56</title>
<path fill="none" stroke="black" d="M879.72,-204.61C1019.51,-204.61 1159.31,-204.61 1299.1,-204.61"/>
<polygon fill="black" stroke="black" points="1299.16,-208.11 1309.16,-204.61 1299.16,-201.11 1299.16,-208.11"/>
</g>
<!-- 9fc897a1&#45;8c45&#45;4074&#45;b904&#45;395998ccc48e -->
<g id="node8" class="node">
<title>9fc897a1&#45;8c45&#45;4074&#45;b904&#45;395998ccc48e</title>
<polygon fill="#ee0000" stroke="black" points="612,-140.74 315,-140.74 315,-104.74 612,-104.74 612,-140.74"/>
<text text-anchor="middle" x="463.5" y="-119.04" font-family="Helvetica,sans-Serif" font-size="14.00">✗ Ran sandbox for `ultra_type/view.py`.</text>
</g>
<!-- d6c9a186&#45;6269&#45;4f57&#45;8def&#45;9befd659fa35&#45;&gt;9fc897a1&#45;8c45&#45;4074&#45;b904&#45;395998ccc48e -->
<g id="edge3" class="edge">
<title>d6c9a186&#45;6269&#45;4f57&#45;8def&#45;9befd659fa35&#45;&gt;9fc897a1&#45;8c45&#45;4074&#45;b904&#45;395998ccc48e</title>
<path fill="none" stroke="black" stroke-dasharray="5,2" d="M707.02,-185.49C657.42,-172.91 591.39,-156.17 540.6,-143.29"/>
<polygon fill="black" stroke="black" points="541.21,-139.83 530.65,-140.77 539.49,-146.62 541.21,-139.83"/>
</g>
<!-- 6a7f8f47&#45;5160&#45;4957&#45;b5b0&#45;dfdfe062e820 -->
<g id="node9" class="node">
<title>6a7f8f47&#45;5160&#45;4957&#45;b5b0&#45;dfdfe062e820</title>
<polygon fill="#ee0000" stroke="black" points="927,-140.74 630,-140.74 630,-104.74 927,-104.74 927,-140.74"/>
<text text-anchor="middle" x="778.5" y="-119.04" font-family="Helvetica,sans-Serif" font-size="14.00">✗ Ran sandbox for `ultra_type/view.py`.</text>
</g>
<!-- d6c9a186&#45;6269&#45;4f57&#45;8def&#45;9befd659fa35&#45;&gt;6a7f8f47&#45;5160&#45;4957&#45;b5b0&#45;dfdfe062e820 -->
<g id="edge5" class="edge">
<title>d6c9a186&#45;6269&#45;4f57&#45;8def&#45;9befd659fa35&#45;&gt;6a7f8f47&#45;5160&#45;4957&#45;b5b0&#45;dfdfe062e820</title>
<path fill="none" stroke="black" stroke-dasharray="5,2" d="M778.5,-177.46C778.5,-169.01 778.5,-159.63 778.5,-151.1"/>
<polygon fill="black" stroke="black" points="782,-150.89 778.5,-140.89 775,-150.89 782,-150.89"/>
</g>
<!-- b5241a2f&#45;5344&#45;40de&#45;94b4&#45;4c4a9025c480 -->
<g id="node10" class="node">
<title>b5241a2f&#45;5344&#45;40de&#45;94b4&#45;4c4a9025c480</title>
<polygon fill="yellow" stroke="black" points="1244,-140.74 945,-140.74 945,-104.74 1244,-104.74 1244,-140.74"/>
<text text-anchor="middle" x="1094.5" y="-119.04" font-family="Helvetica,sans-Serif" font-size="14.00">⋯ Ran sandbox for `ultra_type/view.py`.</text>
</g>
<!-- d6c9a186&#45;6269&#45;4f57&#45;8def&#45;9befd659fa35&#45;&gt;b5241a2f&#45;5344&#45;40de&#45;94b4&#45;4c4a9025c480 -->
<g id="edge7" class="edge">
<title>d6c9a186&#45;6269&#45;4f57&#45;8def&#45;9befd659fa35&#45;&gt;b5241a2f&#45;5344&#45;40de&#45;94b4&#45;4c4a9025c480</title>
<path fill="none" stroke="black" stroke-dasharray="5,2" d="M850.21,-185.49C899.97,-172.91 966.21,-156.17 1017.16,-143.29"/>
<polygon fill="black" stroke="black" points="1018.3,-146.61 1027.13,-140.77 1016.58,-139.82 1018.3,-146.61"/>
</g>
<!-- c2a9a363&#45;8ad5&#45;4c1c&#45;af36&#45;bbf1da754f63 -->
<g id="node6" class="node">
<title>c2a9a363&#45;8ad5&#45;4c1c&#45;af36&#45;bbf1da754f63</title>
<ellipse fill="white" stroke="black" cx="1706.5" cy="-204.61" rx="124.4" ry="26.74"/>
<text text-anchor="middle" x="1706.5" y="-208.41" font-family="Helvetica,sans-Serif" font-size="14.00">▶ Modify</text>
<text text-anchor="middle" x="1706.5" y="-193.41" font-family="Helvetica,sans-Serif" font-size="14.00">ultra_type/controller.py</text>
</g>
<!-- 0dcba031&#45;916d&#45;472e&#45;87cf&#45;9337e1b13f56&#45;&gt;c2a9a363&#45;8ad5&#45;4c1c&#45;af36&#45;bbf1da754f63 -->
<g id="edge10" class="edge">
<title>0dcba031&#45;916d&#45;472e&#45;87cf&#45;9337e1b13f56&#45;&gt;c2a9a363&#45;8ad5&#45;4c1c&#45;af36&#45;bbf1da754f63</title>
<path fill="none" stroke="black" d="M1511.67,-204.61C1531.64,-204.61 1551.6,-204.61 1571.57,-204.61"/>
<polygon fill="black" stroke="black" points="1571.69,-208.11 1581.69,-204.61 1571.69,-201.11 1571.69,-208.11"/>
</g>
<!-- 778b5f59&#45;2ce2&#45;4834&#45;b070&#45;f7b43ce966ec -->
<g id="node11" class="node">
<title>778b5f59&#45;2ce2&#45;4834&#45;b070&#45;f7b43ce966ec</title>
<polygon fill="white" stroke="black" points="1558.5,-140.74 1262.5,-140.74 1262.5,-104.74 1558.5,-104.74 1558.5,-140.74"/>
<text text-anchor="middle" x="1410.5" y="-119.04" font-family="Helvetica,sans-Serif" font-size="14.00">▶ Ran sandbox for `ultra_type/view.py`.</text>
</g>
<!-- 0dcba031&#45;916d&#45;472e&#45;87cf&#45;9337e1b13f56&#45;&gt;778b5f59&#45;2ce2&#45;4834&#45;b070&#45;f7b43ce966ec -->
<g id="edge9" class="edge">
<title>0dcba031&#45;916d&#45;472e&#45;87cf&#45;9337e1b13f56&#45;&gt;778b5f59&#45;2ce2&#45;4834&#45;b070&#45;f7b43ce966ec</title>
<path fill="none" stroke="black" stroke-dasharray="5,2" d="M1410.5,-177.46C1410.5,-169.01 1410.5,-159.63 1410.5,-151.1"/>
<polygon fill="black" stroke="black" points="1414,-150.89 1410.5,-140.89 1407,-150.89 1414,-150.89"/>
</g>
<!-- c2a9a363&#45;8ad5&#45;4c1c&#45;af36&#45;bbf1da754f63&#45;&gt;end -->
<g id="edge13" class="edge">
<title>c2a9a363&#45;8ad5&#45;4c1c&#45;af36&#45;bbf1da754f63&#45;&gt;end</title>
<path fill="none" stroke="black" d="M1831.41,-204.61C1850.53,-204.61 1867.31,-204.61 1877.65,-204.61"/>
<polygon fill="black" stroke="black" points="1877.85,-208.11 1887.85,-204.61 1877.85,-201.11 1877.85,-208.11"/>
<text text-anchor="middle" x="1859.48" y="-211.41" font-family="Helvetica,sans-Serif" font-size="14.00">Finish</text>
</g>
<!-- a1297533&#45;a9de&#45;4794&#45;881f&#45;5834a7dd539d -->
<g id="node12" class="node">
<title>a1297533&#45;a9de&#45;4794&#45;881f&#45;5834a7dd539d</title>
<polygon fill="white" stroke="black" points="1906,-140.74 1577,-140.74 1577,-104.74 1906,-104.74 1906,-140.74"/>
<text text-anchor="middle" x="1741.5" y="-119.04" font-family="Helvetica,sans-Serif" font-size="14.00">▶ Ran sandbox for `ultra_type/controller.py`.</text>
</g>
<!-- c2a9a363&#45;8ad5&#45;4c1c&#45;af36&#45;bbf1da754f63&#45;&gt;a1297533&#45;a9de&#45;4794&#45;881f&#45;5834a7dd539d -->
<g id="edge11" class="edge">
<title>c2a9a363&#45;8ad5&#45;4c1c&#45;af36&#45;bbf1da754f63&#45;&gt;a1297533&#45;a9de&#45;4794&#45;881f&#45;5834a7dd539d</title>
<path fill="none" stroke="black" stroke-dasharray="5,2" d="M1717.96,-177.46C1721.78,-168.73 1726.05,-159 1729.88,-150.25"/>
<polygon fill="black" stroke="black" points="1733.18,-151.45 1733.99,-140.89 1726.77,-148.64 1733.18,-151.45"/>
</g>
<!-- 110baa4a&#45;82dd&#45;46f3&#45;96f4&#45;4d7beb1bc461 -->
<g id="node13" class="node">
<title>110baa4a&#45;82dd&#45;46f3&#45;96f4&#45;4d7beb1bc461</title>
<ellipse fill="#0ee832" stroke="black" cx="463.5" cy="-26.87" rx="101.23" ry="26.74"/>
<text text-anchor="middle" x="463.5" y="-30.67" font-family="Helvetica,sans-Serif" font-size="14.00">✓ Modify</text>
<text text-anchor="middle" x="463.5" y="-15.67" font-family="Helvetica,sans-Serif" font-size="14.00">ultra_type/view.py</text>
</g>
<!-- 9fc897a1&#45;8c45&#45;4074&#45;b904&#45;395998ccc48e&#45;&gt;110baa4a&#45;82dd&#45;46f3&#45;96f4&#45;4d7beb1bc461 -->
<g id="edge4" class="edge">
<title>9fc897a1&#45;8c45&#45;4074&#45;b904&#45;395998ccc48e&#45;&gt;110baa4a&#45;82dd&#45;46f3&#45;96f4&#45;4d7beb1bc461</title>
<path fill="none" stroke="black" d="M463.5,-104.52C463.5,-93.22 463.5,-78.01 463.5,-64.12"/>
<polygon fill="black" stroke="black" points="467,-63.84 463.5,-53.84 460,-63.84 467,-63.84"/>
<text text-anchor="middle" x="561" y="-75.54" font-family="Helvetica,sans-Serif" font-size="14.00">Additional changes required</text>
</g>
<!-- d25dd618&#45;d9c1&#45;470d&#45;9036&#45;6f2a7d58bc07 -->
<g id="node14" class="node">
<title>d25dd618&#45;d9c1&#45;470d&#45;9036&#45;6f2a7d58bc07</title>
<ellipse fill="#0ee832" stroke="black" cx="778.5" cy="-26.87" rx="101.23" ry="26.74"/>
<text text-anchor="middle" x="778.5" y="-30.67" font-family="Helvetica,sans-Serif" font-size="14.00">✓ Modify</text>
<text text-anchor="middle" x="778.5" y="-15.67" font-family="Helvetica,sans-Serif" font-size="14.00">ultra_type/view.py</text>
</g>
<!-- 6a7f8f47&#45;5160&#45;4957&#45;b5b0&#45;dfdfe062e820&#45;&gt;d25dd618&#45;d9c1&#45;470d&#45;9036&#45;6f2a7d58bc07 -->
<g id="edge6" class="edge">
<title>6a7f8f47&#45;5160&#45;4957&#45;b5b0&#45;dfdfe062e820&#45;&gt;d25dd618&#45;d9c1&#45;470d&#45;9036&#45;6f2a7d58bc07</title>
<path fill="none" stroke="black" d="M778.5,-104.52C778.5,-93.22 778.5,-78.01 778.5,-64.12"/>
<polygon fill="black" stroke="black" points="782,-63.84 778.5,-53.84 775,-63.84 782,-63.84"/>
<text text-anchor="middle" x="876" y="-75.54" font-family="Helvetica,sans-Serif" font-size="14.00">Additional changes required</text>
</g>
</g>
</svg>
