<?xml version="1.0" encoding="UTF-8" standalone="no"?>
<!DOCTYPE svg PUBLIC "-//W3C//DTD SVG 1.1//EN"
 "http://www.w3.org/Graphics/SVG/1.1/DTD/svg11.dtd">
<!-- Generated by graphviz version 2.43.0 (0)
 -->
<!-- Title: %3 Pages: 1 -->
<svg width="1347pt" height="238pt"
 viewBox="0.00 0.00 1347.00 237.74" xmlns="http://www.w3.org/2000/svg" xmlns:xlink="http://www.w3.org/1999/xlink">
<g id="graph0" class="graph" transform="scale(1 1) rotate(0) translate(36 201.74)">
<title>%3</title>
<polygon fill="dimgray" stroke="transparent" points="-36,36 -36,-201.74 1311,-201.74 1311,36 -36,36"/>
<text text-anchor="middle" x="637.5" y="-150.54" font-family="Helvetica,sans-Serif" font-size="14.00">Sweep&#39;s Plan &amp; Progress</text>
<!-- start -->
<g id="node1" class="node">
<title>start</title>
</g>
<!-- c25745ea&#45;c295&#45;42a4&#45;aad1&#45;4ebfb5802c3a -->
<g id="node3" class="node">
<title>c25745ea&#45;c295&#45;42a4&#45;aad1&#45;4ebfb5802c3a</title>
<ellipse fill="#0ee832" stroke="black" cx="188.5" cy="-99.87" rx="101.23" ry="26.74"/>
<text text-anchor="middle" x="188.5" y="-103.67" font-family="Helvetica,sans-Serif" font-size="14.00">✓ Modify</text>
<text text-anchor="middle" x="188.5" y="-88.67" font-family="Helvetica,sans-Serif" font-size="14.00">ultra_type/view.py</text>
</g>
<!-- start&#45;&gt;c25745ea&#45;c295&#45;42a4&#45;aad1&#45;4ebfb5802c3a -->
<g id="edge8" class="edge">
<title>start&#45;&gt;c25745ea&#45;c295&#45;42a4&#45;aad1&#45;4ebfb5802c3a</title>
<path fill="none" stroke="black" d="M36.18,-99.87C39.66,-99.87 56.09,-99.87 76.96,-99.87"/>
<polygon fill="black" stroke="black" points="77.17,-103.37 87.17,-99.87 77.17,-96.37 77.17,-103.37"/>
<text text-anchor="middle" x="61.69" y="-106.67" font-family="Helvetica,sans-Serif" font-size="14.00">Start</text>
</g>
<!-- end -->
<g id="node2" class="node">
<title>end</title>
</g>
<!-- d6c9a186&#45;6269&#45;4f57&#45;8def&#45;9befd659fa35 -->
<g id="node4" class="node">
<title>d6c9a186&#45;6269&#45;4f57&#45;8def&#45;9befd659fa35</title>
<ellipse fill="white" stroke="black" cx="465.5" cy="-99.87" rx="101.23" ry="26.74"/>
<text text-anchor="middle" x="465.5" y="-103.67" font-family="Helvetica,sans-Serif" font-size="14.00">▶ Modify</text>
<text text-anchor="middle" x="465.5" y="-88.67" font-family="Helvetica,sans-Serif" font-size="14.00">ultra_type/view.py</text>
</g>
<!-- c25745ea&#45;c295&#45;42a4&#45;aad1&#45;4ebfb5802c3a&#45;&gt;d6c9a186&#45;6269&#45;4f57&#45;8def&#45;9befd659fa35 -->
<g id="edge2" class="edge">
<title>c25745ea&#45;c295&#45;42a4&#45;aad1&#45;4ebfb5802c3a&#45;&gt;d6c9a186&#45;6269&#45;4f57&#45;8def&#45;9befd659fa35</title>
<path fill="none" stroke="black" d="M289.67,-99.87C311.11,-99.87 332.56,-99.87 354,-99.87"/>
<polygon fill="black" stroke="black" points="354.19,-103.37 364.19,-99.87 354.19,-96.37 354.19,-103.37"/>
</g>
<!-- 29769701&#45;8612&#45;4a9b&#45;aef2&#45;c611888521d7 -->
<g id="node7" class="node">
<title>29769701&#45;8612&#45;4a9b&#45;aef2&#45;c611888521d7</title>
<polygon fill="yellow" stroke="black" points="299,-36 0,-36 0,0 299,0 299,-36"/>
<text text-anchor="middle" x="149.5" y="-14.3" font-family="Helvetica,sans-Serif" font-size="14.00">⋯ Ran sandbox for `ultra_type/view.py`.</text>
</g>
<!-- c25745ea&#45;c295&#45;42a4&#45;aad1&#45;4ebfb5802c3a&#45;&gt;29769701&#45;8612&#45;4a9b&#45;aef2&#45;c611888521d7 -->
<g id="edge1" class="edge">
<title>c25745ea&#45;c295&#45;42a4&#45;aad1&#45;4ebfb5802c3a&#45;&gt;29769701&#45;8612&#45;4a9b&#45;aef2&#45;c611888521d7</title>
<path fill="none" stroke="black" stroke-dasharray="5,2" d="M175.95,-73.16C171.63,-64.32 166.79,-54.41 162.44,-45.5"/>
<polygon fill="black" stroke="black" points="165.5,-43.79 157.97,-36.34 159.21,-46.86 165.5,-43.79"/>
</g>
<!-- 0dcba031&#45;916d&#45;472e&#45;87cf&#45;9337e1b13f56 -->
<g id="node5" class="node">
<title>0dcba031&#45;916d&#45;472e&#45;87cf&#45;9337e1b13f56</title>
<ellipse fill="white" stroke="black" cx="779.5" cy="-99.87" rx="101.23" ry="26.74"/>
<text text-anchor="middle" x="779.5" y="-103.67" font-family="Helvetica,sans-Serif" font-size="14.00">▶ Modify</text>
<text text-anchor="middle" x="779.5" y="-88.67" font-family="Helvetica,sans-Serif" font-size="14.00">ultra_type/view.py</text>
</g>
<!-- d6c9a186&#45;6269&#45;4f57&#45;8def&#45;9befd659fa35&#45;&gt;0dcba031&#45;916d&#45;472e&#45;87cf&#45;9337e1b13f56 -->
<g id="edge4" class="edge">
<title>d6c9a186&#45;6269&#45;4f57&#45;8def&#45;9befd659fa35&#45;&gt;0dcba031&#45;916d&#45;472e&#45;87cf&#45;9337e1b13f56</title>
<path fill="none" stroke="black" d="M566.69,-99.87C600.49,-99.87 634.28,-99.87 668.08,-99.87"/>
<polygon fill="black" stroke="black" points="668.08,-103.37 678.08,-99.87 668.08,-96.37 668.08,-103.37"/>
</g>
<!-- 9fc897a1&#45;8c45&#45;4074&#45;b904&#45;395998ccc48e -->
<g id="node8" class="node">
<title>9fc897a1&#45;8c45&#45;4074&#45;b904&#45;395998ccc48e</title>
<polygon fill="white" stroke="black" points="613.5,-36 317.5,-36 317.5,0 613.5,0 613.5,-36"/>
<text text-anchor="middle" x="465.5" y="-14.3" font-family="Helvetica,sans-Serif" font-size="14.00">▶ Ran sandbox for `ultra_type/view.py`.</text>
</g>
<!-- d6c9a186&#45;6269&#45;4f57&#45;8def&#45;9befd659fa35&#45;&gt;9fc897a1&#45;8c45&#45;4074&#45;b904&#45;395998ccc48e -->
<g id="edge3" class="edge">
<title>d6c9a186&#45;6269&#45;4f57&#45;8def&#45;9befd659fa35&#45;&gt;9fc897a1&#45;8c45&#45;4074&#45;b904&#45;395998ccc48e</title>
<path fill="none" stroke="black" stroke-dasharray="5,2" d="M465.5,-72.72C465.5,-64.27 465.5,-54.89 465.5,-46.36"/>
<polygon fill="black" stroke="black" points="469,-46.15 465.5,-36.15 462,-46.15 469,-46.15"/>
</g>
<!-- c2a9a363&#45;8ad5&#45;4c1c&#45;af36&#45;bbf1da754f63 -->
<g id="node6" class="node">
<title>c2a9a363&#45;8ad5&#45;4c1c&#45;af36&#45;bbf1da754f63</title>
<ellipse fill="white" stroke="black" cx="1075.5" cy="-99.87" rx="124.4" ry="26.74"/>
<text text-anchor="middle" x="1075.5" y="-103.67" font-family="Helvetica,sans-Serif" font-size="14.00">▶ Modify</text>
<text text-anchor="middle" x="1075.5" y="-88.67" font-family="Helvetica,sans-Serif" font-size="14.00">ultra_type/controller.py</text>
</g>
<!-- 0dcba031&#45;916d&#45;472e&#45;87cf&#45;9337e1b13f56&#45;&gt;c2a9a363&#45;8ad5&#45;4c1c&#45;af36&#45;bbf1da754f63 -->
<g id="edge6" class="edge">
<title>0dcba031&#45;916d&#45;472e&#45;87cf&#45;9337e1b13f56&#45;&gt;c2a9a363&#45;8ad5&#45;4c1c&#45;af36&#45;bbf1da754f63</title>
<path fill="none" stroke="black" d="M880.67,-99.87C900.64,-99.87 920.6,-99.87 940.57,-99.87"/>
<polygon fill="black" stroke="black" points="940.69,-103.37 950.69,-99.87 940.69,-96.37 940.69,-103.37"/>
</g>
<!-- 778b5f59&#45;2ce2&#45;4834&#45;b070&#45;f7b43ce966ec -->
<g id="node9" class="node">
<title>778b5f59&#45;2ce2&#45;4834&#45;b070&#45;f7b43ce966ec</title>
<polygon fill="white" stroke="black" points="927.5,-36 631.5,-36 631.5,0 927.5,0 927.5,-36"/>
<text text-anchor="middle" x="779.5" y="-14.3" font-family="Helvetica,sans-Serif" font-size="14.00">▶ Ran sandbox for `ultra_type/view.py`.</text>
</g>
<!-- 0dcba031&#45;916d&#45;472e&#45;87cf&#45;9337e1b13f56&#45;&gt;778b5f59&#45;2ce2&#45;4834&#45;b070&#45;f7b43ce966ec -->
<g id="edge5" class="edge">
<title>0dcba031&#45;916d&#45;472e&#45;87cf&#45;9337e1b13f56&#45;&gt;778b5f59&#45;2ce2&#45;4834&#45;b070&#45;f7b43ce966ec</title>
<path fill="none" stroke="black" stroke-dasharray="5,2" d="M779.5,-72.72C779.5,-64.27 779.5,-54.89 779.5,-46.36"/>
<polygon fill="black" stroke="black" points="783,-46.15 779.5,-36.15 776,-46.15 783,-46.15"/>
</g>
<!-- c2a9a363&#45;8ad5&#45;4c1c&#45;af36&#45;bbf1da754f63&#45;&gt;end -->
<g id="edge9" class="edge">
<title>c2a9a363&#45;8ad5&#45;4c1c&#45;af36&#45;bbf1da754f63&#45;&gt;end</title>
<path fill="none" stroke="black" d="M1200.41,-99.87C1219.53,-99.87 1236.31,-99.87 1246.65,-99.87"/>
<polygon fill="black" stroke="black" points="1246.85,-103.37 1256.85,-99.87 1246.85,-96.37 1246.85,-103.37"/>
<text text-anchor="middle" x="1228.48" y="-106.67" font-family="Helvetica,sans-Serif" font-size="14.00">Finish</text>
</g>
<!-- a1297533&#45;a9de&#45;4794&#45;881f&#45;5834a7dd539d -->
<g id="node10" class="node">
<title>a1297533&#45;a9de&#45;4794&#45;881f&#45;5834a7dd539d</title>
<polygon fill="white" stroke="black" points="1275,-36 946,-36 946,0 1275,0 1275,-36"/>
<text text-anchor="middle" x="1110.5" y="-14.3" font-family="Helvetica,sans-Serif" font-size="14.00">▶ Ran sandbox for `ultra_type/controller.py`.</text>
</g>
<!-- c2a9a363&#45;8ad5&#45;4c1c&#45;af36&#45;bbf1da754f63&#45;&gt;a1297533&#45;a9de&#45;4794&#45;881f&#45;5834a7dd539d -->
<g id="edge7" class="edge">
<title>c2a9a363&#45;8ad5&#45;4c1c&#45;af36&#45;bbf1da754f63&#45;&gt;a1297533&#45;a9de&#45;4794&#45;881f&#45;5834a7dd539d</title>
<path fill="none" stroke="black" stroke-dasharray="5,2" d="M1086.96,-72.72C1090.78,-63.99 1095.05,-54.26 1098.88,-45.51"/>
<polygon fill="black" stroke="black" points="1102.18,-46.71 1102.99,-36.15 1095.77,-43.9 1102.18,-46.71"/>
</g>
</g>
</svg>
