<?xml version="1.0" encoding="UTF-8" standalone="no"?>
<!DOCTYPE svg PUBLIC "-//W3C//DTD SVG 1.1//EN"
 "http://www.w3.org/Graphics/SVG/1.1/DTD/svg11.dtd">
<!-- Generated by graphviz version 2.43.0 (0)
 -->
<!-- Title: %3 Pages: 1 -->
<svg width="775pt" height="415pt"
 viewBox="0.00 0.00 774.50 415.48" xmlns="http://www.w3.org/2000/svg" xmlns:xlink="http://www.w3.org/1999/xlink">
<g id="graph0" class="graph" transform="scale(1 1) rotate(0) translate(36 379.48)">
<title>%3</title>
<polygon fill="dimgray" stroke="transparent" points="-36,36 -36,-379.48 738.5,-379.48 738.5,36 -36,36"/>
<text text-anchor="middle" x="351.25" y="-328.28" font-family="Helvetica,sans-Serif" font-size="14.00">Sweep&#39;s Plan &amp; Progress</text>
<!-- start -->
<g id="node1" class="node">
<title>start</title>
</g>
<!-- f5ea5bc9&#45;4085&#45;41b4&#45;a9ef&#45;36f6ebaf64cd -->
<g id="node3" class="node">
<title>f5ea5bc9&#45;4085&#45;41b4&#45;a9ef&#45;36f6ebaf64cd</title>
<ellipse fill="#0ee832" stroke="black" cx="436" cy="-277.61" rx="132.87" ry="26.74"/>
<text text-anchor="middle" x="436" y="-281.41" font-family="Helvetica,sans-Serif" font-size="14.00">✓ Test</text>
<text text-anchor="middle" x="436" y="-266.41" font-family="Helvetica,sans-Serif" font-size="14.00">ultra_type/test_model.py</text>
</g>
<!-- start&#45;&gt;f5ea5bc9&#45;4085&#45;41b4&#45;a9ef&#45;36f6ebaf64cd -->
<g id="edge5" class="edge">
<title>start&#45;&gt;f5ea5bc9&#45;4085&#45;41b4&#45;a9ef&#45;36f6ebaf64cd</title>
<path fill="none" stroke="black" d="M251.53,-277.61C254.63,-277.61 271.03,-277.61 292.87,-277.61"/>
<polygon fill="black" stroke="black" points="292.9,-281.11 302.9,-277.61 292.9,-274.11 292.9,-281.11"/>
<text text-anchor="middle" x="277.28" y="-284.41" font-family="Helvetica,sans-Serif" font-size="14.00">Start</text>
</g>
<!-- end -->
<g id="node2" class="node">
<title>end</title>
</g>
<!-- f5ea5bc9&#45;4085&#45;41b4&#45;a9ef&#45;36f6ebaf64cd&#45;&gt;end -->
<g id="edge6" class="edge">
<title>f5ea5bc9&#45;4085&#45;41b4&#45;a9ef&#45;36f6ebaf64cd&#45;&gt;end</title>
<path fill="none" stroke="black" d="M569.18,-277.61C588.64,-277.61 605.62,-277.61 616.06,-277.61"/>
<polygon fill="black" stroke="black" points="616.34,-281.11 626.34,-277.61 616.34,-274.11 616.34,-281.11"/>
<text text-anchor="middle" x="597.72" y="-284.41" font-family="Helvetica,sans-Serif" font-size="14.00">Finish</text>
</g>
<!-- 4e4af3ca&#45;53d6&#45;4651&#45;b9e3&#45;c8b10128e5b9 -->
<g id="node4" class="node">
<title>4e4af3ca&#45;53d6&#45;4651&#45;b9e3&#45;c8b10128e5b9</title>
<polygon fill="#ee0000" stroke="black" points="343,-213.74 1,-213.74 1,-177.74 343,-177.74 343,-213.74"/>
<text text-anchor="middle" x="172" y="-192.04" font-family="Helvetica,sans-Serif" font-size="14.00">✗ Ran sandbox for `ultra_type/test_model.py`.</text>
</g>
<!-- f5ea5bc9&#45;4085&#45;41b4&#45;a9ef&#45;36f6ebaf64cd&#45;&gt;4e4af3ca&#45;53d6&#45;4651&#45;b9e3&#45;c8b10128e5b9 -->
<g id="edge1" class="edge">
<title>f5ea5bc9&#45;4085&#45;41b4&#45;a9ef&#45;36f6ebaf64cd&#45;&gt;4e4af3ca&#45;53d6&#45;4651&#45;b9e3&#45;c8b10128e5b9</title>
<path fill="none" stroke="black" stroke-dasharray="5,2" d="M364.21,-254.89C324.96,-243.02 276.68,-228.41 238.33,-216.81"/>
<polygon fill="black" stroke="black" points="238.88,-213.32 228.3,-213.77 236.85,-220.02 238.88,-213.32"/>
</g>
<!-- 11fab21a&#45;02e4&#45;4af4&#45;b694&#45;3e9c50b0cf18 -->
<g id="node5" class="node">
<title>11fab21a&#45;02e4&#45;4af4&#45;b694&#45;3e9c50b0cf18</title>
<polygon fill="white" stroke="black" points="702.5,-213.74 361.5,-213.74 361.5,-177.74 702.5,-177.74 702.5,-213.74"/>
<text text-anchor="middle" x="532" y="-192.04" font-family="Helvetica,sans-Serif" font-size="14.00">▶ Ran sandbox for `ultra_type/test_model.py`.</text>
</g>
<!-- f5ea5bc9&#45;4085&#45;41b4&#45;a9ef&#45;36f6ebaf64cd&#45;&gt;11fab21a&#45;02e4&#45;4af4&#45;b694&#45;3e9c50b0cf18 -->
<g id="edge4" class="edge">
<title>f5ea5bc9&#45;4085&#45;41b4&#45;a9ef&#45;36f6ebaf64cd&#45;&gt;11fab21a&#45;02e4&#45;4af4&#45;b694&#45;3e9c50b0cf18</title>
<path fill="none" stroke="black" stroke-dasharray="5,2" d="M466.38,-251.34C478.34,-241.39 491.99,-230.02 503.74,-220.25"/>
<polygon fill="black" stroke="black" points="506.07,-222.86 511.52,-213.78 501.6,-217.48 506.07,-222.86"/>
</g>
<!-- a819d13f&#45;387a&#45;49f8&#45;9a7c&#45;d1b2713e5f79 -->
<g id="node6" class="node">
<title>a819d13f&#45;387a&#45;49f8&#45;9a7c&#45;d1b2713e5f79</title>
<ellipse fill="#0ee832" stroke="black" cx="172" cy="-99.87" rx="132.87" ry="26.74"/>
<text text-anchor="middle" x="172" y="-103.67" font-family="Helvetica,sans-Serif" font-size="14.00">✓ Modify</text>
<text text-anchor="middle" x="172" y="-88.67" font-family="Helvetica,sans-Serif" font-size="14.00">ultra_type/test_model.py</text>
</g>
<!-- 4e4af3ca&#45;53d6&#45;4651&#45;b9e3&#45;c8b10128e5b9&#45;&gt;a819d13f&#45;387a&#45;49f8&#45;9a7c&#45;d1b2713e5f79 -->
<g id="edge2" class="edge">
<title>4e4af3ca&#45;53d6&#45;4651&#45;b9e3&#45;c8b10128e5b9&#45;&gt;a819d13f&#45;387a&#45;49f8&#45;9a7c&#45;d1b2713e5f79</title>
<path fill="none" stroke="black" d="M172,-177.52C172,-166.22 172,-151.01 172,-137.12"/>
<polygon fill="black" stroke="black" points="175.5,-136.84 172,-126.84 168.5,-136.84 175.5,-136.84"/>
<text text-anchor="middle" x="269.5" y="-148.54" font-family="Helvetica,sans-Serif" font-size="14.00">Additional changes required</text>
</g>
<!-- 9e294d01&#45;47f0&#45;4adf&#45;a9f2&#45;fac5b69848c1 -->
<g id="node7" class="node">
<title>9e294d01&#45;47f0&#45;4adf&#45;a9f2&#45;fac5b69848c1</title>
<polygon fill="yellow" stroke="black" points="344,-36 0,-36 0,0 344,0 344,-36"/>
<text text-anchor="middle" x="172" y="-14.3" font-family="Helvetica,sans-Serif" font-size="14.00">⋯ Ran sandbox for `ultra_type/test_model.py`.</text>
</g>
<!-- a819d13f&#45;387a&#45;49f8&#45;9a7c&#45;d1b2713e5f79&#45;&gt;9e294d01&#45;47f0&#45;4adf&#45;a9f2&#45;fac5b69848c1 -->
<g id="edge3" class="edge">
<title>a819d13f&#45;387a&#45;49f8&#45;9a7c&#45;d1b2713e5f79&#45;&gt;9e294d01&#45;47f0&#45;4adf&#45;a9f2&#45;fac5b69848c1</title>
<path fill="none" stroke="black" stroke-dasharray="5,2" d="M172,-72.72C172,-64.27 172,-54.89 172,-46.36"/>
<polygon fill="black" stroke="black" points="175.5,-46.15 172,-36.15 168.5,-46.15 175.5,-46.15"/>
</g>
</g>
</svg>
