<?xml version="1.0" encoding="UTF-8" standalone="no"?>
<!DOCTYPE svg PUBLIC "-//W3C//DTD SVG 1.1//EN"
 "http://www.w3.org/Graphics/SVG/1.1/DTD/svg11.dtd">
<!-- Generated by graphviz version 2.43.0 (0)
 -->
<!-- Title: %3 Pages: 1 -->
<svg width="796pt" height="238pt"
 viewBox="0.00 0.00 795.50 237.74" xmlns="http://www.w3.org/2000/svg" xmlns:xlink="http://www.w3.org/1999/xlink">
<g id="graph0" class="graph" transform="scale(1 1) rotate(0) translate(36 201.74)">
<title>%3</title>
<polygon fill="dimgray" stroke="transparent" points="-36,36 -36,-201.74 759.5,-201.74 759.5,36 -36,36"/>
<text text-anchor="middle" x="361.75" y="-150.54" font-family="Helvetica,sans-Serif" font-size="14.00">Sweep&#39;s Plan &amp; Progress</text>
<!-- start -->
<g id="node1" class="node">
<title>start</title>
</g>
<!-- 6b3e9567&#45;f6d9&#45;4458&#45;9158&#45;af0c371afa6d -->
<g id="node3" class="node">
<title>6b3e9567&#45;f6d9&#45;4458&#45;9158&#45;af0c371afa6d</title>
<ellipse fill="#0ee832" stroke="black" cx="223" cy="-99.87" rx="101.23" ry="26.74"/>
<text text-anchor="middle" x="223" y="-103.67" font-family="Helvetica,sans-Serif" font-size="14.00">✓ Modify</text>
<text text-anchor="middle" x="223" y="-88.67" font-family="Helvetica,sans-Serif" font-size="14.00">ultra_type/view.py</text>
</g>
<!-- start&#45;&gt;6b3e9567&#45;f6d9&#45;4458&#45;9158&#45;af0c371afa6d -->
<g id="edge4" class="edge">
<title>start&#45;&gt;6b3e9567&#45;f6d9&#45;4458&#45;9158&#45;af0c371afa6d</title>
<path fill="none" stroke="black" d="M70.68,-99.87C74.16,-99.87 90.59,-99.87 111.46,-99.87"/>
<polygon fill="black" stroke="black" points="111.67,-103.37 121.67,-99.87 111.67,-96.37 111.67,-103.37"/>
<text text-anchor="middle" x="96.19" y="-106.67" font-family="Helvetica,sans-Serif" font-size="14.00">Start</text>
</g>
<!-- end -->
<g id="node2" class="node">
<title>end</title>
</g>
<!-- c1319c61&#45;3c70&#45;4ed6&#45;bfd6&#45;13710a648c7a -->
<g id="node4" class="node">
<title>c1319c61&#45;3c70&#45;4ed6&#45;bfd6&#45;13710a648c7a</title>
<ellipse fill="#0ee832" stroke="black" cx="512" cy="-99.87" rx="124.4" ry="26.74"/>
<text text-anchor="middle" x="512" y="-103.67" font-family="Helvetica,sans-Serif" font-size="14.00">✓ Modify</text>
<text text-anchor="middle" x="512" y="-88.67" font-family="Helvetica,sans-Serif" font-size="14.00">ultra_type/controller.py</text>
</g>
<!-- 6b3e9567&#45;f6d9&#45;4458&#45;9158&#45;af0c371afa6d&#45;&gt;c1319c61&#45;3c70&#45;4ed6&#45;bfd6&#45;13710a648c7a -->
<g id="edge2" class="edge">
<title>6b3e9567&#45;f6d9&#45;4458&#45;9158&#45;af0c371afa6d&#45;&gt;c1319c61&#45;3c70&#45;4ed6&#45;bfd6&#45;13710a648c7a</title>
<path fill="none" stroke="black" d="M324.32,-99.87C341.89,-99.87 359.46,-99.87 377.02,-99.87"/>
<polygon fill="black" stroke="black" points="377.37,-103.37 387.37,-99.87 377.37,-96.37 377.37,-103.37"/>
</g>
<!-- ce764251&#45;49e1&#45;4784&#45;832e&#45;d81e4dc1e2af -->
<g id="node5" class="node">
<title>ce764251&#45;49e1&#45;4784&#45;832e&#45;d81e4dc1e2af</title>
<polygon fill="#0ee832" stroke="black" points="336,-36 0,-36 0,0 336,0 336,-36"/>
<text text-anchor="middle" x="168" y="-14.3" font-family="Helvetica,sans-Serif" font-size="14.00">✓ Run GitHub Actions for `ultra_type/view.py`</text>
</g>
<!-- 6b3e9567&#45;f6d9&#45;4458&#45;9158&#45;af0c371afa6d&#45;&gt;ce764251&#45;49e1&#45;4784&#45;832e&#45;d81e4dc1e2af -->
<g id="edge1" class="edge">
<title>6b3e9567&#45;f6d9&#45;4458&#45;9158&#45;af0c371afa6d&#45;&gt;ce764251&#45;49e1&#45;4784&#45;832e&#45;d81e4dc1e2af</title>
<path fill="none" stroke="black" stroke-dasharray="5,2" d="M205.29,-73.16C199.01,-64.04 191.95,-53.77 185.67,-44.65"/>
<polygon fill="black" stroke="black" points="188.49,-42.59 179.94,-36.34 182.73,-46.56 188.49,-42.59"/>
</g>
<!-- c1319c61&#45;3c70&#45;4ed6&#45;bfd6&#45;13710a648c7a&#45;&gt;end -->
<g id="edge5" class="edge">
<title>c1319c61&#45;3c70&#45;4ed6&#45;bfd6&#45;13710a648c7a&#45;&gt;end</title>
<path fill="none" stroke="black" d="M636.91,-99.87C656.03,-99.87 672.81,-99.87 683.15,-99.87"/>
<polygon fill="black" stroke="black" points="683.35,-103.37 693.35,-99.87 683.35,-96.37 683.35,-103.37"/>
<text text-anchor="middle" x="664.98" y="-106.67" font-family="Helvetica,sans-Serif" font-size="14.00">Finish</text>
</g>
<!-- 75f45f1d&#45;1489&#45;4b5f&#45;a8cc&#45;a503e827257c -->
<g id="node6" class="node">
<title>75f45f1d&#45;1489&#45;4b5f&#45;a8cc&#45;a503e827257c</title>
<polygon fill="#0ee832" stroke="black" points="723.5,-36 354.5,-36 354.5,0 723.5,0 723.5,-36"/>
<text text-anchor="middle" x="539" y="-14.3" font-family="Helvetica,sans-Serif" font-size="14.00">✓ Run GitHub Actions for `ultra_type/controller.py`</text>
</g>
<!-- c1319c61&#45;3c70&#45;4ed6&#45;bfd6&#45;13710a648c7a&#45;&gt;75f45f1d&#45;1489&#45;4b5f&#45;a8cc&#45;a503e827257c -->
<g id="edge3" class="edge">
<title>c1319c61&#45;3c70&#45;4ed6&#45;bfd6&#45;13710a648c7a&#45;&gt;75f45f1d&#45;1489&#45;4b5f&#45;a8cc&#45;a503e827257c</title>
<path fill="none" stroke="black" stroke-dasharray="5,2" d="M520.84,-72.72C523.76,-64.08 527.01,-54.47 529.94,-45.79"/>
<polygon fill="black" stroke="black" points="533.32,-46.74 533.2,-36.15 526.69,-44.5 533.32,-46.74"/>
</g>
</g>
</svg>
