<?xml version="1.0" encoding="UTF-8" standalone="no"?>
<!DOCTYPE svg PUBLIC "-//W3C//DTD SVG 1.1//EN"
 "http://www.w3.org/Graphics/SVG/1.1/DTD/svg11.dtd">
<!-- Generated by graphviz version 2.43.0 (0)
 -->
<!-- Title: %3 Pages: 1 -->
<svg width="669pt" height="165pt"
 viewBox="0.00 0.00 669.00 164.74" xmlns="http://www.w3.org/2000/svg" xmlns:xlink="http://www.w3.org/1999/xlink">
<g id="graph0" class="graph" transform="scale(1 1) rotate(0) translate(36 128.74)">
<title>%3</title>
<polygon fill="dimgray" stroke="transparent" points="-36,36 -36,-128.74 633,-128.74 633,36 -36,36"/>
<text text-anchor="middle" x="298.5" y="-77.54" font-family="Helvetica,sans-Serif" font-size="14.00">Sweep&#39;s Plan &amp; Progress</text>
<!-- start -->
<g id="node1" class="node">
<title>start</title>
</g>
<!-- 7c8c3b54&#45;7ea8&#45;4afa&#45;9ecd&#45;680ce720d6e3 -->
<g id="node3" class="node">
<title>7c8c3b54&#45;7ea8&#45;4afa&#45;9ecd&#45;680ce720d6e3</title>
<ellipse fill="#0ee832" stroke="black" cx="153.5" cy="-26.87" rx="101.23" ry="26.74"/>
<text text-anchor="middle" x="153.5" y="-30.67" font-family="Helvetica,sans-Serif" font-size="14.00">✓ Modify</text>
<text text-anchor="middle" x="153.5" y="-15.67" font-family="Helvetica,sans-Serif" font-size="14.00">ultra_type/view.py</text>
</g>
<!-- start&#45;&gt;7c8c3b54&#45;7ea8&#45;4afa&#45;9ecd&#45;680ce720d6e3 -->
<g id="edge2" class="edge">
<title>start&#45;&gt;7c8c3b54&#45;7ea8&#45;4afa&#45;9ecd&#45;680ce720d6e3</title>
<path fill="none" stroke="black" d="M1.18,-26.87C4.66,-26.87 21.09,-26.87 41.96,-26.87"/>
<polygon fill="black" stroke="black" points="42.17,-30.37 52.17,-26.87 42.17,-23.37 42.17,-30.37"/>
<text text-anchor="middle" x="26.69" y="-33.67" font-family="Helvetica,sans-Serif" font-size="14.00">Start</text>
</g>
<!-- end -->
<g id="node2" class="node">
<title>end</title>
</g>
<!-- f84e40b3&#45;a545&#45;40a9&#45;826f&#45;eb5bd606dde0 -->
<g id="node4" class="node">
<title>f84e40b3&#45;a545&#45;40a9&#45;826f&#45;eb5bd606dde0</title>
<ellipse fill="yellow" stroke="black" cx="414.5" cy="-26.87" rx="124.4" ry="26.74"/>
<text text-anchor="middle" x="414.5" y="-30.67" font-family="Helvetica,sans-Serif" font-size="14.00">⋯ Modify</text>
<text text-anchor="middle" x="414.5" y="-15.67" font-family="Helvetica,sans-Serif" font-size="14.00">ultra_type/controller.py</text>
</g>
<!-- 7c8c3b54&#45;7ea8&#45;4afa&#45;9ecd&#45;680ce720d6e3&#45;&gt;f84e40b3&#45;a545&#45;40a9&#45;826f&#45;eb5bd606dde0 -->
<g id="edge1" class="edge">
<title>7c8c3b54&#45;7ea8&#45;4afa&#45;9ecd&#45;680ce720d6e3&#45;&gt;f84e40b3&#45;a545&#45;40a9&#45;826f&#45;eb5bd606dde0</title>
<path fill="none" stroke="black" d="M254.69,-26.87C263.05,-26.87 271.41,-26.87 279.76,-26.87"/>
<polygon fill="black" stroke="black" points="279.96,-30.37 289.96,-26.87 279.96,-23.37 279.96,-30.37"/>
</g>
<!-- f84e40b3&#45;a545&#45;40a9&#45;826f&#45;eb5bd606dde0&#45;&gt;end -->
<g id="edge3" class="edge">
<title>f84e40b3&#45;a545&#45;40a9&#45;826f&#45;eb5bd606dde0&#45;&gt;end</title>
<path fill="none" stroke="black" d="M539.41,-26.87C558.53,-26.87 575.31,-26.87 585.65,-26.87"/>
<polygon fill="black" stroke="black" points="585.85,-30.37 595.85,-26.87 585.85,-23.37 585.85,-30.37"/>
<text text-anchor="middle" x="567.48" y="-33.67" font-family="Helvetica,sans-Serif" font-size="14.00">Finish</text>
</g>
</g>
</svg>
