<?xml version="1.0" encoding="UTF-8" standalone="no"?>
<!DOCTYPE svg PUBLIC "-//W3C//DTD SVG 1.1//EN"
 "http://www.w3.org/Graphics/SVG/1.1/DTD/svg11.dtd">
<!-- Generated by graphviz version 2.43.0 (0)
 -->
<!-- Title: %3 Pages: 1 -->
<svg width="427pt" height="238pt"
 viewBox="0.00 0.00 427.00 237.74" xmlns="http://www.w3.org/2000/svg" xmlns:xlink="http://www.w3.org/1999/xlink">
<g id="graph0" class="graph" transform="scale(1 1) rotate(0) translate(36 201.74)">
<title>%3</title>
<polygon fill="dimgray" stroke="transparent" points="-36,36 -36,-201.74 391,-201.74 391,36 -36,36"/>
<text text-anchor="middle" x="177.5" y="-150.54" font-family="Helvetica,sans-Serif" font-size="14.00">Sweep&#39;s Plan &amp; Progress</text>
<!-- start -->
<g id="node1" class="node">
<title>start</title>
</g>
<!-- 859793d4&#45;e878&#45;45ff&#45;b0b6&#45;91216b8b9ea9 -->
<g id="node3" class="node">
<title>859793d4&#45;e878&#45;45ff&#45;b0b6&#45;91216b8b9ea9</title>
<ellipse fill="yellow" stroke="black" cx="174.5" cy="-99.87" rx="122.16" ry="26.74"/>
<text text-anchor="middle" x="174.5" y="-103.67" font-family="Helvetica,sans-Serif" font-size="14.00">⋯ Test</text>
<text text-anchor="middle" x="174.5" y="-88.67" font-family="Helvetica,sans-Serif" font-size="14.00">tests/test_controller.py</text>
</g>
<!-- start&#45;&gt;859793d4&#45;e878&#45;45ff&#45;b0b6&#45;91216b8b9ea9 -->
<g id="edge2" class="edge">
<title>start&#45;&gt;859793d4&#45;e878&#45;45ff&#45;b0b6&#45;91216b8b9ea9</title>
<path fill="none" stroke="black" d="M1.28,-99.87C4.89,-99.87 20.83,-99.87 41.67,-99.87"/>
<polygon fill="black" stroke="black" points="41.92,-103.37 51.92,-99.87 41.92,-96.37 41.92,-103.37"/>
<text text-anchor="middle" x="26.59" y="-106.67" font-family="Helvetica,sans-Serif" font-size="14.00">Start</text>
</g>
<!-- end -->
<g id="node2" class="node">
<title>end</title>
</g>
<!-- 859793d4&#45;e878&#45;45ff&#45;b0b6&#45;91216b8b9ea9&#45;&gt;end -->
<g id="edge3" class="edge">
<title>859793d4&#45;e878&#45;45ff&#45;b0b6&#45;91216b8b9ea9&#45;&gt;end</title>
<path fill="none" stroke="black" d="M297.05,-99.87C316.23,-99.87 333.13,-99.87 343.55,-99.87"/>
<polygon fill="black" stroke="black" points="343.84,-103.37 353.84,-99.87 343.84,-96.37 343.84,-103.37"/>
<text text-anchor="middle" x="325.41" y="-106.67" font-family="Helvetica,sans-Serif" font-size="14.00">Finish</text>
</g>
<!-- 52eb0d51&#45;d541&#45;40e0&#45;9d39&#45;c015efc48836 -->
<g id="node4" class="node">
<title>52eb0d51&#45;d541&#45;40e0&#45;9d39&#45;c015efc48836</title>
<polygon fill="white" stroke="black" points="337.5,-36 11.5,-36 11.5,0 337.5,0 337.5,-36"/>
<text text-anchor="middle" x="174.5" y="-14.3" font-family="Helvetica,sans-Serif" font-size="14.00">▶ Ran sandbox for `tests/test_controller.py`.</text>
</g>
<!-- 859793d4&#45;e878&#45;45ff&#45;b0b6&#45;91216b8b9ea9&#45;&gt;52eb0d51&#45;d541&#45;40e0&#45;9d39&#45;c015efc48836 -->
<g id="edge1" class="edge">
<title>859793d4&#45;e878&#45;45ff&#45;b0b6&#45;91216b8b9ea9&#45;&gt;52eb0d51&#45;d541&#45;40e0&#45;9d39&#45;c015efc48836</title>
<path fill="none" stroke="black" stroke-dasharray="5,2" d="M174.5,-72.72C174.5,-64.27 174.5,-54.89 174.5,-46.36"/>
<polygon fill="black" stroke="black" points="178,-46.15 174.5,-36.15 171,-46.15 178,-46.15"/>
</g>
</g>
</svg>
