<?xml version="1.0" encoding="UTF-8" standalone="no"?>
<!DOCTYPE svg PUBLIC "-//W3C//DTD SVG 1.1//EN"
 "http://www.w3.org/Graphics/SVG/1.1/DTD/svg11.dtd">
<!-- Generated by graphviz version 2.43.0 (0)
 -->
<!-- Title: %3 Pages: 1 -->
<svg width="1088pt" height="771pt"
 viewBox="0.00 0.00 1088.00 770.96" xmlns="http://www.w3.org/2000/svg" xmlns:xlink="http://www.w3.org/1999/xlink">
<g id="graph0" class="graph" transform="scale(1 1) rotate(0) translate(36 734.96)">
<title>%3</title>
<polygon fill="dimgray" stroke="transparent" points="-36,36 -36,-734.96 1052,-734.96 1052,36 -36,36"/>
<text text-anchor="middle" x="508" y="-683.76" font-family="Helvetica,sans-Serif" font-size="14.00">Sweep&#39;s Plan &amp; Progress</text>
<!-- start -->
<g id="node1" class="node">
<title>start</title>
</g>
<!-- 4d1d7521&#45;f501&#45;42c6&#45;bd33&#45;c3a0dbbbba96 -->
<g id="node3" class="node">
<title>4d1d7521&#45;f501&#45;42c6&#45;bd33&#45;c3a0dbbbba96</title>
<ellipse fill="#0ee832" stroke="black" cx="760" cy="-633.09" rx="123.07" ry="26.74"/>
<text text-anchor="middle" x="760" y="-636.89" font-family="Helvetica,sans-Serif" font-size="14.00">✓ Test</text>
<text text-anchor="middle" x="760" y="-621.89" font-family="Helvetica,sans-Serif" font-size="14.00">tests/test_language.py</text>
</g>
<!-- start&#45;&gt;4d1d7521&#45;f501&#45;42c6&#45;bd33&#45;c3a0dbbbba96 -->
<g id="edge11" class="edge">
<title>start&#45;&gt;4d1d7521&#45;f501&#45;42c6&#45;bd33&#45;c3a0dbbbba96</title>
<path fill="none" stroke="black" d="M585.5,-633.09C588.53,-633.09 604.92,-633.09 626.55,-633.09"/>
<polygon fill="black" stroke="black" points="626.83,-636.59 636.83,-633.09 626.82,-629.59 626.83,-636.59"/>
<text text-anchor="middle" x="611.23" y="-639.89" font-family="Helvetica,sans-Serif" font-size="14.00">Start</text>
</g>
<!-- end -->
<g id="node2" class="node">
<title>end</title>
</g>
<!-- 4d1d7521&#45;f501&#45;42c6&#45;bd33&#45;c3a0dbbbba96&#45;&gt;end -->
<g id="edge12" class="edge">
<title>4d1d7521&#45;f501&#45;42c6&#45;bd33&#45;c3a0dbbbba96&#45;&gt;end</title>
<path fill="none" stroke="black" d="M883.23,-633.09C902.52,-633.09 919.51,-633.09 929.99,-633.09"/>
<polygon fill="black" stroke="black" points="930.34,-636.59 940.34,-633.09 930.34,-629.59 930.34,-636.59"/>
<text text-anchor="middle" x="911.77" y="-639.89" font-family="Helvetica,sans-Serif" font-size="14.00">Finish</text>
</g>
<!-- 5a5c560f&#45;dd1d&#45;4b40&#45;92c9&#45;e62c07f9f4f4 -->
<g id="node4" class="node">
<title>5a5c560f&#45;dd1d&#45;4b40&#45;92c9&#45;e62c07f9f4f4</title>
<polygon fill="#ee0000" stroke="black" points="672,-569.22 344,-569.22 344,-533.22 672,-533.22 672,-569.22"/>
<text text-anchor="middle" x="508" y="-547.52" font-family="Helvetica,sans-Serif" font-size="14.00">✗ Ran sandbox for `tests/test_language.py`.</text>
</g>
<!-- 4d1d7521&#45;f501&#45;42c6&#45;bd33&#45;c3a0dbbbba96&#45;&gt;5a5c560f&#45;dd1d&#45;4b40&#45;92c9&#45;e62c07f9f4f4 -->
<g id="edge1" class="edge">
<title>4d1d7521&#45;f501&#45;42c6&#45;bd33&#45;c3a0dbbbba96&#45;&gt;5a5c560f&#45;dd1d&#45;4b40&#45;92c9&#45;e62c07f9f4f4</title>
<path fill="none" stroke="black" stroke-dasharray="5,2" d="M692.14,-610.58C654.67,-598.71 608.41,-584.05 571.64,-572.39"/>
<polygon fill="black" stroke="black" points="572.61,-569.03 562.02,-569.34 570.49,-575.7 572.61,-569.03"/>
</g>
<!-- 1fe8182a&#45;1d46&#45;40d9&#45;94f5&#45;fba7098bb560 -->
<g id="node5" class="node">
<title>1fe8182a&#45;1d46&#45;40d9&#45;94f5&#45;fba7098bb560</title>
<polygon fill="white" stroke="black" points="1016,-569.22 690,-569.22 690,-533.22 1016,-533.22 1016,-569.22"/>
<text text-anchor="middle" x="853" y="-547.52" font-family="Helvetica,sans-Serif" font-size="14.00">▶ Ran sandbox for `tests/test_language.py`.</text>
</g>
<!-- 4d1d7521&#45;f501&#45;42c6&#45;bd33&#45;c3a0dbbbba96&#45;&gt;1fe8182a&#45;1d46&#45;40d9&#45;94f5&#45;fba7098bb560 -->
<g id="edge10" class="edge">
<title>4d1d7521&#45;f501&#45;42c6&#45;bd33&#45;c3a0dbbbba96&#45;&gt;1fe8182a&#45;1d46&#45;40d9&#45;94f5&#45;fba7098bb560</title>
<path fill="none" stroke="black" stroke-dasharray="5,2" d="M789.43,-606.82C800.9,-596.96 813.99,-585.72 825.29,-576.01"/>
<polygon fill="black" stroke="black" points="827.86,-578.43 833.16,-569.26 823.3,-573.12 827.86,-578.43"/>
</g>
<!-- 0667abdc&#45;86c4&#45;4844&#45;b023&#45;3305b20c6392 -->
<g id="node6" class="node">
<title>0667abdc&#45;86c4&#45;4844&#45;b023&#45;3305b20c6392</title>
<ellipse fill="#0ee832" stroke="black" cx="508" cy="-455.35" rx="123.07" ry="26.74"/>
<text text-anchor="middle" x="508" y="-459.15" font-family="Helvetica,sans-Serif" font-size="14.00">✓ Modify</text>
<text text-anchor="middle" x="508" y="-444.15" font-family="Helvetica,sans-Serif" font-size="14.00">tests/test_language.py</text>
</g>
<!-- 5a5c560f&#45;dd1d&#45;4b40&#45;92c9&#45;e62c07f9f4f4&#45;&gt;0667abdc&#45;86c4&#45;4844&#45;b023&#45;3305b20c6392 -->
<g id="edge2" class="edge">
<title>5a5c560f&#45;dd1d&#45;4b40&#45;92c9&#45;e62c07f9f4f4&#45;&gt;0667abdc&#45;86c4&#45;4844&#45;b023&#45;3305b20c6392</title>
<path fill="none" stroke="black" d="M508,-533C508,-521.7 508,-506.49 508,-492.6"/>
<polygon fill="black" stroke="black" points="511.5,-492.32 508,-482.32 504.5,-492.32 511.5,-492.32"/>
<text text-anchor="middle" x="605.5" y="-504.02" font-family="Helvetica,sans-Serif" font-size="14.00">Additional changes required</text>
</g>
<!-- b0ec629c&#45;6ebe&#45;4ccf&#45;9984&#45;5b96cd3688d9 -->
<g id="node7" class="node">
<title>b0ec629c&#45;6ebe&#45;4ccf&#45;9984&#45;5b96cd3688d9</title>
<polygon fill="#ee0000" stroke="black" points="500,-391.48 172,-391.48 172,-355.48 500,-355.48 500,-391.48"/>
<text text-anchor="middle" x="336" y="-369.78" font-family="Helvetica,sans-Serif" font-size="14.00">✗ Ran sandbox for `tests/test_language.py`.</text>
</g>
<!-- 0667abdc&#45;86c4&#45;4844&#45;b023&#45;3305b20c6392&#45;&gt;b0ec629c&#45;6ebe&#45;4ccf&#45;9984&#45;5b96cd3688d9 -->
<g id="edge3" class="edge">
<title>0667abdc&#45;86c4&#45;4844&#45;b023&#45;3305b20c6392&#45;&gt;b0ec629c&#45;6ebe&#45;4ccf&#45;9984&#45;5b96cd3688d9</title>
<path fill="none" stroke="black" stroke-dasharray="5,2" d="M457.32,-430.82C433.46,-419.74 405.21,-406.62 381.97,-395.83"/>
<polygon fill="black" stroke="black" points="383.22,-392.55 372.67,-391.51 380.27,-398.9 383.22,-392.55"/>
</g>
<!-- 4e25966d&#45;90ce&#45;411f&#45;9519&#45;710b8d29ff93 -->
<g id="node8" class="node">
<title>4e25966d&#45;90ce&#45;411f&#45;9519&#45;710b8d29ff93</title>
<polygon fill="white" stroke="black" points="844,-391.48 518,-391.48 518,-355.48 844,-355.48 844,-391.48"/>
<text text-anchor="middle" x="681" y="-369.78" font-family="Helvetica,sans-Serif" font-size="14.00">▶ Ran sandbox for `tests/test_language.py`.</text>
</g>
<!-- 0667abdc&#45;86c4&#45;4844&#45;b023&#45;3305b20c6392&#45;&gt;4e25966d&#45;90ce&#45;411f&#45;9519&#45;710b8d29ff93 -->
<g id="edge9" class="edge">
<title>0667abdc&#45;86c4&#45;4844&#45;b023&#45;3305b20c6392&#45;&gt;4e25966d&#45;90ce&#45;411f&#45;9519&#45;710b8d29ff93</title>
<path fill="none" stroke="black" stroke-dasharray="5,2" d="M558.97,-430.82C582.97,-419.74 611.39,-406.62 634.76,-395.83"/>
<polygon fill="black" stroke="black" points="636.5,-398.88 644.11,-391.51 633.57,-392.52 636.5,-398.88"/>
</g>
<!-- 6f913ec6&#45;6f7a&#45;411a&#45;92a0&#45;0fcaeb1cabb6 -->
<g id="node9" class="node">
<title>6f913ec6&#45;6f7a&#45;411a&#45;92a0&#45;0fcaeb1cabb6</title>
<ellipse fill="#0ee832" stroke="black" cx="336" cy="-277.61" rx="123.07" ry="26.74"/>
<text text-anchor="middle" x="336" y="-281.41" font-family="Helvetica,sans-Serif" font-size="14.00">✓ Modify</text>
<text text-anchor="middle" x="336" y="-266.41" font-family="Helvetica,sans-Serif" font-size="14.00">tests/test_language.py</text>
</g>
<!-- b0ec629c&#45;6ebe&#45;4ccf&#45;9984&#45;5b96cd3688d9&#45;&gt;6f913ec6&#45;6f7a&#45;411a&#45;92a0&#45;0fcaeb1cabb6 -->
<g id="edge4" class="edge">
<title>b0ec629c&#45;6ebe&#45;4ccf&#45;9984&#45;5b96cd3688d9&#45;&gt;6f913ec6&#45;6f7a&#45;411a&#45;92a0&#45;0fcaeb1cabb6</title>
<path fill="none" stroke="black" d="M336,-355.26C336,-343.96 336,-328.75 336,-314.86"/>
<polygon fill="black" stroke="black" points="339.5,-314.58 336,-304.58 332.5,-314.58 339.5,-314.58"/>
<text text-anchor="middle" x="433.5" y="-326.28" font-family="Helvetica,sans-Serif" font-size="14.00">Additional changes required</text>
</g>
<!-- 52eb852d&#45;46ce&#45;42df&#45;a449&#45;3fb71f5bfef7 -->
<g id="node10" class="node">
<title>52eb852d&#45;46ce&#45;42df&#45;a449&#45;3fb71f5bfef7</title>
<polygon fill="#ee0000" stroke="black" points="328,-213.74 0,-213.74 0,-177.74 328,-177.74 328,-213.74"/>
<text text-anchor="middle" x="164" y="-192.04" font-family="Helvetica,sans-Serif" font-size="14.00">✗ Ran sandbox for `tests/test_language.py`.</text>
</g>
<!-- 6f913ec6&#45;6f7a&#45;411a&#45;92a0&#45;0fcaeb1cabb6&#45;&gt;52eb852d&#45;46ce&#45;42df&#45;a449&#45;3fb71f5bfef7 -->
<g id="edge5" class="edge">
<title>6f913ec6&#45;6f7a&#45;411a&#45;92a0&#45;0fcaeb1cabb6&#45;&gt;52eb852d&#45;46ce&#45;42df&#45;a449&#45;3fb71f5bfef7</title>
<path fill="none" stroke="black" stroke-dasharray="5,2" d="M285.32,-253.08C261.46,-242 233.21,-228.88 209.97,-218.09"/>
<polygon fill="black" stroke="black" points="211.22,-214.81 200.67,-213.77 208.27,-221.16 211.22,-214.81"/>
</g>
<!-- 36047819&#45;a23f&#45;4e3f&#45;936a&#45;821efba8ca96 -->
<g id="node11" class="node">
<title>36047819&#45;a23f&#45;4e3f&#45;936a&#45;821efba8ca96</title>
<polygon fill="white" stroke="black" points="672,-213.74 346,-213.74 346,-177.74 672,-177.74 672,-213.74"/>
<text text-anchor="middle" x="509" y="-192.04" font-family="Helvetica,sans-Serif" font-size="14.00">▶ Ran sandbox for `tests/test_language.py`.</text>
</g>
<!-- 6f913ec6&#45;6f7a&#45;411a&#45;92a0&#45;0fcaeb1cabb6&#45;&gt;36047819&#45;a23f&#45;4e3f&#45;936a&#45;821efba8ca96 -->
<g id="edge8" class="edge">
<title>6f913ec6&#45;6f7a&#45;411a&#45;92a0&#45;0fcaeb1cabb6&#45;&gt;36047819&#45;a23f&#45;4e3f&#45;936a&#45;821efba8ca96</title>
<path fill="none" stroke="black" stroke-dasharray="5,2" d="M386.97,-253.08C410.97,-242 439.39,-228.88 462.76,-218.09"/>
<polygon fill="black" stroke="black" points="464.5,-221.14 472.11,-213.77 461.57,-214.78 464.5,-221.14"/>
</g>
<!-- 4d3061d4&#45;6af1&#45;4cf6&#45;9df6&#45;84097ebd1170 -->
<g id="node12" class="node">
<title>4d3061d4&#45;6af1&#45;4cf6&#45;9df6&#45;84097ebd1170</title>
<ellipse fill="yellow" stroke="black" cx="164" cy="-99.87" rx="123.07" ry="26.74"/>
<text text-anchor="middle" x="164" y="-103.67" font-family="Helvetica,sans-Serif" font-size="14.00">⋯ Modify</text>
<text text-anchor="middle" x="164" y="-88.67" font-family="Helvetica,sans-Serif" font-size="14.00">tests/test_language.py</text>
</g>
<!-- 52eb852d&#45;46ce&#45;42df&#45;a449&#45;3fb71f5bfef7&#45;&gt;4d3061d4&#45;6af1&#45;4cf6&#45;9df6&#45;84097ebd1170 -->
<g id="edge6" class="edge">
<title>52eb852d&#45;46ce&#45;42df&#45;a449&#45;3fb71f5bfef7&#45;&gt;4d3061d4&#45;6af1&#45;4cf6&#45;9df6&#45;84097ebd1170</title>
<path fill="none" stroke="black" d="M164,-177.52C164,-166.22 164,-151.01 164,-137.12"/>
<polygon fill="black" stroke="black" points="167.5,-136.84 164,-126.84 160.5,-136.84 167.5,-136.84"/>
<text text-anchor="middle" x="261.5" y="-148.54" font-family="Helvetica,sans-Serif" font-size="14.00">Additional changes required</text>
</g>
<!-- 9c5c8183&#45;bb2c&#45;4889&#45;9c52&#45;c30b28d7a507 -->
<g id="node13" class="node">
<title>9c5c8183&#45;bb2c&#45;4889&#45;9c52&#45;c30b28d7a507</title>
<polygon fill="white" stroke="black" points="327,-36 1,-36 1,0 327,0 327,-36"/>
<text text-anchor="middle" x="164" y="-14.3" font-family="Helvetica,sans-Serif" font-size="14.00">▶ Ran sandbox for `tests/test_language.py`.</text>
</g>
<!-- 4d3061d4&#45;6af1&#45;4cf6&#45;9df6&#45;84097ebd1170&#45;&gt;9c5c8183&#45;bb2c&#45;4889&#45;9c52&#45;c30b28d7a507 -->
<g id="edge7" class="edge">
<title>4d3061d4&#45;6af1&#45;4cf6&#45;9df6&#45;84097ebd1170&#45;&gt;9c5c8183&#45;bb2c&#45;4889&#45;9c52&#45;c30b28d7a507</title>
<path fill="none" stroke="black" stroke-dasharray="5,2" d="M164,-72.72C164,-64.27 164,-54.89 164,-46.36"/>
<polygon fill="black" stroke="black" points="167.5,-46.15 164,-36.15 160.5,-46.15 167.5,-46.15"/>
</g>
</g>
</svg>
