<?xml version="1.0" encoding="UTF-8" standalone="no"?>
<!DOCTYPE svg PUBLIC "-//W3C//DTD SVG 1.1//EN"
 "http://www.w3.org/Graphics/SVG/1.1/DTD/svg11.dtd">
<!-- Generated by graphviz version 2.43.0 (0)
 -->
<!-- Title: %3 Pages: 1 -->
<svg width="745pt" height="415pt"
 viewBox="0.00 0.00 745.00 415.48" xmlns="http://www.w3.org/2000/svg" xmlns:xlink="http://www.w3.org/1999/xlink">
<g id="graph0" class="graph" transform="scale(1 1) rotate(0) translate(36 379.48)">
<title>%3</title>
<polygon fill="dimgray" stroke="transparent" points="-36,36 -36,-379.48 709,-379.48 709,36 -36,36"/>
<text text-anchor="middle" x="336.5" y="-328.28" font-family="Helvetica,sans-Serif" font-size="14.00">Sweep&#39;s Plan &amp; Progress</text>
<!-- start -->
<g id="node1" class="node">
<title>start</title>
</g>
<!-- 825b5458&#45;bc60&#45;494f&#45;ae44&#45;16dd87cbad68 -->
<g id="node3" class="node">
<title>825b5458&#45;bc60&#45;494f&#45;ae44&#45;16dd87cbad68</title>
<ellipse fill="#0ee832" stroke="black" cx="418" cy="-277.61" rx="123.07" ry="26.74"/>
<text text-anchor="middle" x="418" y="-281.41" font-family="Helvetica,sans-Serif" font-size="14.00">✓ Test</text>
<text text-anchor="middle" x="418" y="-266.41" font-family="Helvetica,sans-Serif" font-size="14.00">tests/test_language.py</text>
</g>
<!-- start&#45;&gt;825b5458&#45;bc60&#45;494f&#45;ae44&#45;16dd87cbad68 -->
<g id="edge5" class="edge">
<title>start&#45;&gt;825b5458&#45;bc60&#45;494f&#45;ae44&#45;16dd87cbad68</title>
<path fill="none" stroke="black" d="M243.5,-277.61C246.53,-277.61 262.92,-277.61 284.55,-277.61"/>
<polygon fill="black" stroke="black" points="284.83,-281.11 294.83,-277.61 284.82,-274.11 284.83,-281.11"/>
<text text-anchor="middle" x="269.23" y="-284.41" font-family="Helvetica,sans-Serif" font-size="14.00">Start</text>
</g>
<!-- end -->
<g id="node2" class="node">
<title>end</title>
</g>
<!-- 825b5458&#45;bc60&#45;494f&#45;ae44&#45;16dd87cbad68&#45;&gt;end -->
<g id="edge6" class="edge">
<title>825b5458&#45;bc60&#45;494f&#45;ae44&#45;16dd87cbad68&#45;&gt;end</title>
<path fill="none" stroke="black" d="M541.23,-277.61C560.52,-277.61 577.51,-277.61 587.99,-277.61"/>
<polygon fill="black" stroke="black" points="588.34,-281.11 598.34,-277.61 588.34,-274.11 588.34,-281.11"/>
<text text-anchor="middle" x="569.77" y="-284.41" font-family="Helvetica,sans-Serif" font-size="14.00">Finish</text>
</g>
<!-- f1f8e6e3&#45;53a3&#45;4f1f&#45;867f&#45;354664e0835f -->
<g id="node4" class="node">
<title>f1f8e6e3&#45;53a3&#45;4f1f&#45;867f&#45;354664e0835f</title>
<polygon fill="#ee0000" stroke="black" points="329,-213.74 1,-213.74 1,-177.74 329,-177.74 329,-213.74"/>
<text text-anchor="middle" x="165" y="-192.04" font-family="Helvetica,sans-Serif" font-size="14.00">✗ Ran sandbox for `tests/test_language.py`.</text>
</g>
<!-- 825b5458&#45;bc60&#45;494f&#45;ae44&#45;16dd87cbad68&#45;&gt;f1f8e6e3&#45;53a3&#45;4f1f&#45;867f&#45;354664e0835f -->
<g id="edge1" class="edge">
<title>825b5458&#45;bc60&#45;494f&#45;ae44&#45;16dd87cbad68&#45;&gt;f1f8e6e3&#45;53a3&#45;4f1f&#45;867f&#45;354664e0835f</title>
<path fill="none" stroke="black" stroke-dasharray="5,2" d="M349.87,-255.1C312.25,-243.23 265.81,-228.57 228.89,-216.91"/>
<polygon fill="black" stroke="black" points="229.82,-213.53 219.23,-213.86 227.71,-220.21 229.82,-213.53"/>
</g>
<!-- 88533ac2&#45;292c&#45;495c&#45;bbd5&#45;20f52b229fc0 -->
<g id="node5" class="node">
<title>88533ac2&#45;292c&#45;495c&#45;bbd5&#45;20f52b229fc0</title>
<polygon fill="white" stroke="black" points="673,-213.74 347,-213.74 347,-177.74 673,-177.74 673,-213.74"/>
<text text-anchor="middle" x="510" y="-192.04" font-family="Helvetica,sans-Serif" font-size="14.00">▶ Ran sandbox for `tests/test_language.py`.</text>
</g>
<!-- 825b5458&#45;bc60&#45;494f&#45;ae44&#45;16dd87cbad68&#45;&gt;88533ac2&#45;292c&#45;495c&#45;bbd5&#45;20f52b229fc0 -->
<g id="edge4" class="edge">
<title>825b5458&#45;bc60&#45;494f&#45;ae44&#45;16dd87cbad68&#45;&gt;88533ac2&#45;292c&#45;495c&#45;bbd5&#45;20f52b229fc0</title>
<path fill="none" stroke="black" stroke-dasharray="5,2" d="M447.11,-251.34C458.46,-241.48 471.41,-230.24 482.59,-220.53"/>
<polygon fill="black" stroke="black" points="485.12,-222.98 490.38,-213.78 480.53,-217.69 485.12,-222.98"/>
</g>
<!-- 773c02e7&#45;5dba&#45;405f&#45;9755&#45;521ff0b7390e -->
<g id="node6" class="node">
<title>773c02e7&#45;5dba&#45;405f&#45;9755&#45;521ff0b7390e</title>
<ellipse fill="#0ee832" stroke="black" cx="165" cy="-99.87" rx="123.07" ry="26.74"/>
<text text-anchor="middle" x="165" y="-103.67" font-family="Helvetica,sans-Serif" font-size="14.00">✓ Modify</text>
<text text-anchor="middle" x="165" y="-88.67" font-family="Helvetica,sans-Serif" font-size="14.00">tests/test_language.py</text>
</g>
<!-- f1f8e6e3&#45;53a3&#45;4f1f&#45;867f&#45;354664e0835f&#45;&gt;773c02e7&#45;5dba&#45;405f&#45;9755&#45;521ff0b7390e -->
<g id="edge2" class="edge">
<title>f1f8e6e3&#45;53a3&#45;4f1f&#45;867f&#45;354664e0835f&#45;&gt;773c02e7&#45;5dba&#45;405f&#45;9755&#45;521ff0b7390e</title>
<path fill="none" stroke="black" d="M165,-177.52C165,-166.22 165,-151.01 165,-137.12"/>
<polygon fill="black" stroke="black" points="168.5,-136.84 165,-126.84 161.5,-136.84 168.5,-136.84"/>
<text text-anchor="middle" x="262.5" y="-148.54" font-family="Helvetica,sans-Serif" font-size="14.00">Additional changes required</text>
</g>
<!-- 479c8a26&#45;92e5&#45;4d2d&#45;bdba&#45;e55d1e90d480 -->
<g id="node7" class="node">
<title>479c8a26&#45;92e5&#45;4d2d&#45;bdba&#45;e55d1e90d480</title>
<polygon fill="yellow" stroke="black" points="330,-36 0,-36 0,0 330,0 330,-36"/>
<text text-anchor="middle" x="165" y="-14.3" font-family="Helvetica,sans-Serif" font-size="14.00">⋯ Ran sandbox for `tests/test_language.py`.</text>
</g>
<!-- 773c02e7&#45;5dba&#45;405f&#45;9755&#45;521ff0b7390e&#45;&gt;479c8a26&#45;92e5&#45;4d2d&#45;bdba&#45;e55d1e90d480 -->
<g id="edge3" class="edge">
<title>773c02e7&#45;5dba&#45;405f&#45;9755&#45;521ff0b7390e&#45;&gt;479c8a26&#45;92e5&#45;4d2d&#45;bdba&#45;e55d1e90d480</title>
<path fill="none" stroke="black" stroke-dasharray="5,2" d="M165,-72.72C165,-64.27 165,-54.89 165,-46.36"/>
<polygon fill="black" stroke="black" points="168.5,-46.15 165,-36.15 161.5,-46.15 168.5,-46.15"/>
</g>
</g>
</svg>
