<?xml version="1.0" encoding="UTF-8" standalone="no"?>
<!DOCTYPE svg PUBLIC "-//W3C//DTD SVG 1.1//EN"
 "http://www.w3.org/Graphics/SVG/1.1/DTD/svg11.dtd">
<!-- Generated by graphviz version 2.43.0 (0)
 -->
<!-- Title: %3 Pages: 1 -->
<svg width="924pt" height="593pt"
 viewBox="0.00 0.00 923.50 593.22" xmlns="http://www.w3.org/2000/svg" xmlns:xlink="http://www.w3.org/1999/xlink">
<g id="graph0" class="graph" transform="scale(1 1) rotate(0) translate(36 557.22)">
<title>%3</title>
<polygon fill="dimgray" stroke="transparent" points="-36,36 -36,-557.22 887.5,-557.22 887.5,36 -36,36"/>
<text text-anchor="middle" x="425.75" y="-506.02" font-family="Helvetica,sans-Serif" font-size="14.00">Sweep&#39;s Plan &amp; Progress</text>
<!-- start -->
<g id="node1" class="node">
<title>start</title>
</g>
<!-- 7e80c70c&#45;48a6&#45;452d&#45;abb0&#45;9c6c4163cec5 -->
<g id="node3" class="node">
<title>7e80c70c&#45;48a6&#45;452d&#45;abb0&#45;9c6c4163cec5</title>
<ellipse fill="#0ee832" stroke="black" cx="594" cy="-455.35" rx="124.4" ry="26.74"/>
<text text-anchor="middle" x="594" y="-459.15" font-family="Helvetica,sans-Serif" font-size="14.00">✓ Modify</text>
<text text-anchor="middle" x="594" y="-444.15" font-family="Helvetica,sans-Serif" font-size="14.00">ultra_type/controller.py</text>
</g>
<!-- start&#45;&gt;7e80c70c&#45;48a6&#45;452d&#45;abb0&#45;9c6c4163cec5 -->
<g id="edge8" class="edge">
<title>start&#45;&gt;7e80c70c&#45;48a6&#45;452d&#45;abb0&#45;9c6c4163cec5</title>
<path fill="none" stroke="black" d="M418.5,-455.35C421.51,-455.35 437.66,-455.35 459.04,-455.35"/>
<polygon fill="black" stroke="black" points="459.2,-458.85 469.2,-455.35 459.2,-451.85 459.2,-458.85"/>
<text text-anchor="middle" x="444.02" y="-462.15" font-family="Helvetica,sans-Serif" font-size="14.00">Start</text>
</g>
<!-- end -->
<g id="node2" class="node">
<title>end</title>
</g>
<!-- 7e80c70c&#45;48a6&#45;452d&#45;abb0&#45;9c6c4163cec5&#45;&gt;end -->
<g id="edge9" class="edge">
<title>7e80c70c&#45;48a6&#45;452d&#45;abb0&#45;9c6c4163cec5&#45;&gt;end</title>
<path fill="none" stroke="black" d="M718.91,-455.35C738.03,-455.35 754.81,-455.35 765.15,-455.35"/>
<polygon fill="black" stroke="black" points="765.35,-458.85 775.35,-455.35 765.35,-451.85 765.35,-458.85"/>
<text text-anchor="middle" x="746.98" y="-462.15" font-family="Helvetica,sans-Serif" font-size="14.00">Finish</text>
</g>
<!-- 1f91a768&#45;e50b&#45;46f4&#45;9b40&#45;60b5e5b4eee2 -->
<g id="node4" class="node">
<title>1f91a768&#45;e50b&#45;46f4&#45;9b40&#45;60b5e5b4eee2</title>
<polygon fill="#ee0000" stroke="black" points="504,-391.48 174,-391.48 174,-355.48 504,-355.48 504,-391.48"/>
<text text-anchor="middle" x="339" y="-369.78" font-family="Helvetica,sans-Serif" font-size="14.00">✗ Ran sandbox for `ultra_type/controller.py`.</text>
</g>
<!-- 7e80c70c&#45;48a6&#45;452d&#45;abb0&#45;9c6c4163cec5&#45;&gt;1f91a768&#45;e50b&#45;46f4&#45;9b40&#45;60b5e5b4eee2 -->
<g id="edge1" class="edge">
<title>7e80c70c&#45;48a6&#45;452d&#45;abb0&#45;9c6c4163cec5&#45;&gt;1f91a768&#45;e50b&#45;46f4&#45;9b40&#45;60b5e5b4eee2</title>
<path fill="none" stroke="black" stroke-dasharray="5,2" d="M525.33,-432.84C487.41,-420.97 440.61,-406.31 403.39,-394.65"/>
<polygon fill="black" stroke="black" points="404.25,-391.25 393.66,-391.6 402.16,-397.93 404.25,-391.25"/>
</g>
<!-- 747499c1&#45;edcc&#45;4c8b&#45;bd30&#45;a8222f962f78 -->
<g id="node5" class="node">
<title>747499c1&#45;edcc&#45;4c8b&#45;bd30&#45;a8222f962f78</title>
<polygon fill="white" stroke="black" points="851.5,-391.48 522.5,-391.48 522.5,-355.48 851.5,-355.48 851.5,-391.48"/>
<text text-anchor="middle" x="687" y="-369.78" font-family="Helvetica,sans-Serif" font-size="14.00">▶ Ran sandbox for `ultra_type/controller.py`.</text>
</g>
<!-- 7e80c70c&#45;48a6&#45;452d&#45;abb0&#45;9c6c4163cec5&#45;&gt;747499c1&#45;edcc&#45;4c8b&#45;bd30&#45;a8222f962f78 -->
<g id="edge7" class="edge">
<title>7e80c70c&#45;48a6&#45;452d&#45;abb0&#45;9c6c4163cec5&#45;&gt;747499c1&#45;edcc&#45;4c8b&#45;bd30&#45;a8222f962f78</title>
<path fill="none" stroke="black" stroke-dasharray="5,2" d="M623.43,-429.08C634.9,-419.22 647.99,-407.98 659.29,-398.27"/>
<polygon fill="black" stroke="black" points="661.86,-400.69 667.16,-391.52 657.3,-395.38 661.86,-400.69"/>
</g>
<!-- bab0e844&#45;a3d7&#45;4408&#45;b71b&#45;13f37d594be1 -->
<g id="node6" class="node">
<title>bab0e844&#45;a3d7&#45;4408&#45;b71b&#45;13f37d594be1</title>
<ellipse fill="#0ee832" stroke="black" cx="339" cy="-277.61" rx="124.4" ry="26.74"/>
<text text-anchor="middle" x="339" y="-281.41" font-family="Helvetica,sans-Serif" font-size="14.00">✓ Modify</text>
<text text-anchor="middle" x="339" y="-266.41" font-family="Helvetica,sans-Serif" font-size="14.00">ultra_type/controller.py</text>
</g>
<!-- 1f91a768&#45;e50b&#45;46f4&#45;9b40&#45;60b5e5b4eee2&#45;&gt;bab0e844&#45;a3d7&#45;4408&#45;b71b&#45;13f37d594be1 -->
<g id="edge2" class="edge">
<title>1f91a768&#45;e50b&#45;46f4&#45;9b40&#45;60b5e5b4eee2&#45;&gt;bab0e844&#45;a3d7&#45;4408&#45;b71b&#45;13f37d594be1</title>
<path fill="none" stroke="black" d="M339,-355.26C339,-343.96 339,-328.75 339,-314.86"/>
<polygon fill="black" stroke="black" points="342.5,-314.58 339,-304.58 335.5,-314.58 342.5,-314.58"/>
<text text-anchor="middle" x="436.5" y="-326.28" font-family="Helvetica,sans-Serif" font-size="14.00">Additional changes required</text>
</g>
<!-- eaa82886&#45;7418&#45;4617&#45;8655&#45;9b90bdcb61f3 -->
<g id="node7" class="node">
<title>eaa82886&#45;7418&#45;4617&#45;8655&#45;9b90bdcb61f3</title>
<polygon fill="#ee0000" stroke="black" points="330,-213.74 0,-213.74 0,-177.74 330,-177.74 330,-213.74"/>
<text text-anchor="middle" x="165" y="-192.04" font-family="Helvetica,sans-Serif" font-size="14.00">✗ Ran sandbox for `ultra_type/controller.py`.</text>
</g>
<!-- bab0e844&#45;a3d7&#45;4408&#45;b71b&#45;13f37d594be1&#45;&gt;eaa82886&#45;7418&#45;4617&#45;8655&#45;9b90bdcb61f3 -->
<g id="edge3" class="edge">
<title>bab0e844&#45;a3d7&#45;4408&#45;b71b&#45;13f37d594be1&#45;&gt;eaa82886&#45;7418&#45;4617&#45;8655&#45;9b90bdcb61f3</title>
<path fill="none" stroke="black" stroke-dasharray="5,2" d="M287.74,-253.08C263.49,-241.95 234.76,-228.76 211.19,-217.94"/>
<polygon fill="black" stroke="black" points="212.65,-214.76 202.1,-213.77 209.73,-221.12 212.65,-214.76"/>
</g>
<!-- 1561d145&#45;f758&#45;41ad&#45;b0c2&#45;5e76a737caf6 -->
<g id="node8" class="node">
<title>1561d145&#45;f758&#45;41ad&#45;b0c2&#45;5e76a737caf6</title>
<polygon fill="white" stroke="black" points="677.5,-213.74 348.5,-213.74 348.5,-177.74 677.5,-177.74 677.5,-213.74"/>
<text text-anchor="middle" x="513" y="-192.04" font-family="Helvetica,sans-Serif" font-size="14.00">▶ Ran sandbox for `ultra_type/controller.py`.</text>
</g>
<!-- bab0e844&#45;a3d7&#45;4408&#45;b71b&#45;13f37d594be1&#45;&gt;1561d145&#45;f758&#45;41ad&#45;b0c2&#45;5e76a737caf6 -->
<g id="edge6" class="edge">
<title>bab0e844&#45;a3d7&#45;4408&#45;b71b&#45;13f37d594be1&#45;&gt;1561d145&#45;f758&#45;41ad&#45;b0c2&#45;5e76a737caf6</title>
<path fill="none" stroke="black" stroke-dasharray="5,2" d="M390.26,-253.08C414.51,-241.95 443.24,-228.76 466.81,-217.94"/>
<polygon fill="black" stroke="black" points="468.27,-221.12 475.9,-213.77 465.35,-214.76 468.27,-221.12"/>
</g>
<!-- 8d10f238&#45;f10a&#45;4234&#45;b4d8&#45;80f91a667c3a -->
<g id="node9" class="node">
<title>8d10f238&#45;f10a&#45;4234&#45;b4d8&#45;80f91a667c3a</title>
<ellipse fill="yellow" stroke="black" cx="165" cy="-99.87" rx="124.4" ry="26.74"/>
<text text-anchor="middle" x="165" y="-103.67" font-family="Helvetica,sans-Serif" font-size="14.00">⋯ Modify</text>
<text text-anchor="middle" x="165" y="-88.67" font-family="Helvetica,sans-Serif" font-size="14.00">ultra_type/controller.py</text>
</g>
<!-- eaa82886&#45;7418&#45;4617&#45;8655&#45;9b90bdcb61f3&#45;&gt;8d10f238&#45;f10a&#45;4234&#45;b4d8&#45;80f91a667c3a -->
<g id="edge4" class="edge">
<title>eaa82886&#45;7418&#45;4617&#45;8655&#45;9b90bdcb61f3&#45;&gt;8d10f238&#45;f10a&#45;4234&#45;b4d8&#45;80f91a667c3a</title>
<path fill="none" stroke="black" d="M165,-177.52C165,-166.22 165,-151.01 165,-137.12"/>
<polygon fill="black" stroke="black" points="168.5,-136.84 165,-126.84 161.5,-136.84 168.5,-136.84"/>
<text text-anchor="middle" x="262.5" y="-148.54" font-family="Helvetica,sans-Serif" font-size="14.00">Additional changes required</text>
</g>
<!-- 35109820&#45;0b6f&#45;4431&#45;b058&#45;b5cbd3c79e46 -->
<g id="node10" class="node">
<title>35109820&#45;0b6f&#45;4431&#45;b058&#45;b5cbd3c79e46</title>
<polygon fill="white" stroke="black" points="329.5,-36 0.5,-36 0.5,0 329.5,0 329.5,-36"/>
<text text-anchor="middle" x="165" y="-14.3" font-family="Helvetica,sans-Serif" font-size="14.00">▶ Ran sandbox for `ultra_type/controller.py`.</text>
</g>
<!-- 8d10f238&#45;f10a&#45;4234&#45;b4d8&#45;80f91a667c3a&#45;&gt;35109820&#45;0b6f&#45;4431&#45;b058&#45;b5cbd3c79e46 -->
<g id="edge5" class="edge">
<title>8d10f238&#45;f10a&#45;4234&#45;b4d8&#45;80f91a667c3a&#45;&gt;35109820&#45;0b6f&#45;4431&#45;b058&#45;b5cbd3c79e46</title>
<path fill="none" stroke="black" stroke-dasharray="5,2" d="M165,-72.72C165,-64.27 165,-54.89 165,-46.36"/>
<polygon fill="black" stroke="black" points="168.5,-46.15 165,-36.15 161.5,-46.15 168.5,-46.15"/>
</g>
</g>
</svg>
