<?xml version="1.0" encoding="UTF-8" standalone="no"?>
<!DOCTYPE svg PUBLIC "-//W3C//DTD SVG 1.1//EN"
 "http://www.w3.org/Graphics/SVG/1.1/DTD/svg11.dtd">
<!-- Generated by graphviz version 2.43.0 (0)
 -->
<!-- Title: %3 Pages: 1 -->
<svg width="385pt" height="165pt"
 viewBox="0.00 0.00 385.00 164.74" xmlns="http://www.w3.org/2000/svg" xmlns:xlink="http://www.w3.org/1999/xlink">
<g id="graph0" class="graph" transform="scale(1 1) rotate(0) translate(36 128.74)">
<title>%3</title>
<polygon fill="dimgray" stroke="transparent" points="-36,36 -36,-128.74 349,-128.74 349,36 -36,36"/>
<text text-anchor="middle" x="156.5" y="-77.54" font-family="Helvetica,sans-Serif" font-size="14.00">Sweep&#39;s Plan &amp; Progress</text>
<!-- start -->
<g id="node1" class="node">
<title>start</title>
</g>
<!-- 819557a5&#45;a3d4&#45;4993&#45;b48f&#45;1c518273f794 -->
<g id="node3" class="node">
<title>819557a5&#45;a3d4&#45;4993&#45;b48f&#45;1c518273f794</title>
<ellipse fill="yellow" stroke="black" cx="153.5" cy="-26.87" rx="101.23" ry="26.74"/>
<text text-anchor="middle" x="153.5" y="-30.67" font-family="Helvetica,sans-Serif" font-size="14.00">⋯ Modify</text>
<text text-anchor="middle" x="153.5" y="-15.67" font-family="Helvetica,sans-Serif" font-size="14.00">ultra_type/view.py</text>
</g>
<!-- start&#45;&gt;819557a5&#45;a3d4&#45;4993&#45;b48f&#45;1c518273f794 -->
<g id="edge1" class="edge">
<title>start&#45;&gt;819557a5&#45;a3d4&#45;4993&#45;b48f&#45;1c518273f794</title>
<path fill="none" stroke="black" d="M1.18,-26.87C4.66,-26.87 21.09,-26.87 41.96,-26.87"/>
<polygon fill="black" stroke="black" points="42.17,-30.37 52.17,-26.87 42.17,-23.37 42.17,-30.37"/>
<text text-anchor="middle" x="26.69" y="-33.67" font-family="Helvetica,sans-Serif" font-size="14.00">Start</text>
</g>
<!-- end -->
<g id="node2" class="node">
<title>end</title>
</g>
<!-- 819557a5&#45;a3d4&#45;4993&#45;b48f&#45;1c518273f794&#45;&gt;end -->
<g id="edge2" class="edge">
<title>819557a5&#45;a3d4&#45;4993&#45;b48f&#45;1c518273f794&#45;&gt;end</title>
<path fill="none" stroke="black" d="M254.65,-26.87C273.74,-26.87 291.03,-26.87 301.64,-26.87"/>
<polygon fill="black" stroke="black" points="301.82,-30.37 311.82,-26.87 301.82,-23.37 301.82,-30.37"/>
<text text-anchor="middle" x="283.31" y="-33.67" font-family="Helvetica,sans-Serif" font-size="14.00">Finish</text>
</g>
</g>
</svg>
