<?xml version="1.0" encoding="UTF-8" standalone="no"?>
<!DOCTYPE svg PUBLIC "-//W3C//DTD SVG 1.1//EN"
 "http://www.w3.org/Graphics/SVG/1.1/DTD/svg11.dtd">
<!-- Generated by graphviz version 2.43.0 (0)
 -->
<!-- Title: %3 Pages: 1 -->
<svg width="1345pt" height="238pt"
 viewBox="0.00 0.00 1345.00 237.74" xmlns="http://www.w3.org/2000/svg" xmlns:xlink="http://www.w3.org/1999/xlink">
<g id="graph0" class="graph" transform="scale(1 1) rotate(0) translate(36 201.74)">
<title>%3</title>
<polygon fill="dimgray" stroke="transparent" points="-36,36 -36,-201.74 1309,-201.74 1309,36 -36,36"/>
<text text-anchor="middle" x="636.5" y="-150.54" font-family="Helvetica,sans-Serif" font-size="14.00">Sweep&#39;s Plan &amp; Progress</text>
<!-- start -->
<g id="node1" class="node">
<title>start</title>
</g>
<!-- c25745ea&#45;c295&#45;42a4&#45;aad1&#45;4ebfb5802c3a -->
<g id="node3" class="node">
<title>c25745ea&#45;c295&#45;42a4&#45;aad1&#45;4ebfb5802c3a</title>
<ellipse fill="#0ee832" stroke="black" cx="186.5" cy="-99.87" rx="101.23" ry="26.74"/>
<text text-anchor="middle" x="186.5" y="-103.67" font-family="Helvetica,sans-Serif" font-size="14.00">✓ Modify</text>
<text text-anchor="middle" x="186.5" y="-88.67" font-family="Helvetica,sans-Serif" font-size="14.00">ultra_type/view.py</text>
</g>
<!-- start&#45;&gt;c25745ea&#45;c295&#45;42a4&#45;aad1&#45;4ebfb5802c3a -->
<g id="edge8" class="edge">
<title>start&#45;&gt;c25745ea&#45;c295&#45;42a4&#45;aad1&#45;4ebfb5802c3a</title>
<path fill="none" stroke="black" d="M34.18,-99.87C37.66,-99.87 54.09,-99.87 74.96,-99.87"/>
<polygon fill="black" stroke="black" points="75.17,-103.37 85.17,-99.87 75.17,-96.37 75.17,-103.37"/>
<text text-anchor="middle" x="59.69" y="-106.67" font-family="Helvetica,sans-Serif" font-size="14.00">Start</text>
</g>
<!-- end -->
<g id="node2" class="node">
<title>end</title>
</g>
<!-- d6c9a186&#45;6269&#45;4f57&#45;8def&#45;9befd659fa35 -->
<g id="node4" class="node">
<title>d6c9a186&#45;6269&#45;4f57&#45;8def&#45;9befd659fa35</title>
<ellipse fill="yellow" stroke="black" cx="463.5" cy="-99.87" rx="101.23" ry="26.74"/>
<text text-anchor="middle" x="463.5" y="-103.67" font-family="Helvetica,sans-Serif" font-size="14.00">⋯ Modify</text>
<text text-anchor="middle" x="463.5" y="-88.67" font-family="Helvetica,sans-Serif" font-size="14.00">ultra_type/view.py</text>
</g>
<!-- c25745ea&#45;c295&#45;42a4&#45;aad1&#45;4ebfb5802c3a&#45;&gt;d6c9a186&#45;6269&#45;4f57&#45;8def&#45;9befd659fa35 -->
<g id="edge2" class="edge">
<title>c25745ea&#45;c295&#45;42a4&#45;aad1&#45;4ebfb5802c3a&#45;&gt;d6c9a186&#45;6269&#45;4f57&#45;8def&#45;9befd659fa35</title>
<path fill="none" stroke="black" d="M287.67,-99.87C309.11,-99.87 330.56,-99.87 352,-99.87"/>
<polygon fill="black" stroke="black" points="352.19,-103.37 362.19,-99.87 352.19,-96.37 352.19,-103.37"/>
</g>
<!-- 29769701&#45;8612&#45;4a9b&#45;aef2&#45;c611888521d7 -->
<g id="node7" class="node">
<title>29769701&#45;8612&#45;4a9b&#45;aef2&#45;c611888521d7</title>
<polygon fill="#0ee832" stroke="black" points="297,-36 0,-36 0,0 297,0 297,-36"/>
<text text-anchor="middle" x="148.5" y="-14.3" font-family="Helvetica,sans-Serif" font-size="14.00">✓ Ran sandbox for `ultra_type/view.py`.</text>
</g>
<!-- c25745ea&#45;c295&#45;42a4&#45;aad1&#45;4ebfb5802c3a&#45;&gt;29769701&#45;8612&#45;4a9b&#45;aef2&#45;c611888521d7 -->
<g id="edge1" class="edge">
<title>c25745ea&#45;c295&#45;42a4&#45;aad1&#45;4ebfb5802c3a&#45;&gt;29769701&#45;8612&#45;4a9b&#45;aef2&#45;c611888521d7</title>
<path fill="none" stroke="black" stroke-dasharray="5,2" d="M174.27,-73.16C170.06,-64.32 165.35,-54.41 161.11,-45.5"/>
<polygon fill="black" stroke="black" points="164.21,-43.86 156.75,-36.34 157.88,-46.87 164.21,-43.86"/>
</g>
<!-- 0dcba031&#45;916d&#45;472e&#45;87cf&#45;9337e1b13f56 -->
<g id="node5" class="node">
<title>0dcba031&#45;916d&#45;472e&#45;87cf&#45;9337e1b13f56</title>
<ellipse fill="white" stroke="black" cx="777.5" cy="-99.87" rx="101.23" ry="26.74"/>
<text text-anchor="middle" x="777.5" y="-103.67" font-family="Helvetica,sans-Serif" font-size="14.00">▶ Modify</text>
<text text-anchor="middle" x="777.5" y="-88.67" font-family="Helvetica,sans-Serif" font-size="14.00">ultra_type/view.py</text>
</g>
<!-- d6c9a186&#45;6269&#45;4f57&#45;8def&#45;9befd659fa35&#45;&gt;0dcba031&#45;916d&#45;472e&#45;87cf&#45;9337e1b13f56 -->
<g id="edge4" class="edge">
<title>d6c9a186&#45;6269&#45;4f57&#45;8def&#45;9befd659fa35&#45;&gt;0dcba031&#45;916d&#45;472e&#45;87cf&#45;9337e1b13f56</title>
<path fill="none" stroke="black" d="M564.69,-99.87C598.49,-99.87 632.28,-99.87 666.08,-99.87"/>
<polygon fill="black" stroke="black" points="666.08,-103.37 676.08,-99.87 666.08,-96.37 666.08,-103.37"/>
</g>
<!-- 9fc897a1&#45;8c45&#45;4074&#45;b904&#45;395998ccc48e -->
<g id="node8" class="node">
<title>9fc897a1&#45;8c45&#45;4074&#45;b904&#45;395998ccc48e</title>
<polygon fill="white" stroke="black" points="611.5,-36 315.5,-36 315.5,0 611.5,0 611.5,-36"/>
<text text-anchor="middle" x="463.5" y="-14.3" font-family="Helvetica,sans-Serif" font-size="14.00">▶ Ran sandbox for `ultra_type/view.py`.</text>
</g>
<!-- d6c9a186&#45;6269&#45;4f57&#45;8def&#45;9befd659fa35&#45;&gt;9fc897a1&#45;8c45&#45;4074&#45;b904&#45;395998ccc48e -->
<g id="edge3" class="edge">
<title>d6c9a186&#45;6269&#45;4f57&#45;8def&#45;9befd659fa35&#45;&gt;9fc897a1&#45;8c45&#45;4074&#45;b904&#45;395998ccc48e</title>
<path fill="none" stroke="black" stroke-dasharray="5,2" d="M463.5,-72.72C463.5,-64.27 463.5,-54.89 463.5,-46.36"/>
<polygon fill="black" stroke="black" points="467,-46.15 463.5,-36.15 460,-46.15 467,-46.15"/>
</g>
<!-- c2a9a363&#45;8ad5&#45;4c1c&#45;af36&#45;bbf1da754f63 -->
<g id="node6" class="node">
<title>c2a9a363&#45;8ad5&#45;4c1c&#45;af36&#45;bbf1da754f63</title>
<ellipse fill="white" stroke="black" cx="1073.5" cy="-99.87" rx="124.4" ry="26.74"/>
<text text-anchor="middle" x="1073.5" y="-103.67" font-family="Helvetica,sans-Serif" font-size="14.00">▶ Modify</text>
<text text-anchor="middle" x="1073.5" y="-88.67" font-family="Helvetica,sans-Serif" font-size="14.00">ultra_type/controller.py</text>
</g>
<!-- 0dcba031&#45;916d&#45;472e&#45;87cf&#45;9337e1b13f56&#45;&gt;c2a9a363&#45;8ad5&#45;4c1c&#45;af36&#45;bbf1da754f63 -->
<g id="edge6" class="edge">
<title>0dcba031&#45;916d&#45;472e&#45;87cf&#45;9337e1b13f56&#45;&gt;c2a9a363&#45;8ad5&#45;4c1c&#45;af36&#45;bbf1da754f63</title>
<path fill="none" stroke="black" d="M878.67,-99.87C898.64,-99.87 918.6,-99.87 938.57,-99.87"/>
<polygon fill="black" stroke="black" points="938.69,-103.37 948.69,-99.87 938.69,-96.37 938.69,-103.37"/>
</g>
<!-- 778b5f59&#45;2ce2&#45;4834&#45;b070&#45;f7b43ce966ec -->
<g id="node9" class="node">
<title>778b5f59&#45;2ce2&#45;4834&#45;b070&#45;f7b43ce966ec</title>
<polygon fill="white" stroke="black" points="925.5,-36 629.5,-36 629.5,0 925.5,0 925.5,-36"/>
<text text-anchor="middle" x="777.5" y="-14.3" font-family="Helvetica,sans-Serif" font-size="14.00">▶ Ran sandbox for `ultra_type/view.py`.</text>
</g>
<!-- 0dcba031&#45;916d&#45;472e&#45;87cf&#45;9337e1b13f56&#45;&gt;778b5f59&#45;2ce2&#45;4834&#45;b070&#45;f7b43ce966ec -->
<g id="edge5" class="edge">
<title>0dcba031&#45;916d&#45;472e&#45;87cf&#45;9337e1b13f56&#45;&gt;778b5f59&#45;2ce2&#45;4834&#45;b070&#45;f7b43ce966ec</title>
<path fill="none" stroke="black" stroke-dasharray="5,2" d="M777.5,-72.72C777.5,-64.27 777.5,-54.89 777.5,-46.36"/>
<polygon fill="black" stroke="black" points="781,-46.15 777.5,-36.15 774,-46.15 781,-46.15"/>
</g>
<!-- c2a9a363&#45;8ad5&#45;4c1c&#45;af36&#45;bbf1da754f63&#45;&gt;end -->
<g id="edge9" class="edge">
<title>c2a9a363&#45;8ad5&#45;4c1c&#45;af36&#45;bbf1da754f63&#45;&gt;end</title>
<path fill="none" stroke="black" d="M1198.41,-99.87C1217.53,-99.87 1234.31,-99.87 1244.65,-99.87"/>
<polygon fill="black" stroke="black" points="1244.85,-103.37 1254.85,-99.87 1244.85,-96.37 1244.85,-103.37"/>
<text text-anchor="middle" x="1226.48" y="-106.67" font-family="Helvetica,sans-Serif" font-size="14.00">Finish</text>
</g>
<!-- a1297533&#45;a9de&#45;4794&#45;881f&#45;5834a7dd539d -->
<g id="node10" class="node">
<title>a1297533&#45;a9de&#45;4794&#45;881f&#45;5834a7dd539d</title>
<polygon fill="white" stroke="black" points="1273,-36 944,-36 944,0 1273,0 1273,-36"/>
<text text-anchor="middle" x="1108.5" y="-14.3" font-family="Helvetica,sans-Serif" font-size="14.00">▶ Ran sandbox for `ultra_type/controller.py`.</text>
</g>
<!-- c2a9a363&#45;8ad5&#45;4c1c&#45;af36&#45;bbf1da754f63&#45;&gt;a1297533&#45;a9de&#45;4794&#45;881f&#45;5834a7dd539d -->
<g id="edge7" class="edge">
<title>c2a9a363&#45;8ad5&#45;4c1c&#45;af36&#45;bbf1da754f63&#45;&gt;a1297533&#45;a9de&#45;4794&#45;881f&#45;5834a7dd539d</title>
<path fill="none" stroke="black" stroke-dasharray="5,2" d="M1084.96,-72.72C1088.78,-63.99 1093.05,-54.26 1096.88,-45.51"/>
<polygon fill="black" stroke="black" points="1100.18,-46.71 1100.99,-36.15 1093.77,-43.9 1100.18,-46.71"/>
</g>
</g>
</svg>
