<?xml version="1.0" encoding="UTF-8" standalone="no"?>
<!DOCTYPE svg PUBLIC "-//W3C//DTD SVG 1.1//EN"
 "http://www.w3.org/Graphics/SVG/1.1/DTD/svg11.dtd">
<!-- Generated by graphviz version 2.43.0 (0)
 -->
<!-- Title: %3 Pages: 1 -->
<svg width="431pt" height="165pt"
 viewBox="0.00 0.00 431.00 164.74" xmlns="http://www.w3.org/2000/svg" xmlns:xlink="http://www.w3.org/1999/xlink">
<g id="graph0" class="graph" transform="scale(1 1) rotate(0) translate(36 128.74)">
<title>%3</title>
<polygon fill="dimgray" stroke="transparent" points="-36,36 -36,-128.74 395,-128.74 395,36 -36,36"/>
<text text-anchor="middle" x="179.5" y="-77.54" font-family="Helvetica,sans-Serif" font-size="14.00">Sweep&#39;s Plan &amp; Progress</text>
<!-- start -->
<g id="node1" class="node">
<title>start</title>
</g>
<!-- 4f353782&#45;6f27&#45;4790&#45;bba8&#45;10dd2f76aa63 -->
<g id="node3" class="node">
<title>4f353782&#45;6f27&#45;4790&#45;bba8&#45;10dd2f76aa63</title>
<ellipse fill="yellow" stroke="black" cx="176.5" cy="-26.87" rx="124.4" ry="26.74"/>
<text text-anchor="middle" x="176.5" y="-30.67" font-family="Helvetica,sans-Serif" font-size="14.00">⋯ Modify</text>
<text text-anchor="middle" x="176.5" y="-15.67" font-family="Helvetica,sans-Serif" font-size="14.00">ultra_type/controller.py</text>
</g>
<!-- start&#45;&gt;4f353782&#45;6f27&#45;4790&#45;bba8&#45;10dd2f76aa63 -->
<g id="edge1" class="edge">
<title>start&#45;&gt;4f353782&#45;6f27&#45;4790&#45;bba8&#45;10dd2f76aa63</title>
<path fill="none" stroke="black" d="M1,-26.87C4.01,-26.87 20.16,-26.87 41.54,-26.87"/>
<polygon fill="black" stroke="black" points="41.7,-30.37 51.7,-26.87 41.7,-23.37 41.7,-30.37"/>
<text text-anchor="middle" x="26.52" y="-33.67" font-family="Helvetica,sans-Serif" font-size="14.00">Start</text>
</g>
<!-- end -->
<g id="node2" class="node">
<title>end</title>
</g>
<!-- 4f353782&#45;6f27&#45;4790&#45;bba8&#45;10dd2f76aa63&#45;&gt;end -->
<g id="edge2" class="edge">
<title>4f353782&#45;6f27&#45;4790&#45;bba8&#45;10dd2f76aa63&#45;&gt;end</title>
<path fill="none" stroke="black" d="M301.41,-26.87C320.53,-26.87 337.31,-26.87 347.65,-26.87"/>
<polygon fill="black" stroke="black" points="347.85,-30.37 357.85,-26.87 347.85,-23.37 347.85,-30.37"/>
<text text-anchor="middle" x="329.48" y="-33.67" font-family="Helvetica,sans-Serif" font-size="14.00">Finish</text>
</g>
</g>
</svg>
