<?xml version="1.0" encoding="UTF-8" standalone="no"?>
<!DOCTYPE svg PUBLIC "-//W3C//DTD SVG 1.1//EN"
 "http://www.w3.org/Graphics/SVG/1.1/DTD/svg11.dtd">
<!-- Generated by graphviz version 2.43.0 (0)
 -->
<!-- Title: %3 Pages: 1 -->
<svg width="774pt" height="415pt"
 viewBox="0.00 0.00 773.50 415.48" xmlns="http://www.w3.org/2000/svg" xmlns:xlink="http://www.w3.org/1999/xlink">
<g id="graph0" class="graph" transform="scale(1 1) rotate(0) translate(36 379.48)">
<title>%3</title>
<polygon fill="dimgray" stroke="transparent" points="-36,36 -36,-379.48 737.5,-379.48 737.5,36 -36,36"/>
<text text-anchor="middle" x="350.75" y="-328.28" font-family="Helvetica,sans-Serif" font-size="14.00">Sweep&#39;s Plan &amp; Progress</text>
<!-- start -->
<g id="node1" class="node">
<title>start</title>
</g>
<!-- f5ea5bc9&#45;4085&#45;41b4&#45;a9ef&#45;36f6ebaf64cd -->
<g id="node3" class="node">
<title>f5ea5bc9&#45;4085&#45;41b4&#45;a9ef&#45;36f6ebaf64cd</title>
<ellipse fill="#0ee832" stroke="black" cx="435" cy="-277.61" rx="132.87" ry="26.74"/>
<text text-anchor="middle" x="435" y="-281.41" font-family="Helvetica,sans-Serif" font-size="14.00">✓ Test</text>
<text text-anchor="middle" x="435" y="-266.41" font-family="Helvetica,sans-Serif" font-size="14.00">ultra_type/test_model.py</text>
</g>
<!-- start&#45;&gt;f5ea5bc9&#45;4085&#45;41b4&#45;a9ef&#45;36f6ebaf64cd -->
<g id="edge5" class="edge">
<title>start&#45;&gt;f5ea5bc9&#45;4085&#45;41b4&#45;a9ef&#45;36f6ebaf64cd</title>
<path fill="none" stroke="black" d="M250.53,-277.61C253.63,-277.61 270.03,-277.61 291.87,-277.61"/>
<polygon fill="black" stroke="black" points="291.9,-281.11 301.9,-277.61 291.9,-274.11 291.9,-281.11"/>
<text text-anchor="middle" x="276.28" y="-284.41" font-family="Helvetica,sans-Serif" font-size="14.00">Start</text>
</g>
<!-- end -->
<g id="node2" class="node">
<title>end</title>
</g>
<!-- f5ea5bc9&#45;4085&#45;41b4&#45;a9ef&#45;36f6ebaf64cd&#45;&gt;end -->
<g id="edge6" class="edge">
<title>f5ea5bc9&#45;4085&#45;41b4&#45;a9ef&#45;36f6ebaf64cd&#45;&gt;end</title>
<path fill="none" stroke="black" d="M568.18,-277.61C587.64,-277.61 604.62,-277.61 615.06,-277.61"/>
<polygon fill="black" stroke="black" points="615.34,-281.11 625.34,-277.61 615.34,-274.11 615.34,-281.11"/>
<text text-anchor="middle" x="596.72" y="-284.41" font-family="Helvetica,sans-Serif" font-size="14.00">Finish</text>
</g>
<!-- 4e4af3ca&#45;53d6&#45;4651&#45;b9e3&#45;c8b10128e5b9 -->
<g id="node4" class="node">
<title>4e4af3ca&#45;53d6&#45;4651&#45;b9e3&#45;c8b10128e5b9</title>
<polygon fill="#ee0000" stroke="black" points="342,-213.74 0,-213.74 0,-177.74 342,-177.74 342,-213.74"/>
<text text-anchor="middle" x="171" y="-192.04" font-family="Helvetica,sans-Serif" font-size="14.00">✗ Ran sandbox for `ultra_type/test_model.py`.</text>
</g>
<!-- f5ea5bc9&#45;4085&#45;41b4&#45;a9ef&#45;36f6ebaf64cd&#45;&gt;4e4af3ca&#45;53d6&#45;4651&#45;b9e3&#45;c8b10128e5b9 -->
<g id="edge1" class="edge">
<title>f5ea5bc9&#45;4085&#45;41b4&#45;a9ef&#45;36f6ebaf64cd&#45;&gt;4e4af3ca&#45;53d6&#45;4651&#45;b9e3&#45;c8b10128e5b9</title>
<path fill="none" stroke="black" stroke-dasharray="5,2" d="M363.21,-254.89C323.96,-243.02 275.68,-228.41 237.33,-216.81"/>
<polygon fill="black" stroke="black" points="237.88,-213.32 227.3,-213.77 235.85,-220.02 237.88,-213.32"/>
</g>
<!-- 11fab21a&#45;02e4&#45;4af4&#45;b694&#45;3e9c50b0cf18 -->
<g id="node5" class="node">
<title>11fab21a&#45;02e4&#45;4af4&#45;b694&#45;3e9c50b0cf18</title>
<polygon fill="white" stroke="black" points="701.5,-213.74 360.5,-213.74 360.5,-177.74 701.5,-177.74 701.5,-213.74"/>
<text text-anchor="middle" x="531" y="-192.04" font-family="Helvetica,sans-Serif" font-size="14.00">▶ Ran sandbox for `ultra_type/test_model.py`.</text>
</g>
<!-- f5ea5bc9&#45;4085&#45;41b4&#45;a9ef&#45;36f6ebaf64cd&#45;&gt;11fab21a&#45;02e4&#45;4af4&#45;b694&#45;3e9c50b0cf18 -->
<g id="edge4" class="edge">
<title>f5ea5bc9&#45;4085&#45;41b4&#45;a9ef&#45;36f6ebaf64cd&#45;&gt;11fab21a&#45;02e4&#45;4af4&#45;b694&#45;3e9c50b0cf18</title>
<path fill="none" stroke="black" stroke-dasharray="5,2" d="M465.38,-251.34C477.34,-241.39 490.99,-230.02 502.74,-220.25"/>
<polygon fill="black" stroke="black" points="505.07,-222.86 510.52,-213.78 500.6,-217.48 505.07,-222.86"/>
</g>
<!-- a819d13f&#45;387a&#45;49f8&#45;9a7c&#45;d1b2713e5f79 -->
<g id="node6" class="node">
<title>a819d13f&#45;387a&#45;49f8&#45;9a7c&#45;d1b2713e5f79</title>
<ellipse fill="yellow" stroke="black" cx="171" cy="-99.87" rx="132.87" ry="26.74"/>
<text text-anchor="middle" x="171" y="-103.67" font-family="Helvetica,sans-Serif" font-size="14.00">⋯ Modify</text>
<text text-anchor="middle" x="171" y="-88.67" font-family="Helvetica,sans-Serif" font-size="14.00">ultra_type/test_model.py</text>
</g>
<!-- 4e4af3ca&#45;53d6&#45;4651&#45;b9e3&#45;c8b10128e5b9&#45;&gt;a819d13f&#45;387a&#45;49f8&#45;9a7c&#45;d1b2713e5f79 -->
<g id="edge2" class="edge">
<title>4e4af3ca&#45;53d6&#45;4651&#45;b9e3&#45;c8b10128e5b9&#45;&gt;a819d13f&#45;387a&#45;49f8&#45;9a7c&#45;d1b2713e5f79</title>
<path fill="none" stroke="black" d="M171,-177.52C171,-166.22 171,-151.01 171,-137.12"/>
<polygon fill="black" stroke="black" points="174.5,-136.84 171,-126.84 167.5,-136.84 174.5,-136.84"/>
<text text-anchor="middle" x="268.5" y="-148.54" font-family="Helvetica,sans-Serif" font-size="14.00">Additional changes required</text>
</g>
<!-- 9e294d01&#45;47f0&#45;4adf&#45;a9f2&#45;fac5b69848c1 -->
<g id="node7" class="node">
<title>9e294d01&#45;47f0&#45;4adf&#45;a9f2&#45;fac5b69848c1</title>
<polygon fill="white" stroke="black" points="341.5,-36 0.5,-36 0.5,0 341.5,0 341.5,-36"/>
<text text-anchor="middle" x="171" y="-14.3" font-family="Helvetica,sans-Serif" font-size="14.00">▶ Ran sandbox for `ultra_type/test_model.py`.</text>
</g>
<!-- a819d13f&#45;387a&#45;49f8&#45;9a7c&#45;d1b2713e5f79&#45;&gt;9e294d01&#45;47f0&#45;4adf&#45;a9f2&#45;fac5b69848c1 -->
<g id="edge3" class="edge">
<title>a819d13f&#45;387a&#45;49f8&#45;9a7c&#45;d1b2713e5f79&#45;&gt;9e294d01&#45;47f0&#45;4adf&#45;a9f2&#45;fac5b69848c1</title>
<path fill="none" stroke="black" stroke-dasharray="5,2" d="M171,-72.72C171,-64.27 171,-54.89 171,-46.36"/>
<polygon fill="black" stroke="black" points="174.5,-46.15 171,-36.15 167.5,-46.15 174.5,-46.15"/>
</g>
</g>
</svg>
