<?xml version="1.0" encoding="UTF-8" standalone="no"?>
<!DOCTYPE svg PUBLIC "-//W3C//DTD SVG 1.1//EN"
 "http://www.w3.org/Graphics/SVG/1.1/DTD/svg11.dtd">
<!-- Generated by graphviz version 2.43.0 (0)
 -->
<!-- Title: %3 Pages: 1 -->
<svg width="449pt" height="238pt"
 viewBox="0.00 0.00 449.00 237.74" xmlns="http://www.w3.org/2000/svg" xmlns:xlink="http://www.w3.org/1999/xlink">
<g id="graph0" class="graph" transform="scale(1 1) rotate(0) translate(36 201.74)">
<title>%3</title>
<polygon fill="dimgray" stroke="transparent" points="-36,36 -36,-201.74 413,-201.74 413,36 -36,36"/>
<text text-anchor="middle" x="188.5" y="-150.54" font-family="Helvetica,sans-Serif" font-size="14.00">Sweep&#39;s Plan &amp; Progress</text>
<!-- start -->
<g id="node1" class="node">
<title>start</title>
</g>
<!-- 8f3d37b6&#45;aab9&#45;48ee&#45;adc3&#45;d222a03c862c -->
<g id="node3" class="node">
<title>8f3d37b6&#45;aab9&#45;48ee&#45;adc3&#45;d222a03c862c</title>
<ellipse fill="yellow" stroke="black" cx="185.5" cy="-99.87" rx="132.87" ry="26.74"/>
<text text-anchor="middle" x="185.5" y="-103.67" font-family="Helvetica,sans-Serif" font-size="14.00">⋯ Test</text>
<text text-anchor="middle" x="185.5" y="-88.67" font-family="Helvetica,sans-Serif" font-size="14.00">ultra_type/test_model.py</text>
</g>
<!-- start&#45;&gt;8f3d37b6&#45;aab9&#45;48ee&#45;adc3&#45;d222a03c862c -->
<g id="edge2" class="edge">
<title>start&#45;&gt;8f3d37b6&#45;aab9&#45;48ee&#45;adc3&#45;d222a03c862c</title>
<path fill="none" stroke="black" d="M1.03,-99.87C4.13,-99.87 20.53,-99.87 42.37,-99.87"/>
<polygon fill="black" stroke="black" points="42.4,-103.37 52.4,-99.87 42.4,-96.37 42.4,-103.37"/>
<text text-anchor="middle" x="26.78" y="-106.67" font-family="Helvetica,sans-Serif" font-size="14.00">Start</text>
</g>
<!-- end -->
<g id="node2" class="node">
<title>end</title>
</g>
<!-- 8f3d37b6&#45;aab9&#45;48ee&#45;adc3&#45;d222a03c862c&#45;&gt;end -->
<g id="edge3" class="edge">
<title>8f3d37b6&#45;aab9&#45;48ee&#45;adc3&#45;d222a03c862c&#45;&gt;end</title>
<path fill="none" stroke="black" d="M318.68,-99.87C338.14,-99.87 355.12,-99.87 365.56,-99.87"/>
<polygon fill="black" stroke="black" points="365.84,-103.37 375.84,-99.87 365.84,-96.37 365.84,-103.37"/>
<text text-anchor="middle" x="347.22" y="-106.67" font-family="Helvetica,sans-Serif" font-size="14.00">Finish</text>
</g>
<!-- 7a7de3b8&#45;2ad3&#45;4fd9&#45;99ac&#45;c2633676c63a -->
<g id="node4" class="node">
<title>7a7de3b8&#45;2ad3&#45;4fd9&#45;99ac&#45;c2633676c63a</title>
<polygon fill="white" stroke="black" points="356,-36 15,-36 15,0 356,0 356,-36"/>
<text text-anchor="middle" x="185.5" y="-14.3" font-family="Helvetica,sans-Serif" font-size="14.00">▶ Ran sandbox for `ultra_type/test_model.py`.</text>
</g>
<!-- 8f3d37b6&#45;aab9&#45;48ee&#45;adc3&#45;d222a03c862c&#45;&gt;7a7de3b8&#45;2ad3&#45;4fd9&#45;99ac&#45;c2633676c63a -->
<g id="edge1" class="edge">
<title>8f3d37b6&#45;aab9&#45;48ee&#45;adc3&#45;d222a03c862c&#45;&gt;7a7de3b8&#45;2ad3&#45;4fd9&#45;99ac&#45;c2633676c63a</title>
<path fill="none" stroke="black" stroke-dasharray="5,2" d="M185.5,-72.72C185.5,-64.27 185.5,-54.89 185.5,-46.36"/>
<polygon fill="black" stroke="black" points="189,-46.15 185.5,-36.15 182,-46.15 189,-46.15"/>
</g>
</g>
</svg>
