<?xml version="1.0" encoding="UTF-8" standalone="no"?>
<!DOCTYPE svg PUBLIC "-//W3C//DTD SVG 1.1//EN"
 "http://www.w3.org/Graphics/SVG/1.1/DTD/svg11.dtd">
<!-- Generated by graphviz version 2.43.0 (0)
 -->
<!-- Title: %3 Pages: 1 -->
<svg width="1089pt" height="771pt"
 viewBox="0.00 0.00 1089.00 770.96" xmlns="http://www.w3.org/2000/svg" xmlns:xlink="http://www.w3.org/1999/xlink">
<g id="graph0" class="graph" transform="scale(1 1) rotate(0) translate(36 734.96)">
<title>%3</title>
<polygon fill="dimgray" stroke="transparent" points="-36,36 -36,-734.96 1053,-734.96 1053,36 -36,36"/>
<text text-anchor="middle" x="508.5" y="-683.76" font-family="Helvetica,sans-Serif" font-size="14.00">Sweep&#39;s Plan &amp; Progress</text>
<!-- start -->
<g id="node1" class="node">
<title>start</title>
</g>
<!-- 4d1d7521&#45;f501&#45;42c6&#45;bd33&#45;c3a0dbbbba96 -->
<g id="node3" class="node">
<title>4d1d7521&#45;f501&#45;42c6&#45;bd33&#45;c3a0dbbbba96</title>
<ellipse fill="#0ee832" stroke="black" cx="761" cy="-633.09" rx="123.07" ry="26.74"/>
<text text-anchor="middle" x="761" y="-636.89" font-family="Helvetica,sans-Serif" font-size="14.00">✓ Test</text>
<text text-anchor="middle" x="761" y="-621.89" font-family="Helvetica,sans-Serif" font-size="14.00">tests/test_language.py</text>
</g>
<!-- start&#45;&gt;4d1d7521&#45;f501&#45;42c6&#45;bd33&#45;c3a0dbbbba96 -->
<g id="edge11" class="edge">
<title>start&#45;&gt;4d1d7521&#45;f501&#45;42c6&#45;bd33&#45;c3a0dbbbba96</title>
<path fill="none" stroke="black" d="M586.5,-633.09C589.53,-633.09 605.92,-633.09 627.55,-633.09"/>
<polygon fill="black" stroke="black" points="627.83,-636.59 637.83,-633.09 627.82,-629.59 627.83,-636.59"/>
<text text-anchor="middle" x="612.23" y="-639.89" font-family="Helvetica,sans-Serif" font-size="14.00">Start</text>
</g>
<!-- end -->
<g id="node2" class="node">
<title>end</title>
</g>
<!-- 4d1d7521&#45;f501&#45;42c6&#45;bd33&#45;c3a0dbbbba96&#45;&gt;end -->
<g id="edge12" class="edge">
<title>4d1d7521&#45;f501&#45;42c6&#45;bd33&#45;c3a0dbbbba96&#45;&gt;end</title>
<path fill="none" stroke="black" d="M884.23,-633.09C903.52,-633.09 920.51,-633.09 930.99,-633.09"/>
<polygon fill="black" stroke="black" points="931.34,-636.59 941.34,-633.09 931.34,-629.59 931.34,-636.59"/>
<text text-anchor="middle" x="912.77" y="-639.89" font-family="Helvetica,sans-Serif" font-size="14.00">Finish</text>
</g>
<!-- 5a5c560f&#45;dd1d&#45;4b40&#45;92c9&#45;e62c07f9f4f4 -->
<g id="node4" class="node">
<title>5a5c560f&#45;dd1d&#45;4b40&#45;92c9&#45;e62c07f9f4f4</title>
<polygon fill="#ee0000" stroke="black" points="673,-569.22 345,-569.22 345,-533.22 673,-533.22 673,-569.22"/>
<text text-anchor="middle" x="509" y="-547.52" font-family="Helvetica,sans-Serif" font-size="14.00">✗ Ran sandbox for `tests/test_language.py`.</text>
</g>
<!-- 4d1d7521&#45;f501&#45;42c6&#45;bd33&#45;c3a0dbbbba96&#45;&gt;5a5c560f&#45;dd1d&#45;4b40&#45;92c9&#45;e62c07f9f4f4 -->
<g id="edge1" class="edge">
<title>4d1d7521&#45;f501&#45;42c6&#45;bd33&#45;c3a0dbbbba96&#45;&gt;5a5c560f&#45;dd1d&#45;4b40&#45;92c9&#45;e62c07f9f4f4</title>
<path fill="none" stroke="black" stroke-dasharray="5,2" d="M693.14,-610.58C655.67,-598.71 609.41,-584.05 572.64,-572.39"/>
<polygon fill="black" stroke="black" points="573.61,-569.03 563.02,-569.34 571.49,-575.7 573.61,-569.03"/>
</g>
<!-- 1fe8182a&#45;1d46&#45;40d9&#45;94f5&#45;fba7098bb560 -->
<g id="node5" class="node">
<title>1fe8182a&#45;1d46&#45;40d9&#45;94f5&#45;fba7098bb560</title>
<polygon fill="white" stroke="black" points="1017,-569.22 691,-569.22 691,-533.22 1017,-533.22 1017,-569.22"/>
<text text-anchor="middle" x="854" y="-547.52" font-family="Helvetica,sans-Serif" font-size="14.00">▶ Ran sandbox for `tests/test_language.py`.</text>
</g>
<!-- 4d1d7521&#45;f501&#45;42c6&#45;bd33&#45;c3a0dbbbba96&#45;&gt;1fe8182a&#45;1d46&#45;40d9&#45;94f5&#45;fba7098bb560 -->
<g id="edge10" class="edge">
<title>4d1d7521&#45;f501&#45;42c6&#45;bd33&#45;c3a0dbbbba96&#45;&gt;1fe8182a&#45;1d46&#45;40d9&#45;94f5&#45;fba7098bb560</title>
<path fill="none" stroke="black" stroke-dasharray="5,2" d="M790.43,-606.82C801.9,-596.96 814.99,-585.72 826.29,-576.01"/>
<polygon fill="black" stroke="black" points="828.86,-578.43 834.16,-569.26 824.3,-573.12 828.86,-578.43"/>
</g>
<!-- 0667abdc&#45;86c4&#45;4844&#45;b023&#45;3305b20c6392 -->
<g id="node6" class="node">
<title>0667abdc&#45;86c4&#45;4844&#45;b023&#45;3305b20c6392</title>
<ellipse fill="#0ee832" stroke="black" cx="509" cy="-455.35" rx="123.07" ry="26.74"/>
<text text-anchor="middle" x="509" y="-459.15" font-family="Helvetica,sans-Serif" font-size="14.00">✓ Modify</text>
<text text-anchor="middle" x="509" y="-444.15" font-family="Helvetica,sans-Serif" font-size="14.00">tests/test_language.py</text>
</g>
<!-- 5a5c560f&#45;dd1d&#45;4b40&#45;92c9&#45;e62c07f9f4f4&#45;&gt;0667abdc&#45;86c4&#45;4844&#45;b023&#45;3305b20c6392 -->
<g id="edge2" class="edge">
<title>5a5c560f&#45;dd1d&#45;4b40&#45;92c9&#45;e62c07f9f4f4&#45;&gt;0667abdc&#45;86c4&#45;4844&#45;b023&#45;3305b20c6392</title>
<path fill="none" stroke="black" d="M509,-533C509,-521.7 509,-506.49 509,-492.6"/>
<polygon fill="black" stroke="black" points="512.5,-492.32 509,-482.32 505.5,-492.32 512.5,-492.32"/>
<text text-anchor="middle" x="606.5" y="-504.02" font-family="Helvetica,sans-Serif" font-size="14.00">Additional changes required</text>
</g>
<!-- b0ec629c&#45;6ebe&#45;4ccf&#45;9984&#45;5b96cd3688d9 -->
<g id="node7" class="node">
<title>b0ec629c&#45;6ebe&#45;4ccf&#45;9984&#45;5b96cd3688d9</title>
<polygon fill="#ee0000" stroke="black" points="501,-391.48 173,-391.48 173,-355.48 501,-355.48 501,-391.48"/>
<text text-anchor="middle" x="337" y="-369.78" font-family="Helvetica,sans-Serif" font-size="14.00">✗ Ran sandbox for `tests/test_language.py`.</text>
</g>
<!-- 0667abdc&#45;86c4&#45;4844&#45;b023&#45;3305b20c6392&#45;&gt;b0ec629c&#45;6ebe&#45;4ccf&#45;9984&#45;5b96cd3688d9 -->
<g id="edge3" class="edge">
<title>0667abdc&#45;86c4&#45;4844&#45;b023&#45;3305b20c6392&#45;&gt;b0ec629c&#45;6ebe&#45;4ccf&#45;9984&#45;5b96cd3688d9</title>
<path fill="none" stroke="black" stroke-dasharray="5,2" d="M458.32,-430.82C434.46,-419.74 406.21,-406.62 382.97,-395.83"/>
<polygon fill="black" stroke="black" points="384.22,-392.55 373.67,-391.51 381.27,-398.9 384.22,-392.55"/>
</g>
<!-- 4e25966d&#45;90ce&#45;411f&#45;9519&#45;710b8d29ff93 -->
<g id="node8" class="node">
<title>4e25966d&#45;90ce&#45;411f&#45;9519&#45;710b8d29ff93</title>
<polygon fill="white" stroke="black" points="845,-391.48 519,-391.48 519,-355.48 845,-355.48 845,-391.48"/>
<text text-anchor="middle" x="682" y="-369.78" font-family="Helvetica,sans-Serif" font-size="14.00">▶ Ran sandbox for `tests/test_language.py`.</text>
</g>
<!-- 0667abdc&#45;86c4&#45;4844&#45;b023&#45;3305b20c6392&#45;&gt;4e25966d&#45;90ce&#45;411f&#45;9519&#45;710b8d29ff93 -->
<g id="edge9" class="edge">
<title>0667abdc&#45;86c4&#45;4844&#45;b023&#45;3305b20c6392&#45;&gt;4e25966d&#45;90ce&#45;411f&#45;9519&#45;710b8d29ff93</title>
<path fill="none" stroke="black" stroke-dasharray="5,2" d="M559.97,-430.82C583.97,-419.74 612.39,-406.62 635.76,-395.83"/>
<polygon fill="black" stroke="black" points="637.5,-398.88 645.11,-391.51 634.57,-392.52 637.5,-398.88"/>
</g>
<!-- 6f913ec6&#45;6f7a&#45;411a&#45;92a0&#45;0fcaeb1cabb6 -->
<g id="node9" class="node">
<title>6f913ec6&#45;6f7a&#45;411a&#45;92a0&#45;0fcaeb1cabb6</title>
<ellipse fill="#0ee832" stroke="black" cx="337" cy="-277.61" rx="123.07" ry="26.74"/>
<text text-anchor="middle" x="337" y="-281.41" font-family="Helvetica,sans-Serif" font-size="14.00">✓ Modify</text>
<text text-anchor="middle" x="337" y="-266.41" font-family="Helvetica,sans-Serif" font-size="14.00">tests/test_language.py</text>
</g>
<!-- b0ec629c&#45;6ebe&#45;4ccf&#45;9984&#45;5b96cd3688d9&#45;&gt;6f913ec6&#45;6f7a&#45;411a&#45;92a0&#45;0fcaeb1cabb6 -->
<g id="edge4" class="edge">
<title>b0ec629c&#45;6ebe&#45;4ccf&#45;9984&#45;5b96cd3688d9&#45;&gt;6f913ec6&#45;6f7a&#45;411a&#45;92a0&#45;0fcaeb1cabb6</title>
<path fill="none" stroke="black" d="M337,-355.26C337,-343.96 337,-328.75 337,-314.86"/>
<polygon fill="black" stroke="black" points="340.5,-314.58 337,-304.58 333.5,-314.58 340.5,-314.58"/>
<text text-anchor="middle" x="434.5" y="-326.28" font-family="Helvetica,sans-Serif" font-size="14.00">Additional changes required</text>
</g>
<!-- 52eb852d&#45;46ce&#45;42df&#45;a449&#45;3fb71f5bfef7 -->
<g id="node10" class="node">
<title>52eb852d&#45;46ce&#45;42df&#45;a449&#45;3fb71f5bfef7</title>
<polygon fill="#ee0000" stroke="black" points="328,-213.74 0,-213.74 0,-177.74 328,-177.74 328,-213.74"/>
<text text-anchor="middle" x="164" y="-192.04" font-family="Helvetica,sans-Serif" font-size="14.00">✗ Ran sandbox for `tests/test_language.py`.</text>
</g>
<!-- 6f913ec6&#45;6f7a&#45;411a&#45;92a0&#45;0fcaeb1cabb6&#45;&gt;52eb852d&#45;46ce&#45;42df&#45;a449&#45;3fb71f5bfef7 -->
<g id="edge5" class="edge">
<title>6f913ec6&#45;6f7a&#45;411a&#45;92a0&#45;0fcaeb1cabb6&#45;&gt;52eb852d&#45;46ce&#45;42df&#45;a449&#45;3fb71f5bfef7</title>
<path fill="none" stroke="black" stroke-dasharray="5,2" d="M286.03,-253.08C262.03,-242 233.61,-228.88 210.24,-218.09"/>
<polygon fill="black" stroke="black" points="211.43,-214.78 200.89,-213.77 208.5,-221.14 211.43,-214.78"/>
</g>
<!-- 36047819&#45;a23f&#45;4e3f&#45;936a&#45;821efba8ca96 -->
<g id="node11" class="node">
<title>36047819&#45;a23f&#45;4e3f&#45;936a&#45;821efba8ca96</title>
<polygon fill="yellow" stroke="black" points="676,-213.74 346,-213.74 346,-177.74 676,-177.74 676,-213.74"/>
<text text-anchor="middle" x="511" y="-192.04" font-family="Helvetica,sans-Serif" font-size="14.00">⋯ Ran sandbox for `tests/test_language.py`.</text>
</g>
<!-- 6f913ec6&#45;6f7a&#45;411a&#45;92a0&#45;0fcaeb1cabb6&#45;&gt;36047819&#45;a23f&#45;4e3f&#45;936a&#45;821efba8ca96 -->
<g id="edge8" class="edge">
<title>6f913ec6&#45;6f7a&#45;411a&#45;92a0&#45;0fcaeb1cabb6&#45;&gt;36047819&#45;a23f&#45;4e3f&#45;936a&#45;821efba8ca96</title>
<path fill="none" stroke="black" stroke-dasharray="5,2" d="M388.26,-253.08C412.51,-241.95 441.24,-228.76 464.81,-217.94"/>
<polygon fill="black" stroke="black" points="466.27,-221.12 473.9,-213.77 463.35,-214.76 466.27,-221.12"/>
</g>
<!-- 4d3061d4&#45;6af1&#45;4cf6&#45;9df6&#45;84097ebd1170 -->
<g id="node12" class="node">
<title>4d3061d4&#45;6af1&#45;4cf6&#45;9df6&#45;84097ebd1170</title>
<ellipse fill="#0ee832" stroke="black" cx="164" cy="-99.87" rx="123.07" ry="26.74"/>
<text text-anchor="middle" x="164" y="-103.67" font-family="Helvetica,sans-Serif" font-size="14.00">✓ Modify</text>
<text text-anchor="middle" x="164" y="-88.67" font-family="Helvetica,sans-Serif" font-size="14.00">tests/test_language.py</text>
</g>
<!-- 52eb852d&#45;46ce&#45;42df&#45;a449&#45;3fb71f5bfef7&#45;&gt;4d3061d4&#45;6af1&#45;4cf6&#45;9df6&#45;84097ebd1170 -->
<g id="edge6" class="edge">
<title>52eb852d&#45;46ce&#45;42df&#45;a449&#45;3fb71f5bfef7&#45;&gt;4d3061d4&#45;6af1&#45;4cf6&#45;9df6&#45;84097ebd1170</title>
<path fill="none" stroke="black" d="M164,-177.52C164,-166.22 164,-151.01 164,-137.12"/>
<polygon fill="black" stroke="black" points="167.5,-136.84 164,-126.84 160.5,-136.84 167.5,-136.84"/>
<text text-anchor="middle" x="261.5" y="-148.54" font-family="Helvetica,sans-Serif" font-size="14.00">Additional changes required</text>
</g>
<!-- 9c5c8183&#45;bb2c&#45;4889&#45;9c52&#45;c30b28d7a507 -->
<g id="node13" class="node">
<title>9c5c8183&#45;bb2c&#45;4889&#45;9c52&#45;c30b28d7a507</title>
<polygon fill="#0ee832" stroke="black" points="328,-36 0,-36 0,0 328,0 328,-36"/>
<text text-anchor="middle" x="164" y="-14.3" font-family="Helvetica,sans-Serif" font-size="14.00">✓ Ran sandbox for `tests/test_language.py`.</text>
</g>
<!-- 4d3061d4&#45;6af1&#45;4cf6&#45;9df6&#45;84097ebd1170&#45;&gt;9c5c8183&#45;bb2c&#45;4889&#45;9c52&#45;c30b28d7a507 -->
<g id="edge7" class="edge">
<title>4d3061d4&#45;6af1&#45;4cf6&#45;9df6&#45;84097ebd1170&#45;&gt;9c5c8183&#45;bb2c&#45;4889&#45;9c52&#45;c30b28d7a507</title>
<path fill="none" stroke="black" stroke-dasharray="5,2" d="M164,-72.72C164,-64.27 164,-54.89 164,-46.36"/>
<polygon fill="black" stroke="black" points="167.5,-46.15 164,-36.15 160.5,-46.15 167.5,-46.15"/>
</g>
</g>
</svg>
