<?xml version="1.0" encoding="UTF-8" standalone="no"?>
<!DOCTYPE svg PUBLIC "-//W3C//DTD SVG 1.1//EN"
 "http://www.w3.org/Graphics/SVG/1.1/DTD/svg11.dtd">
<!-- Generated by graphviz version 2.43.0 (0)
 -->
<!-- Title: %3 Pages: 1 -->
<svg width="916pt" height="593pt"
 viewBox="0.00 0.00 916.00 593.22" xmlns="http://www.w3.org/2000/svg" xmlns:xlink="http://www.w3.org/1999/xlink">
<g id="graph0" class="graph" transform="scale(1 1) rotate(0) translate(36 557.22)">
<title>%3</title>
<polygon fill="dimgray" stroke="transparent" points="-36,36 -36,-557.22 880,-557.22 880,36 -36,36"/>
<text text-anchor="middle" x="422" y="-506.02" font-family="Helvetica,sans-Serif" font-size="14.00">Sweep&#39;s Plan &amp; Progress</text>
<!-- start -->
<g id="node1" class="node">
<title>start</title>
</g>
<!-- 825b5458&#45;bc60&#45;494f&#45;ae44&#45;16dd87cbad68 -->
<g id="node3" class="node">
<title>825b5458&#45;bc60&#45;494f&#45;ae44&#45;16dd87cbad68</title>
<ellipse fill="#0ee832" stroke="black" cx="588" cy="-455.35" rx="123.07" ry="26.74"/>
<text text-anchor="middle" x="588" y="-459.15" font-family="Helvetica,sans-Serif" font-size="14.00">✓ Test</text>
<text text-anchor="middle" x="588" y="-444.15" font-family="Helvetica,sans-Serif" font-size="14.00">tests/test_language.py</text>
</g>
<!-- start&#45;&gt;825b5458&#45;bc60&#45;494f&#45;ae44&#45;16dd87cbad68 -->
<g id="edge8" class="edge">
<title>start&#45;&gt;825b5458&#45;bc60&#45;494f&#45;ae44&#45;16dd87cbad68</title>
<path fill="none" stroke="black" d="M413.5,-455.35C416.53,-455.35 432.92,-455.35 454.55,-455.35"/>
<polygon fill="black" stroke="black" points="454.82,-458.85 464.83,-455.35 454.83,-451.85 454.82,-458.85"/>
<text text-anchor="middle" x="439.23" y="-462.15" font-family="Helvetica,sans-Serif" font-size="14.00">Start</text>
</g>
<!-- end -->
<g id="node2" class="node">
<title>end</title>
</g>
<!-- 825b5458&#45;bc60&#45;494f&#45;ae44&#45;16dd87cbad68&#45;&gt;end -->
<g id="edge9" class="edge">
<title>825b5458&#45;bc60&#45;494f&#45;ae44&#45;16dd87cbad68&#45;&gt;end</title>
<path fill="none" stroke="black" d="M711.23,-455.35C730.52,-455.35 747.51,-455.35 757.99,-455.35"/>
<polygon fill="black" stroke="black" points="758.34,-458.85 768.34,-455.35 758.34,-451.85 758.34,-458.85"/>
<text text-anchor="middle" x="739.77" y="-462.15" font-family="Helvetica,sans-Serif" font-size="14.00">Finish</text>
</g>
<!-- f1f8e6e3&#45;53a3&#45;4f1f&#45;867f&#45;354664e0835f -->
<g id="node4" class="node">
<title>f1f8e6e3&#45;53a3&#45;4f1f&#45;867f&#45;354664e0835f</title>
<polygon fill="#ee0000" stroke="black" points="500,-391.48 172,-391.48 172,-355.48 500,-355.48 500,-391.48"/>
<text text-anchor="middle" x="336" y="-369.78" font-family="Helvetica,sans-Serif" font-size="14.00">✗ Ran sandbox for `tests/test_language.py`.</text>
</g>
<!-- 825b5458&#45;bc60&#45;494f&#45;ae44&#45;16dd87cbad68&#45;&gt;f1f8e6e3&#45;53a3&#45;4f1f&#45;867f&#45;354664e0835f -->
<g id="edge1" class="edge">
<title>825b5458&#45;bc60&#45;494f&#45;ae44&#45;16dd87cbad68&#45;&gt;f1f8e6e3&#45;53a3&#45;4f1f&#45;867f&#45;354664e0835f</title>
<path fill="none" stroke="black" stroke-dasharray="5,2" d="M520.14,-432.84C482.67,-420.97 436.41,-406.31 399.64,-394.65"/>
<polygon fill="black" stroke="black" points="400.61,-391.29 390.02,-391.6 398.49,-397.96 400.61,-391.29"/>
</g>
<!-- 88533ac2&#45;292c&#45;495c&#45;bbd5&#45;20f52b229fc0 -->
<g id="node5" class="node">
<title>88533ac2&#45;292c&#45;495c&#45;bbd5&#45;20f52b229fc0</title>
<polygon fill="white" stroke="black" points="844,-391.48 518,-391.48 518,-355.48 844,-355.48 844,-391.48"/>
<text text-anchor="middle" x="681" y="-369.78" font-family="Helvetica,sans-Serif" font-size="14.00">▶ Ran sandbox for `tests/test_language.py`.</text>
</g>
<!-- 825b5458&#45;bc60&#45;494f&#45;ae44&#45;16dd87cbad68&#45;&gt;88533ac2&#45;292c&#45;495c&#45;bbd5&#45;20f52b229fc0 -->
<g id="edge7" class="edge">
<title>825b5458&#45;bc60&#45;494f&#45;ae44&#45;16dd87cbad68&#45;&gt;88533ac2&#45;292c&#45;495c&#45;bbd5&#45;20f52b229fc0</title>
<path fill="none" stroke="black" stroke-dasharray="5,2" d="M617.43,-429.08C628.9,-419.22 641.99,-407.98 653.29,-398.27"/>
<polygon fill="black" stroke="black" points="655.86,-400.69 661.16,-391.52 651.3,-395.38 655.86,-400.69"/>
</g>
<!-- 773c02e7&#45;5dba&#45;405f&#45;9755&#45;521ff0b7390e -->
<g id="node6" class="node">
<title>773c02e7&#45;5dba&#45;405f&#45;9755&#45;521ff0b7390e</title>
<ellipse fill="#0ee832" stroke="black" cx="336" cy="-277.61" rx="123.07" ry="26.74"/>
<text text-anchor="middle" x="336" y="-281.41" font-family="Helvetica,sans-Serif" font-size="14.00">✓ Modify</text>
<text text-anchor="middle" x="336" y="-266.41" font-family="Helvetica,sans-Serif" font-size="14.00">tests/test_language.py</text>
</g>
<!-- f1f8e6e3&#45;53a3&#45;4f1f&#45;867f&#45;354664e0835f&#45;&gt;773c02e7&#45;5dba&#45;405f&#45;9755&#45;521ff0b7390e -->
<g id="edge2" class="edge">
<title>f1f8e6e3&#45;53a3&#45;4f1f&#45;867f&#45;354664e0835f&#45;&gt;773c02e7&#45;5dba&#45;405f&#45;9755&#45;521ff0b7390e</title>
<path fill="none" stroke="black" d="M336,-355.26C336,-343.96 336,-328.75 336,-314.86"/>
<polygon fill="black" stroke="black" points="339.5,-314.58 336,-304.58 332.5,-314.58 339.5,-314.58"/>
<text text-anchor="middle" x="433.5" y="-326.28" font-family="Helvetica,sans-Serif" font-size="14.00">Additional changes required</text>
</g>
<!-- 479c8a26&#45;92e5&#45;4d2d&#45;bdba&#45;e55d1e90d480 -->
<g id="node7" class="node">
<title>479c8a26&#45;92e5&#45;4d2d&#45;bdba&#45;e55d1e90d480</title>
<polygon fill="#ee0000" stroke="black" points="328,-213.74 0,-213.74 0,-177.74 328,-177.74 328,-213.74"/>
<text text-anchor="middle" x="164" y="-192.04" font-family="Helvetica,sans-Serif" font-size="14.00">✗ Ran sandbox for `tests/test_language.py`.</text>
</g>
<!-- 773c02e7&#45;5dba&#45;405f&#45;9755&#45;521ff0b7390e&#45;&gt;479c8a26&#45;92e5&#45;4d2d&#45;bdba&#45;e55d1e90d480 -->
<g id="edge3" class="edge">
<title>773c02e7&#45;5dba&#45;405f&#45;9755&#45;521ff0b7390e&#45;&gt;479c8a26&#45;92e5&#45;4d2d&#45;bdba&#45;e55d1e90d480</title>
<path fill="none" stroke="black" stroke-dasharray="5,2" d="M285.32,-253.08C261.46,-242 233.21,-228.88 209.97,-218.09"/>
<polygon fill="black" stroke="black" points="211.22,-214.81 200.67,-213.77 208.27,-221.16 211.22,-214.81"/>
</g>
<!-- f1fa4d9c&#45;0490&#45;4e9a&#45;83d6&#45;420ceb1e695c -->
<g id="node8" class="node">
<title>f1fa4d9c&#45;0490&#45;4e9a&#45;83d6&#45;420ceb1e695c</title>
<polygon fill="white" stroke="black" points="672,-213.74 346,-213.74 346,-177.74 672,-177.74 672,-213.74"/>
<text text-anchor="middle" x="509" y="-192.04" font-family="Helvetica,sans-Serif" font-size="14.00">▶ Ran sandbox for `tests/test_language.py`.</text>
</g>
<!-- 773c02e7&#45;5dba&#45;405f&#45;9755&#45;521ff0b7390e&#45;&gt;f1fa4d9c&#45;0490&#45;4e9a&#45;83d6&#45;420ceb1e695c -->
<g id="edge6" class="edge">
<title>773c02e7&#45;5dba&#45;405f&#45;9755&#45;521ff0b7390e&#45;&gt;f1fa4d9c&#45;0490&#45;4e9a&#45;83d6&#45;420ceb1e695c</title>
<path fill="none" stroke="black" stroke-dasharray="5,2" d="M386.97,-253.08C410.97,-242 439.39,-228.88 462.76,-218.09"/>
<polygon fill="black" stroke="black" points="464.5,-221.14 472.11,-213.77 461.57,-214.78 464.5,-221.14"/>
</g>
<!-- 1e61f4df&#45;cb4e&#45;4651&#45;ab32&#45;39f1e83fdc00 -->
<g id="node9" class="node">
<title>1e61f4df&#45;cb4e&#45;4651&#45;ab32&#45;39f1e83fdc00</title>
<ellipse fill="yellow" stroke="black" cx="164" cy="-99.87" rx="123.07" ry="26.74"/>
<text text-anchor="middle" x="164" y="-103.67" font-family="Helvetica,sans-Serif" font-size="14.00">⋯ Modify</text>
<text text-anchor="middle" x="164" y="-88.67" font-family="Helvetica,sans-Serif" font-size="14.00">tests/test_language.py</text>
</g>
<!-- 479c8a26&#45;92e5&#45;4d2d&#45;bdba&#45;e55d1e90d480&#45;&gt;1e61f4df&#45;cb4e&#45;4651&#45;ab32&#45;39f1e83fdc00 -->
<g id="edge4" class="edge">
<title>479c8a26&#45;92e5&#45;4d2d&#45;bdba&#45;e55d1e90d480&#45;&gt;1e61f4df&#45;cb4e&#45;4651&#45;ab32&#45;39f1e83fdc00</title>
<path fill="none" stroke="black" d="M164,-177.52C164,-166.22 164,-151.01 164,-137.12"/>
<polygon fill="black" stroke="black" points="167.5,-136.84 164,-126.84 160.5,-136.84 167.5,-136.84"/>
<text text-anchor="middle" x="261.5" y="-148.54" font-family="Helvetica,sans-Serif" font-size="14.00">Additional changes required</text>
</g>
<!-- 7f25acda&#45;820c&#45;4a76&#45;ae0d&#45;95595037bdf9 -->
<g id="node10" class="node">
<title>7f25acda&#45;820c&#45;4a76&#45;ae0d&#45;95595037bdf9</title>
<polygon fill="white" stroke="black" points="327,-36 1,-36 1,0 327,0 327,-36"/>
<text text-anchor="middle" x="164" y="-14.3" font-family="Helvetica,sans-Serif" font-size="14.00">▶ Ran sandbox for `tests/test_language.py`.</text>
</g>
<!-- 1e61f4df&#45;cb4e&#45;4651&#45;ab32&#45;39f1e83fdc00&#45;&gt;7f25acda&#45;820c&#45;4a76&#45;ae0d&#45;95595037bdf9 -->
<g id="edge5" class="edge">
<title>1e61f4df&#45;cb4e&#45;4651&#45;ab32&#45;39f1e83fdc00&#45;&gt;7f25acda&#45;820c&#45;4a76&#45;ae0d&#45;95595037bdf9</title>
<path fill="none" stroke="black" stroke-dasharray="5,2" d="M164,-72.72C164,-64.27 164,-54.89 164,-46.36"/>
<polygon fill="black" stroke="black" points="167.5,-46.15 164,-36.15 160.5,-46.15 167.5,-46.15"/>
</g>
</g>
</svg>
