<?xml version="1.0" encoding="UTF-8" standalone="no"?>
<!DOCTYPE svg PUBLIC "-//W3C//DTD SVG 1.1//EN"
 "http://www.w3.org/Graphics/SVG/1.1/DTD/svg11.dtd">
<!-- Generated by graphviz version 2.43.0 (0)
 -->
<!-- Title: %3 Pages: 1 -->
<svg width="750pt" height="415pt"
 viewBox="0.00 0.00 749.50 415.48" xmlns="http://www.w3.org/2000/svg" xmlns:xlink="http://www.w3.org/1999/xlink">
<g id="graph0" class="graph" transform="scale(1 1) rotate(0) translate(36 379.48)">
<title>%3</title>
<polygon fill="dimgray" stroke="transparent" points="-36,36 -36,-379.48 713.5,-379.48 713.5,36 -36,36"/>
<text text-anchor="middle" x="338.75" y="-328.28" font-family="Helvetica,sans-Serif" font-size="14.00">Sweep&#39;s Plan &amp; Progress</text>
<!-- start -->
<g id="node1" class="node">
<title>start</title>
</g>
<!-- 7e80c70c&#45;48a6&#45;452d&#45;abb0&#45;9c6c4163cec5 -->
<g id="node3" class="node">
<title>7e80c70c&#45;48a6&#45;452d&#45;abb0&#45;9c6c4163cec5</title>
<ellipse fill="#0ee832" stroke="black" cx="420" cy="-277.61" rx="124.4" ry="26.74"/>
<text text-anchor="middle" x="420" y="-281.41" font-family="Helvetica,sans-Serif" font-size="14.00">✓ Modify</text>
<text text-anchor="middle" x="420" y="-266.41" font-family="Helvetica,sans-Serif" font-size="14.00">ultra_type/controller.py</text>
</g>
<!-- start&#45;&gt;7e80c70c&#45;48a6&#45;452d&#45;abb0&#45;9c6c4163cec5 -->
<g id="edge5" class="edge">
<title>start&#45;&gt;7e80c70c&#45;48a6&#45;452d&#45;abb0&#45;9c6c4163cec5</title>
<path fill="none" stroke="black" d="M244.5,-277.61C247.51,-277.61 263.66,-277.61 285.04,-277.61"/>
<polygon fill="black" stroke="black" points="285.2,-281.11 295.2,-277.61 285.2,-274.11 285.2,-281.11"/>
<text text-anchor="middle" x="270.02" y="-284.41" font-family="Helvetica,sans-Serif" font-size="14.00">Start</text>
</g>
<!-- end -->
<g id="node2" class="node">
<title>end</title>
</g>
<!-- 7e80c70c&#45;48a6&#45;452d&#45;abb0&#45;9c6c4163cec5&#45;&gt;end -->
<g id="edge6" class="edge">
<title>7e80c70c&#45;48a6&#45;452d&#45;abb0&#45;9c6c4163cec5&#45;&gt;end</title>
<path fill="none" stroke="black" d="M544.91,-277.61C564.03,-277.61 580.81,-277.61 591.15,-277.61"/>
<polygon fill="black" stroke="black" points="591.35,-281.11 601.35,-277.61 591.35,-274.11 591.35,-281.11"/>
<text text-anchor="middle" x="572.98" y="-284.41" font-family="Helvetica,sans-Serif" font-size="14.00">Finish</text>
</g>
<!-- 1f91a768&#45;e50b&#45;46f4&#45;9b40&#45;60b5e5b4eee2 -->
<g id="node4" class="node">
<title>1f91a768&#45;e50b&#45;46f4&#45;9b40&#45;60b5e5b4eee2</title>
<polygon fill="#ee0000" stroke="black" points="330,-213.74 0,-213.74 0,-177.74 330,-177.74 330,-213.74"/>
<text text-anchor="middle" x="165" y="-192.04" font-family="Helvetica,sans-Serif" font-size="14.00">✗ Ran sandbox for `ultra_type/controller.py`.</text>
</g>
<!-- 7e80c70c&#45;48a6&#45;452d&#45;abb0&#45;9c6c4163cec5&#45;&gt;1f91a768&#45;e50b&#45;46f4&#45;9b40&#45;60b5e5b4eee2 -->
<g id="edge1" class="edge">
<title>7e80c70c&#45;48a6&#45;452d&#45;abb0&#45;9c6c4163cec5&#45;&gt;1f91a768&#45;e50b&#45;46f4&#45;9b40&#45;60b5e5b4eee2</title>
<path fill="none" stroke="black" stroke-dasharray="5,2" d="M351.33,-255.1C313.41,-243.23 266.61,-228.57 229.39,-216.91"/>
<polygon fill="black" stroke="black" points="230.25,-213.51 219.66,-213.86 228.16,-220.19 230.25,-213.51"/>
</g>
<!-- 747499c1&#45;edcc&#45;4c8b&#45;bd30&#45;a8222f962f78 -->
<g id="node5" class="node">
<title>747499c1&#45;edcc&#45;4c8b&#45;bd30&#45;a8222f962f78</title>
<polygon fill="white" stroke="black" points="677.5,-213.74 348.5,-213.74 348.5,-177.74 677.5,-177.74 677.5,-213.74"/>
<text text-anchor="middle" x="513" y="-192.04" font-family="Helvetica,sans-Serif" font-size="14.00">▶ Ran sandbox for `ultra_type/controller.py`.</text>
</g>
<!-- 7e80c70c&#45;48a6&#45;452d&#45;abb0&#45;9c6c4163cec5&#45;&gt;747499c1&#45;edcc&#45;4c8b&#45;bd30&#45;a8222f962f78 -->
<g id="edge4" class="edge">
<title>7e80c70c&#45;48a6&#45;452d&#45;abb0&#45;9c6c4163cec5&#45;&gt;747499c1&#45;edcc&#45;4c8b&#45;bd30&#45;a8222f962f78</title>
<path fill="none" stroke="black" stroke-dasharray="5,2" d="M449.43,-251.34C460.9,-241.48 473.99,-230.24 485.29,-220.53"/>
<polygon fill="black" stroke="black" points="487.86,-222.95 493.16,-213.78 483.3,-217.64 487.86,-222.95"/>
</g>
<!-- bab0e844&#45;a3d7&#45;4408&#45;b71b&#45;13f37d594be1 -->
<g id="node6" class="node">
<title>bab0e844&#45;a3d7&#45;4408&#45;b71b&#45;13f37d594be1</title>
<ellipse fill="yellow" stroke="black" cx="165" cy="-99.87" rx="124.4" ry="26.74"/>
<text text-anchor="middle" x="165" y="-103.67" font-family="Helvetica,sans-Serif" font-size="14.00">⋯ Modify</text>
<text text-anchor="middle" x="165" y="-88.67" font-family="Helvetica,sans-Serif" font-size="14.00">ultra_type/controller.py</text>
</g>
<!-- 1f91a768&#45;e50b&#45;46f4&#45;9b40&#45;60b5e5b4eee2&#45;&gt;bab0e844&#45;a3d7&#45;4408&#45;b71b&#45;13f37d594be1 -->
<g id="edge2" class="edge">
<title>1f91a768&#45;e50b&#45;46f4&#45;9b40&#45;60b5e5b4eee2&#45;&gt;bab0e844&#45;a3d7&#45;4408&#45;b71b&#45;13f37d594be1</title>
<path fill="none" stroke="black" d="M165,-177.52C165,-166.22 165,-151.01 165,-137.12"/>
<polygon fill="black" stroke="black" points="168.5,-136.84 165,-126.84 161.5,-136.84 168.5,-136.84"/>
<text text-anchor="middle" x="262.5" y="-148.54" font-family="Helvetica,sans-Serif" font-size="14.00">Additional changes required</text>
</g>
<!-- eaa82886&#45;7418&#45;4617&#45;8655&#45;9b90bdcb61f3 -->
<g id="node7" class="node">
<title>eaa82886&#45;7418&#45;4617&#45;8655&#45;9b90bdcb61f3</title>
<polygon fill="white" stroke="black" points="329.5,-36 0.5,-36 0.5,0 329.5,0 329.5,-36"/>
<text text-anchor="middle" x="165" y="-14.3" font-family="Helvetica,sans-Serif" font-size="14.00">▶ Ran sandbox for `ultra_type/controller.py`.</text>
</g>
<!-- bab0e844&#45;a3d7&#45;4408&#45;b71b&#45;13f37d594be1&#45;&gt;eaa82886&#45;7418&#45;4617&#45;8655&#45;9b90bdcb61f3 -->
<g id="edge3" class="edge">
<title>bab0e844&#45;a3d7&#45;4408&#45;b71b&#45;13f37d594be1&#45;&gt;eaa82886&#45;7418&#45;4617&#45;8655&#45;9b90bdcb61f3</title>
<path fill="none" stroke="black" stroke-dasharray="5,2" d="M165,-72.72C165,-64.27 165,-54.89 165,-46.36"/>
<polygon fill="black" stroke="black" points="168.5,-46.15 165,-36.15 161.5,-46.15 168.5,-46.15"/>
</g>
</g>
</svg>
