<?xml version="1.0" encoding="UTF-8" standalone="no"?>
<!DOCTYPE svg PUBLIC "-//W3C//DTD SVG 1.1//EN"
 "http://www.w3.org/Graphics/SVG/1.1/DTD/svg11.dtd">
<!-- Generated by graphviz version 2.43.0 (0)
 -->
<!-- Title: %3 Pages: 1 -->
<svg width="371pt" height="165pt"
 viewBox="0.00 0.00 371.00 164.74" xmlns="http://www.w3.org/2000/svg" xmlns:xlink="http://www.w3.org/1999/xlink">
<g id="graph0" class="graph" transform="scale(1 1) rotate(0) translate(36 128.74)">
<title>%3</title>
<polygon fill="dimgray" stroke="transparent" points="-36,36 -36,-128.74 335,-128.74 335,36 -36,36"/>
<text text-anchor="middle" x="149.5" y="-77.54" font-family="Helvetica,sans-Serif" font-size="14.00">Sweep&#39;s Plan &amp; Progress</text>
<!-- start -->
<g id="node1" class="node">
<title>start</title>
</g>
<!-- 8930d241&#45;13ca&#45;475b&#45;a64f&#45;35e0989d35af -->
<g id="node3" class="node">
<title>8930d241&#45;13ca&#45;475b&#45;a64f&#45;35e0989d35af</title>
<ellipse fill="yellow" stroke="black" cx="146.5" cy="-26.87" rx="94.09" ry="26.74"/>
<text text-anchor="middle" x="146.5" y="-30.67" font-family="Helvetica,sans-Serif" font-size="14.00">⋯ Test</text>
<text text-anchor="middle" x="146.5" y="-15.67" font-family="Helvetica,sans-Serif" font-size="14.00">test_statistics.py</text>
</g>
<!-- start&#45;&gt;8930d241&#45;13ca&#45;475b&#45;a64f&#45;35e0989d35af -->
<g id="edge1" class="edge">
<title>start&#45;&gt;8930d241&#45;13ca&#45;475b&#45;a64f&#45;35e0989d35af</title>
<path fill="none" stroke="black" d="M1.15,-26.87C4.58,-26.87 21.17,-26.87 41.99,-26.87"/>
<polygon fill="black" stroke="black" points="42.16,-30.37 52.16,-26.87 42.16,-23.37 42.16,-30.37"/>
<text text-anchor="middle" x="26.73" y="-33.67" font-family="Helvetica,sans-Serif" font-size="14.00">Start</text>
</g>
<!-- end -->
<g id="node2" class="node">
<title>end</title>
</g>
<!-- 8930d241&#45;13ca&#45;475b&#45;a64f&#45;35e0989d35af&#45;&gt;end -->
<g id="edge2" class="edge">
<title>8930d241&#45;13ca&#45;475b&#45;a64f&#45;35e0989d35af&#45;&gt;end</title>
<path fill="none" stroke="black" d="M240.6,-26.87C259.54,-26.87 276.88,-26.87 287.55,-26.87"/>
<polygon fill="black" stroke="black" points="287.81,-30.37 297.81,-26.87 287.81,-23.37 287.81,-30.37"/>
<text text-anchor="middle" x="269.27" y="-33.67" font-family="Helvetica,sans-Serif" font-size="14.00">Finish</text>
</g>
</g>
</svg>
