<?xml version="1.0" encoding="UTF-8" standalone="no"?>
<!DOCTYPE svg PUBLIC "-//W3C//DTD SVG 1.1//EN"
 "http://www.w3.org/Graphics/SVG/1.1/DTD/svg11.dtd">
<!-- Generated by graphviz version 2.43.0 (0)
 -->
<!-- Title: %3 Pages: 1 -->
<svg width="476pt" height="238pt"
 viewBox="0.00 0.00 476.00 237.74" xmlns="http://www.w3.org/2000/svg" xmlns:xlink="http://www.w3.org/1999/xlink">
<g id="graph0" class="graph" transform="scale(1 1) rotate(0) translate(36 201.74)">
<title>%3</title>
<polygon fill="dimgray" stroke="transparent" points="-36,36 -36,-201.74 440,-201.74 440,36 -36,36"/>
<text text-anchor="middle" x="202" y="-150.54" font-family="Helvetica,sans-Serif" font-size="14.00">Sweep&#39;s Plan &amp; Progress</text>
<!-- start -->
<g id="node1" class="node">
<title>start</title>
</g>
<!-- 7cc5909f&#45;896c&#45;4457&#45;97e6&#45;3238844e7d44 -->
<g id="node3" class="node">
<title>7cc5909f&#45;896c&#45;4457&#45;97e6&#45;3238844e7d44</title>
<ellipse fill="#0ee832" stroke="black" cx="199.5" cy="-99.87" rx="145.83" ry="26.74"/>
<text text-anchor="middle" x="199.5" y="-103.67" font-family="Helvetica,sans-Serif" font-size="14.00">✓ Modify</text>
<text text-anchor="middle" x="199.5" y="-88.67" font-family="Helvetica,sans-Serif" font-size="14.00">ultra_type/view_practice.py</text>
</g>
<!-- start&#45;&gt;7cc5909f&#45;896c&#45;4457&#45;97e6&#45;3238844e7d44 -->
<g id="edge2" class="edge">
<title>start&#45;&gt;7cc5909f&#45;896c&#45;4457&#45;97e6&#45;3238844e7d44</title>
<path fill="none" stroke="black" d="M2.07,-99.87C5.26,-99.87 21.6,-99.87 43.63,-99.87"/>
<polygon fill="black" stroke="black" points="43.76,-103.37 53.76,-99.87 43.76,-96.37 43.76,-103.37"/>
<text text-anchor="middle" x="27.92" y="-106.67" font-family="Helvetica,sans-Serif" font-size="14.00">Start</text>
</g>
<!-- end -->
<g id="node2" class="node">
<title>end</title>
</g>
<!-- 7cc5909f&#45;896c&#45;4457&#45;97e6&#45;3238844e7d44&#45;&gt;end -->
<g id="edge3" class="edge">
<title>7cc5909f&#45;896c&#45;4457&#45;97e6&#45;3238844e7d44&#45;&gt;end</title>
<path fill="none" stroke="black" d="M345.31,-99.87C365.07,-99.87 382.12,-99.87 392.57,-99.87"/>
<polygon fill="black" stroke="black" points="392.85,-103.37 402.85,-99.87 392.85,-96.37 392.85,-103.37"/>
<text text-anchor="middle" x="374.08" y="-106.67" font-family="Helvetica,sans-Serif" font-size="14.00">Finish</text>
</g>
<!-- fc608a42&#45;1a8f&#45;4309&#45;bdab&#45;8d578df7a144 -->
<g id="node4" class="node">
<title>fc608a42&#45;1a8f&#45;4309&#45;bdab&#45;8d578df7a144</title>
<polygon fill="#0ee832" stroke="black" points="399,-36 0,-36 0,0 399,0 399,-36"/>
<text text-anchor="middle" x="199.5" y="-14.3" font-family="Helvetica,sans-Serif" font-size="14.00">✓ Run GitHub Actions for `ultra_type/view_practice.py`</text>
</g>
<!-- 7cc5909f&#45;896c&#45;4457&#45;97e6&#45;3238844e7d44&#45;&gt;fc608a42&#45;1a8f&#45;4309&#45;bdab&#45;8d578df7a144 -->
<g id="edge1" class="edge">
<title>7cc5909f&#45;896c&#45;4457&#45;97e6&#45;3238844e7d44&#45;&gt;fc608a42&#45;1a8f&#45;4309&#45;bdab&#45;8d578df7a144</title>
<path fill="none" stroke="black" stroke-dasharray="5,2" d="M199.5,-72.72C199.5,-64.27 199.5,-54.89 199.5,-46.36"/>
<polygon fill="black" stroke="black" points="203,-46.15 199.5,-36.15 196,-46.15 203,-46.15"/>
</g>
</g>
</svg>
