<?xml version="1.0" encoding="UTF-8" standalone="no"?>
<!DOCTYPE svg PUBLIC "-//W3C//DTD SVG 1.1//EN"
 "http://www.w3.org/Graphics/SVG/1.1/DTD/svg11.dtd">
<!-- Generated by graphviz version 2.43.0 (0)
 -->
<!-- Title: %3 Pages: 1 -->
<svg width="744pt" height="415pt"
 viewBox="0.00 0.00 744.00 415.48" xmlns="http://www.w3.org/2000/svg" xmlns:xlink="http://www.w3.org/1999/xlink">
<g id="graph0" class="graph" transform="scale(1 1) rotate(0) translate(36 379.48)">
<title>%3</title>
<polygon fill="dimgray" stroke="transparent" points="-36,36 -36,-379.48 708,-379.48 708,36 -36,36"/>
<text text-anchor="middle" x="336" y="-328.28" font-family="Helvetica,sans-Serif" font-size="14.00">Sweep&#39;s Plan &amp; Progress</text>
<!-- start -->
<g id="node1" class="node">
<title>start</title>
</g>
<!-- 4d1d7521&#45;f501&#45;42c6&#45;bd33&#45;c3a0dbbbba96 -->
<g id="node3" class="node">
<title>4d1d7521&#45;f501&#45;42c6&#45;bd33&#45;c3a0dbbbba96</title>
<ellipse fill="#0ee832" stroke="black" cx="417" cy="-277.61" rx="123.07" ry="26.74"/>
<text text-anchor="middle" x="417" y="-281.41" font-family="Helvetica,sans-Serif" font-size="14.00">✓ Test</text>
<text text-anchor="middle" x="417" y="-266.41" font-family="Helvetica,sans-Serif" font-size="14.00">tests/test_language.py</text>
</g>
<!-- start&#45;&gt;4d1d7521&#45;f501&#45;42c6&#45;bd33&#45;c3a0dbbbba96 -->
<g id="edge5" class="edge">
<title>start&#45;&gt;4d1d7521&#45;f501&#45;42c6&#45;bd33&#45;c3a0dbbbba96</title>
<path fill="none" stroke="black" d="M242.5,-277.61C245.53,-277.61 261.92,-277.61 283.55,-277.61"/>
<polygon fill="black" stroke="black" points="283.83,-281.11 293.83,-277.61 283.82,-274.11 283.83,-281.11"/>
<text text-anchor="middle" x="268.23" y="-284.41" font-family="Helvetica,sans-Serif" font-size="14.00">Start</text>
</g>
<!-- end -->
<g id="node2" class="node">
<title>end</title>
</g>
<!-- 4d1d7521&#45;f501&#45;42c6&#45;bd33&#45;c3a0dbbbba96&#45;&gt;end -->
<g id="edge6" class="edge">
<title>4d1d7521&#45;f501&#45;42c6&#45;bd33&#45;c3a0dbbbba96&#45;&gt;end</title>
<path fill="none" stroke="black" d="M540.23,-277.61C559.52,-277.61 576.51,-277.61 586.99,-277.61"/>
<polygon fill="black" stroke="black" points="587.34,-281.11 597.34,-277.61 587.34,-274.11 587.34,-281.11"/>
<text text-anchor="middle" x="568.77" y="-284.41" font-family="Helvetica,sans-Serif" font-size="14.00">Finish</text>
</g>
<!-- 5a5c560f&#45;dd1d&#45;4b40&#45;92c9&#45;e62c07f9f4f4 -->
<g id="node4" class="node">
<title>5a5c560f&#45;dd1d&#45;4b40&#45;92c9&#45;e62c07f9f4f4</title>
<polygon fill="#ee0000" stroke="black" points="328,-213.74 0,-213.74 0,-177.74 328,-177.74 328,-213.74"/>
<text text-anchor="middle" x="164" y="-192.04" font-family="Helvetica,sans-Serif" font-size="14.00">✗ Ran sandbox for `tests/test_language.py`.</text>
</g>
<!-- 4d1d7521&#45;f501&#45;42c6&#45;bd33&#45;c3a0dbbbba96&#45;&gt;5a5c560f&#45;dd1d&#45;4b40&#45;92c9&#45;e62c07f9f4f4 -->
<g id="edge1" class="edge">
<title>4d1d7521&#45;f501&#45;42c6&#45;bd33&#45;c3a0dbbbba96&#45;&gt;5a5c560f&#45;dd1d&#45;4b40&#45;92c9&#45;e62c07f9f4f4</title>
<path fill="none" stroke="black" stroke-dasharray="5,2" d="M348.87,-255.1C311.25,-243.23 264.81,-228.57 227.89,-216.91"/>
<polygon fill="black" stroke="black" points="228.82,-213.53 218.23,-213.86 226.71,-220.21 228.82,-213.53"/>
</g>
<!-- 1fe8182a&#45;1d46&#45;40d9&#45;94f5&#45;fba7098bb560 -->
<g id="node5" class="node">
<title>1fe8182a&#45;1d46&#45;40d9&#45;94f5&#45;fba7098bb560</title>
<polygon fill="white" stroke="black" points="672,-213.74 346,-213.74 346,-177.74 672,-177.74 672,-213.74"/>
<text text-anchor="middle" x="509" y="-192.04" font-family="Helvetica,sans-Serif" font-size="14.00">▶ Ran sandbox for `tests/test_language.py`.</text>
</g>
<!-- 4d1d7521&#45;f501&#45;42c6&#45;bd33&#45;c3a0dbbbba96&#45;&gt;1fe8182a&#45;1d46&#45;40d9&#45;94f5&#45;fba7098bb560 -->
<g id="edge4" class="edge">
<title>4d1d7521&#45;f501&#45;42c6&#45;bd33&#45;c3a0dbbbba96&#45;&gt;1fe8182a&#45;1d46&#45;40d9&#45;94f5&#45;fba7098bb560</title>
<path fill="none" stroke="black" stroke-dasharray="5,2" d="M446.11,-251.34C457.46,-241.48 470.41,-230.24 481.59,-220.53"/>
<polygon fill="black" stroke="black" points="484.12,-222.98 489.38,-213.78 479.53,-217.69 484.12,-222.98"/>
</g>
<!-- 0667abdc&#45;86c4&#45;4844&#45;b023&#45;3305b20c6392 -->
<g id="node6" class="node">
<title>0667abdc&#45;86c4&#45;4844&#45;b023&#45;3305b20c6392</title>
<ellipse fill="yellow" stroke="black" cx="164" cy="-99.87" rx="123.07" ry="26.74"/>
<text text-anchor="middle" x="164" y="-103.67" font-family="Helvetica,sans-Serif" font-size="14.00">⋯ Modify</text>
<text text-anchor="middle" x="164" y="-88.67" font-family="Helvetica,sans-Serif" font-size="14.00">tests/test_language.py</text>
</g>
<!-- 5a5c560f&#45;dd1d&#45;4b40&#45;92c9&#45;e62c07f9f4f4&#45;&gt;0667abdc&#45;86c4&#45;4844&#45;b023&#45;3305b20c6392 -->
<g id="edge2" class="edge">
<title>5a5c560f&#45;dd1d&#45;4b40&#45;92c9&#45;e62c07f9f4f4&#45;&gt;0667abdc&#45;86c4&#45;4844&#45;b023&#45;3305b20c6392</title>
<path fill="none" stroke="black" d="M164,-177.52C164,-166.22 164,-151.01 164,-137.12"/>
<polygon fill="black" stroke="black" points="167.5,-136.84 164,-126.84 160.5,-136.84 167.5,-136.84"/>
<text text-anchor="middle" x="261.5" y="-148.54" font-family="Helvetica,sans-Serif" font-size="14.00">Additional changes required</text>
</g>
<!-- b0ec629c&#45;6ebe&#45;4ccf&#45;9984&#45;5b96cd3688d9 -->
<g id="node7" class="node">
<title>b0ec629c&#45;6ebe&#45;4ccf&#45;9984&#45;5b96cd3688d9</title>
<polygon fill="white" stroke="black" points="327,-36 1,-36 1,0 327,0 327,-36"/>
<text text-anchor="middle" x="164" y="-14.3" font-family="Helvetica,sans-Serif" font-size="14.00">▶ Ran sandbox for `tests/test_language.py`.</text>
</g>
<!-- 0667abdc&#45;86c4&#45;4844&#45;b023&#45;3305b20c6392&#45;&gt;b0ec629c&#45;6ebe&#45;4ccf&#45;9984&#45;5b96cd3688d9 -->
<g id="edge3" class="edge">
<title>0667abdc&#45;86c4&#45;4844&#45;b023&#45;3305b20c6392&#45;&gt;b0ec629c&#45;6ebe&#45;4ccf&#45;9984&#45;5b96cd3688d9</title>
<path fill="none" stroke="black" stroke-dasharray="5,2" d="M164,-72.72C164,-64.27 164,-54.89 164,-46.36"/>
<polygon fill="black" stroke="black" points="167.5,-46.15 164,-36.15 160.5,-46.15 167.5,-46.15"/>
</g>
</g>
</svg>
