<?xml version="1.0" encoding="UTF-8" standalone="no"?>
<!DOCTYPE svg PUBLIC "-//W3C//DTD SVG 1.1//EN"
 "http://www.w3.org/Graphics/SVG/1.1/DTD/svg11.dtd">
<!-- Generated by graphviz version 2.43.0 (0)
 -->
<!-- Title: %3 Pages: 1 -->
<svg width="794pt" height="238pt"
 viewBox="0.00 0.00 793.50 237.74" xmlns="http://www.w3.org/2000/svg" xmlns:xlink="http://www.w3.org/1999/xlink">
<g id="graph0" class="graph" transform="scale(1 1) rotate(0) translate(36 201.74)">
<title>%3</title>
<polygon fill="dimgray" stroke="transparent" points="-36,36 -36,-201.74 757.5,-201.74 757.5,36 -36,36"/>
<text text-anchor="middle" x="360.75" y="-150.54" font-family="Helvetica,sans-Serif" font-size="14.00">Sweep&#39;s Plan &amp; Progress</text>
<!-- start -->
<g id="node1" class="node">
<title>start</title>
</g>
<!-- 6b3e9567&#45;f6d9&#45;4458&#45;9158&#45;af0c371afa6d -->
<g id="node3" class="node">
<title>6b3e9567&#45;f6d9&#45;4458&#45;9158&#45;af0c371afa6d</title>
<ellipse fill="yellow" stroke="black" cx="221.5" cy="-99.87" rx="101.23" ry="26.74"/>
<text text-anchor="middle" x="221.5" y="-103.67" font-family="Helvetica,sans-Serif" font-size="14.00">⋯ Modify</text>
<text text-anchor="middle" x="221.5" y="-88.67" font-family="Helvetica,sans-Serif" font-size="14.00">ultra_type/view.py</text>
</g>
<!-- start&#45;&gt;6b3e9567&#45;f6d9&#45;4458&#45;9158&#45;af0c371afa6d -->
<g id="edge4" class="edge">
<title>start&#45;&gt;6b3e9567&#45;f6d9&#45;4458&#45;9158&#45;af0c371afa6d</title>
<path fill="none" stroke="black" d="M69.18,-99.87C72.66,-99.87 89.09,-99.87 109.96,-99.87"/>
<polygon fill="black" stroke="black" points="110.17,-103.37 120.17,-99.87 110.17,-96.37 110.17,-103.37"/>
<text text-anchor="middle" x="94.69" y="-106.67" font-family="Helvetica,sans-Serif" font-size="14.00">Start</text>
</g>
<!-- end -->
<g id="node2" class="node">
<title>end</title>
</g>
<!-- c1319c61&#45;3c70&#45;4ed6&#45;bfd6&#45;13710a648c7a -->
<g id="node4" class="node">
<title>c1319c61&#45;3c70&#45;4ed6&#45;bfd6&#45;13710a648c7a</title>
<ellipse fill="white" stroke="black" cx="510.5" cy="-99.87" rx="124.4" ry="26.74"/>
<text text-anchor="middle" x="510.5" y="-103.67" font-family="Helvetica,sans-Serif" font-size="14.00">▶ Modify</text>
<text text-anchor="middle" x="510.5" y="-88.67" font-family="Helvetica,sans-Serif" font-size="14.00">ultra_type/controller.py</text>
</g>
<!-- 6b3e9567&#45;f6d9&#45;4458&#45;9158&#45;af0c371afa6d&#45;&gt;c1319c61&#45;3c70&#45;4ed6&#45;bfd6&#45;13710a648c7a -->
<g id="edge2" class="edge">
<title>6b3e9567&#45;f6d9&#45;4458&#45;9158&#45;af0c371afa6d&#45;&gt;c1319c61&#45;3c70&#45;4ed6&#45;bfd6&#45;13710a648c7a</title>
<path fill="none" stroke="black" d="M322.82,-99.87C340.39,-99.87 357.96,-99.87 375.52,-99.87"/>
<polygon fill="black" stroke="black" points="375.87,-103.37 385.87,-99.87 375.87,-96.37 375.87,-103.37"/>
</g>
<!-- ce764251&#45;49e1&#45;4784&#45;832e&#45;d81e4dc1e2af -->
<g id="node5" class="node">
<title>ce764251&#45;49e1&#45;4784&#45;832e&#45;d81e4dc1e2af</title>
<polygon fill="white" stroke="black" points="335,-36 0,-36 0,0 335,0 335,-36"/>
<text text-anchor="middle" x="167.5" y="-14.3" font-family="Helvetica,sans-Serif" font-size="14.00">▶ Run GitHub Actions for `ultra_type/view.py`</text>
</g>
<!-- 6b3e9567&#45;f6d9&#45;4458&#45;9158&#45;af0c371afa6d&#45;&gt;ce764251&#45;49e1&#45;4784&#45;832e&#45;d81e4dc1e2af -->
<g id="edge1" class="edge">
<title>6b3e9567&#45;f6d9&#45;4458&#45;9158&#45;af0c371afa6d&#45;&gt;ce764251&#45;49e1&#45;4784&#45;832e&#45;d81e4dc1e2af</title>
<path fill="none" stroke="black" stroke-dasharray="5,2" d="M204.12,-73.16C197.95,-64.04 191.01,-53.77 184.84,-44.65"/>
<polygon fill="black" stroke="black" points="187.72,-42.66 179.22,-36.34 181.92,-46.58 187.72,-42.66"/>
</g>
<!-- c1319c61&#45;3c70&#45;4ed6&#45;bfd6&#45;13710a648c7a&#45;&gt;end -->
<g id="edge5" class="edge">
<title>c1319c61&#45;3c70&#45;4ed6&#45;bfd6&#45;13710a648c7a&#45;&gt;end</title>
<path fill="none" stroke="black" d="M635.41,-99.87C654.53,-99.87 671.31,-99.87 681.65,-99.87"/>
<polygon fill="black" stroke="black" points="681.85,-103.37 691.85,-99.87 681.85,-96.37 681.85,-103.37"/>
<text text-anchor="middle" x="663.48" y="-106.67" font-family="Helvetica,sans-Serif" font-size="14.00">Finish</text>
</g>
<!-- 75f45f1d&#45;1489&#45;4b5f&#45;a8cc&#45;a503e827257c -->
<g id="node6" class="node">
<title>75f45f1d&#45;1489&#45;4b5f&#45;a8cc&#45;a503e827257c</title>
<polygon fill="white" stroke="black" points="721.5,-36 353.5,-36 353.5,0 721.5,0 721.5,-36"/>
<text text-anchor="middle" x="537.5" y="-14.3" font-family="Helvetica,sans-Serif" font-size="14.00">▶ Run GitHub Actions for `ultra_type/controller.py`</text>
</g>
<!-- c1319c61&#45;3c70&#45;4ed6&#45;bfd6&#45;13710a648c7a&#45;&gt;75f45f1d&#45;1489&#45;4b5f&#45;a8cc&#45;a503e827257c -->
<g id="edge3" class="edge">
<title>c1319c61&#45;3c70&#45;4ed6&#45;bfd6&#45;13710a648c7a&#45;&gt;75f45f1d&#45;1489&#45;4b5f&#45;a8cc&#45;a503e827257c</title>
<path fill="none" stroke="black" stroke-dasharray="5,2" d="M519.34,-72.72C522.26,-64.08 525.51,-54.47 528.44,-45.79"/>
<polygon fill="black" stroke="black" points="531.82,-46.74 531.7,-36.15 525.19,-44.5 531.82,-46.74"/>
</g>
</g>
</svg>
