<?xml version="1.0" encoding="UTF-8" standalone="no"?>
<!DOCTYPE svg PUBLIC "-//W3C//DTD SVG 1.1//EN"
 "http://www.w3.org/Graphics/SVG/1.1/DTD/svg11.dtd">
<!-- Generated by graphviz version 2.43.0 (0)
 -->
<!-- Title: %3 Pages: 1 -->
<svg width="796pt" height="238pt"
 viewBox="0.00 0.00 796.00 237.74" xmlns="http://www.w3.org/2000/svg" xmlns:xlink="http://www.w3.org/1999/xlink">
<g id="graph0" class="graph" transform="scale(1 1) rotate(0) translate(36 201.74)">
<title>%3</title>
<polygon fill="dimgray" stroke="transparent" points="-36,36 -36,-201.74 760,-201.74 760,36 -36,36"/>
<text text-anchor="middle" x="362" y="-150.54" font-family="Helvetica,sans-Serif" font-size="14.00">Sweep&#39;s Plan &amp; Progress</text>
<!-- start -->
<g id="node1" class="node">
<title>start</title>
</g>
<!-- 6b3e9567&#45;f6d9&#45;4458&#45;9158&#45;af0c371afa6d -->
<g id="node3" class="node">
<title>6b3e9567&#45;f6d9&#45;4458&#45;9158&#45;af0c371afa6d</title>
<ellipse fill="#0ee832" stroke="black" cx="224" cy="-99.87" rx="101.23" ry="26.74"/>
<text text-anchor="middle" x="224" y="-103.67" font-family="Helvetica,sans-Serif" font-size="14.00">✓ Modify</text>
<text text-anchor="middle" x="224" y="-88.67" font-family="Helvetica,sans-Serif" font-size="14.00">ultra_type/view.py</text>
</g>
<!-- start&#45;&gt;6b3e9567&#45;f6d9&#45;4458&#45;9158&#45;af0c371afa6d -->
<g id="edge4" class="edge">
<title>start&#45;&gt;6b3e9567&#45;f6d9&#45;4458&#45;9158&#45;af0c371afa6d</title>
<path fill="none" stroke="black" d="M71.68,-99.87C75.16,-99.87 91.59,-99.87 112.46,-99.87"/>
<polygon fill="black" stroke="black" points="112.67,-103.37 122.67,-99.87 112.67,-96.37 112.67,-103.37"/>
<text text-anchor="middle" x="97.19" y="-106.67" font-family="Helvetica,sans-Serif" font-size="14.00">Start</text>
</g>
<!-- end -->
<g id="node2" class="node">
<title>end</title>
</g>
<!-- c1319c61&#45;3c70&#45;4ed6&#45;bfd6&#45;13710a648c7a -->
<g id="node4" class="node">
<title>c1319c61&#45;3c70&#45;4ed6&#45;bfd6&#45;13710a648c7a</title>
<ellipse fill="white" stroke="black" cx="513" cy="-99.87" rx="124.4" ry="26.74"/>
<text text-anchor="middle" x="513" y="-103.67" font-family="Helvetica,sans-Serif" font-size="14.00">▶ Modify</text>
<text text-anchor="middle" x="513" y="-88.67" font-family="Helvetica,sans-Serif" font-size="14.00">ultra_type/controller.py</text>
</g>
<!-- 6b3e9567&#45;f6d9&#45;4458&#45;9158&#45;af0c371afa6d&#45;&gt;c1319c61&#45;3c70&#45;4ed6&#45;bfd6&#45;13710a648c7a -->
<g id="edge2" class="edge">
<title>6b3e9567&#45;f6d9&#45;4458&#45;9158&#45;af0c371afa6d&#45;&gt;c1319c61&#45;3c70&#45;4ed6&#45;bfd6&#45;13710a648c7a</title>
<path fill="none" stroke="black" d="M325.32,-99.87C342.89,-99.87 360.46,-99.87 378.02,-99.87"/>
<polygon fill="black" stroke="black" points="378.37,-103.37 388.37,-99.87 378.37,-96.37 378.37,-103.37"/>
</g>
<!-- ce764251&#45;49e1&#45;4784&#45;832e&#45;d81e4dc1e2af -->
<g id="node5" class="node">
<title>ce764251&#45;49e1&#45;4784&#45;832e&#45;d81e4dc1e2af</title>
<polygon fill="yellow" stroke="black" points="338,-36 0,-36 0,0 338,0 338,-36"/>
<text text-anchor="middle" x="169" y="-14.3" font-family="Helvetica,sans-Serif" font-size="14.00">⋯ Run GitHub Actions for `ultra_type/view.py`</text>
</g>
<!-- 6b3e9567&#45;f6d9&#45;4458&#45;9158&#45;af0c371afa6d&#45;&gt;ce764251&#45;49e1&#45;4784&#45;832e&#45;d81e4dc1e2af -->
<g id="edge1" class="edge">
<title>6b3e9567&#45;f6d9&#45;4458&#45;9158&#45;af0c371afa6d&#45;&gt;ce764251&#45;49e1&#45;4784&#45;832e&#45;d81e4dc1e2af</title>
<path fill="none" stroke="black" stroke-dasharray="5,2" d="M206.29,-73.16C200.01,-64.04 192.95,-53.77 186.67,-44.65"/>
<polygon fill="black" stroke="black" points="189.49,-42.59 180.94,-36.34 183.73,-46.56 189.49,-42.59"/>
</g>
<!-- c1319c61&#45;3c70&#45;4ed6&#45;bfd6&#45;13710a648c7a&#45;&gt;end -->
<g id="edge5" class="edge">
<title>c1319c61&#45;3c70&#45;4ed6&#45;bfd6&#45;13710a648c7a&#45;&gt;end</title>
<path fill="none" stroke="black" d="M637.91,-99.87C657.03,-99.87 673.81,-99.87 684.15,-99.87"/>
<polygon fill="black" stroke="black" points="684.35,-103.37 694.35,-99.87 684.35,-96.37 684.35,-103.37"/>
<text text-anchor="middle" x="665.98" y="-106.67" font-family="Helvetica,sans-Serif" font-size="14.00">Finish</text>
</g>
<!-- 75f45f1d&#45;1489&#45;4b5f&#45;a8cc&#45;a503e827257c -->
<g id="node6" class="node">
<title>75f45f1d&#45;1489&#45;4b5f&#45;a8cc&#45;a503e827257c</title>
<polygon fill="white" stroke="black" points="724,-36 356,-36 356,0 724,0 724,-36"/>
<text text-anchor="middle" x="540" y="-14.3" font-family="Helvetica,sans-Serif" font-size="14.00">▶ Run GitHub Actions for `ultra_type/controller.py`</text>
</g>
<!-- c1319c61&#45;3c70&#45;4ed6&#45;bfd6&#45;13710a648c7a&#45;&gt;75f45f1d&#45;1489&#45;4b5f&#45;a8cc&#45;a503e827257c -->
<g id="edge3" class="edge">
<title>c1319c61&#45;3c70&#45;4ed6&#45;bfd6&#45;13710a648c7a&#45;&gt;75f45f1d&#45;1489&#45;4b5f&#45;a8cc&#45;a503e827257c</title>
<path fill="none" stroke="black" stroke-dasharray="5,2" d="M521.84,-72.72C524.76,-64.08 528.01,-54.47 530.94,-45.79"/>
<polygon fill="black" stroke="black" points="534.32,-46.74 534.2,-36.15 527.69,-44.5 534.32,-46.74"/>
</g>
</g>
</svg>
