<?xml version="1.0" encoding="UTF-8" standalone="no"?>
<!DOCTYPE svg PUBLIC "-//W3C//DTD SVG 1.1//EN"
 "http://www.w3.org/Graphics/SVG/1.1/DTD/svg11.dtd">
<!-- Generated by graphviz version 2.43.0 (0)
 -->
<!-- Title: %3 Pages: 1 -->
<svg width="1524pt" height="238pt"
 viewBox="0.00 0.00 1523.50 237.74" xmlns="http://www.w3.org/2000/svg" xmlns:xlink="http://www.w3.org/1999/xlink">
<g id="graph0" class="graph" transform="scale(1 1) rotate(0) translate(36 201.74)">
<title>%3</title>
<polygon fill="dimgray" stroke="transparent" points="-36,36 -36,-201.74 1487.5,-201.74 1487.5,36 -36,36"/>
<text text-anchor="middle" x="725.75" y="-150.54" font-family="Helvetica,sans-Serif" font-size="14.00">Sweep&#39;s Plan &amp; Progress</text>
<!-- start -->
<g id="node1" class="node">
<title>start</title>
</g>
<!-- c7e9640d&#45;3b4d&#45;4da3&#45;aa4e&#45;3776dc4f84c7 -->
<g id="node3" class="node">
<title>c7e9640d&#45;3b4d&#45;4da3&#45;aa4e&#45;3776dc4f84c7</title>
<ellipse fill="yellow" stroke="black" cx="238" cy="-99.87" rx="124.4" ry="26.74"/>
<text text-anchor="middle" x="238" y="-103.67" font-family="Helvetica,sans-Serif" font-size="14.00">⋯ Modify</text>
<text text-anchor="middle" x="238" y="-88.67" font-family="Helvetica,sans-Serif" font-size="14.00">ultra_type/controller.py</text>
</g>
<!-- start&#45;&gt;c7e9640d&#45;3b4d&#45;4da3&#45;aa4e&#45;3776dc4f84c7 -->
<g id="edge8" class="edge">
<title>start&#45;&gt;c7e9640d&#45;3b4d&#45;4da3&#45;aa4e&#45;3776dc4f84c7</title>
<path fill="none" stroke="black" d="M62.5,-99.87C65.51,-99.87 81.66,-99.87 103.04,-99.87"/>
<polygon fill="black" stroke="black" points="103.2,-103.37 113.2,-99.87 103.2,-96.37 103.2,-103.37"/>
<text text-anchor="middle" x="88.02" y="-106.67" font-family="Helvetica,sans-Serif" font-size="14.00">Start</text>
</g>
<!-- end -->
<g id="node2" class="node">
<title>end</title>
</g>
<!-- c2ec7600&#45;ce16&#45;4a7b&#45;9ad1&#45;3bcf3d33a2f3 -->
<g id="node4" class="node">
<title>c2ec7600&#45;ce16&#45;4a7b&#45;9ad1&#45;3bcf3d33a2f3</title>
<ellipse fill="white" stroke="black" cx="554" cy="-99.87" rx="101.23" ry="26.74"/>
<text text-anchor="middle" x="554" y="-103.67" font-family="Helvetica,sans-Serif" font-size="14.00">▶ Modify</text>
<text text-anchor="middle" x="554" y="-88.67" font-family="Helvetica,sans-Serif" font-size="14.00">ultra_type/view.py</text>
</g>
<!-- c7e9640d&#45;3b4d&#45;4da3&#45;aa4e&#45;3776dc4f84c7&#45;&gt;c2ec7600&#45;ce16&#45;4a7b&#45;9ad1&#45;3bcf3d33a2f3 -->
<g id="edge2" class="edge">
<title>c7e9640d&#45;3b4d&#45;4da3&#45;aa4e&#45;3776dc4f84c7&#45;&gt;c2ec7600&#45;ce16&#45;4a7b&#45;9ad1&#45;3bcf3d33a2f3</title>
<path fill="none" stroke="black" d="M362.67,-99.87C389.29,-99.87 415.91,-99.87 442.53,-99.87"/>
<polygon fill="black" stroke="black" points="442.73,-103.37 452.73,-99.87 442.73,-96.37 442.73,-103.37"/>
</g>
<!-- 3c28abea&#45;0cbd&#45;46cd&#45;bb61&#45;36ca66e11756 -->
<g id="node7" class="node">
<title>3c28abea&#45;0cbd&#45;46cd&#45;bb61&#45;36ca66e11756</title>
<polygon fill="white" stroke="black" points="368,-36 0,-36 0,0 368,0 368,-36"/>
<text text-anchor="middle" x="184" y="-14.3" font-family="Helvetica,sans-Serif" font-size="14.00">▶ Run GitHub Actions for `ultra_type/controller.py`</text>
</g>
<!-- c7e9640d&#45;3b4d&#45;4da3&#45;aa4e&#45;3776dc4f84c7&#45;&gt;3c28abea&#45;0cbd&#45;46cd&#45;bb61&#45;36ca66e11756 -->
<g id="edge1" class="edge">
<title>c7e9640d&#45;3b4d&#45;4da3&#45;aa4e&#45;3776dc4f84c7&#45;&gt;3c28abea&#45;0cbd&#45;46cd&#45;bb61&#45;36ca66e11756</title>
<path fill="none" stroke="black" stroke-dasharray="5,2" d="M220.62,-73.16C214.45,-64.04 207.51,-53.77 201.34,-44.65"/>
<polygon fill="black" stroke="black" points="204.22,-42.66 195.72,-36.34 198.42,-46.58 204.22,-42.66"/>
</g>
<!-- 2d244272&#45;6c92&#45;4878&#45;aee1&#45;6b6b1470b4be -->
<g id="node5" class="node">
<title>2d244272&#45;6c92&#45;4878&#45;aee1&#45;6b6b1470b4be</title>
<ellipse fill="white" stroke="black" cx="913" cy="-99.87" rx="109.7" ry="26.74"/>
<text text-anchor="middle" x="913" y="-103.67" font-family="Helvetica,sans-Serif" font-size="14.00">▶ Modify</text>
<text text-anchor="middle" x="913" y="-88.67" font-family="Helvetica,sans-Serif" font-size="14.00">ultra_type/clicker.py</text>
</g>
<!-- c2ec7600&#45;ce16&#45;4a7b&#45;9ad1&#45;3bcf3d33a2f3&#45;&gt;2d244272&#45;6c92&#45;4878&#45;aee1&#45;6b6b1470b4be -->
<g id="edge4" class="edge">
<title>c2ec7600&#45;ce16&#45;4a7b&#45;9ad1&#45;3bcf3d33a2f3&#45;&gt;2d244272&#45;6c92&#45;4878&#45;aee1&#45;6b6b1470b4be</title>
<path fill="none" stroke="black" d="M655.32,-99.87C701.27,-99.87 747.22,-99.87 793.17,-99.87"/>
<polygon fill="black" stroke="black" points="793.28,-103.37 803.28,-99.87 793.28,-96.37 793.28,-103.37"/>
</g>
<!-- d1135ece&#45;305b&#45;45b4&#45;8061&#45;f003f37c09ea -->
<g id="node8" class="node">
<title>d1135ece&#45;305b&#45;45b4&#45;8061&#45;f003f37c09ea</title>
<polygon fill="white" stroke="black" points="721.5,-36 386.5,-36 386.5,0 721.5,0 721.5,-36"/>
<text text-anchor="middle" x="554" y="-14.3" font-family="Helvetica,sans-Serif" font-size="14.00">▶ Run GitHub Actions for `ultra_type/view.py`</text>
</g>
<!-- c2ec7600&#45;ce16&#45;4a7b&#45;9ad1&#45;3bcf3d33a2f3&#45;&gt;d1135ece&#45;305b&#45;45b4&#45;8061&#45;f003f37c09ea -->
<g id="edge3" class="edge">
<title>c2ec7600&#45;ce16&#45;4a7b&#45;9ad1&#45;3bcf3d33a2f3&#45;&gt;d1135ece&#45;305b&#45;45b4&#45;8061&#45;f003f37c09ea</title>
<path fill="none" stroke="black" stroke-dasharray="5,2" d="M554,-72.72C554,-64.27 554,-54.89 554,-46.36"/>
<polygon fill="black" stroke="black" points="557.5,-46.15 554,-36.15 550.5,-46.15 557.5,-46.15"/>
</g>
<!-- 9c8d3b8e&#45;16b1&#45;4a41&#45;92fe&#45;722412f87a5a -->
<g id="node6" class="node">
<title>9c8d3b8e&#45;16b1&#45;4a41&#45;92fe&#45;722412f87a5a</title>
<ellipse fill="white" stroke="black" cx="1223" cy="-99.87" rx="109.7" ry="26.74"/>
<text text-anchor="middle" x="1223" y="-103.67" font-family="Helvetica,sans-Serif" font-size="14.00">▶ Modify</text>
<text text-anchor="middle" x="1223" y="-88.67" font-family="Helvetica,sans-Serif" font-size="14.00">ultra_type/model.py</text>
</g>
<!-- 2d244272&#45;6c92&#45;4878&#45;aee1&#45;6b6b1470b4be&#45;&gt;9c8d3b8e&#45;16b1&#45;4a41&#45;92fe&#45;722412f87a5a -->
<g id="edge6" class="edge">
<title>2d244272&#45;6c92&#45;4878&#45;aee1&#45;6b6b1470b4be&#45;&gt;9c8d3b8e&#45;16b1&#45;4a41&#45;92fe&#45;722412f87a5a</title>
<path fill="none" stroke="black" d="M1022.89,-99.87C1049.58,-99.87 1076.26,-99.87 1102.95,-99.87"/>
<polygon fill="black" stroke="black" points="1103.18,-103.37 1113.18,-99.87 1103.18,-96.37 1103.18,-103.37"/>
</g>
<!-- 17c51c98&#45;ac86&#45;4479&#45;a184&#45;5b786bc50634 -->
<g id="node9" class="node">
<title>17c51c98&#45;ac86&#45;4479&#45;a184&#45;5b786bc50634</title>
<polygon fill="white" stroke="black" points="1086.5,-36 739.5,-36 739.5,0 1086.5,0 1086.5,-36"/>
<text text-anchor="middle" x="913" y="-14.3" font-family="Helvetica,sans-Serif" font-size="14.00">▶ Run GitHub Actions for `ultra_type/clicker.py`</text>
</g>
<!-- 2d244272&#45;6c92&#45;4878&#45;aee1&#45;6b6b1470b4be&#45;&gt;17c51c98&#45;ac86&#45;4479&#45;a184&#45;5b786bc50634 -->
<g id="edge5" class="edge">
<title>2d244272&#45;6c92&#45;4878&#45;aee1&#45;6b6b1470b4be&#45;&gt;17c51c98&#45;ac86&#45;4479&#45;a184&#45;5b786bc50634</title>
<path fill="none" stroke="black" stroke-dasharray="5,2" d="M913,-72.72C913,-64.27 913,-54.89 913,-46.36"/>
<polygon fill="black" stroke="black" points="916.5,-46.15 913,-36.15 909.5,-46.15 916.5,-46.15"/>
</g>
<!-- 9c8d3b8e&#45;16b1&#45;4a41&#45;92fe&#45;722412f87a5a&#45;&gt;end -->
<g id="edge9" class="edge">
<title>9c8d3b8e&#45;16b1&#45;4a41&#45;92fe&#45;722412f87a5a&#45;&gt;end</title>
<path fill="none" stroke="black" d="M1332.71,-99.87C1352.12,-99.87 1369.51,-99.87 1380.13,-99.87"/>
<polygon fill="black" stroke="black" points="1380.32,-103.37 1390.32,-99.87 1380.32,-96.37 1380.32,-103.37"/>
<text text-anchor="middle" x="1361.55" y="-106.67" font-family="Helvetica,sans-Serif" font-size="14.00">Finish</text>
</g>
<!-- 99d3e6cc&#45;eea9&#45;4d81&#45;8314&#45;bf889d364369 -->
<g id="node10" class="node">
<title>99d3e6cc&#45;eea9&#45;4d81&#45;8314&#45;bf889d364369</title>
<polygon fill="white" stroke="black" points="1451.5,-36 1104.5,-36 1104.5,0 1451.5,0 1451.5,-36"/>
<text text-anchor="middle" x="1278" y="-14.3" font-family="Helvetica,sans-Serif" font-size="14.00">▶ Run GitHub Actions for `ultra_type/model.py`</text>
</g>
<!-- 9c8d3b8e&#45;16b1&#45;4a41&#45;92fe&#45;722412f87a5a&#45;&gt;99d3e6cc&#45;eea9&#45;4d81&#45;8314&#45;bf889d364369 -->
<g id="edge7" class="edge">
<title>9c8d3b8e&#45;16b1&#45;4a41&#45;92fe&#45;722412f87a5a&#45;&gt;99d3e6cc&#45;eea9&#45;4d81&#45;8314&#45;bf889d364369</title>
<path fill="none" stroke="black" stroke-dasharray="5,2" d="M1240.71,-73.16C1246.99,-64.04 1254.05,-53.77 1260.33,-44.65"/>
<polygon fill="black" stroke="black" points="1263.27,-46.56 1266.06,-36.34 1257.51,-42.59 1263.27,-46.56"/>
</g>
</g>
</svg>
