<?xml version="1.0" encoding="UTF-8" standalone="no"?>
<!DOCTYPE svg PUBLIC "-//W3C//DTD SVG 1.1//EN"
 "http://www.w3.org/Graphics/SVG/1.1/DTD/svg11.dtd">
<!-- Generated by graphviz version 2.43.0 (0)
 -->
<!-- Title: %3 Pages: 1 -->
<svg width="1344pt" height="238pt"
 viewBox="0.00 0.00 1343.50 237.74" xmlns="http://www.w3.org/2000/svg" xmlns:xlink="http://www.w3.org/1999/xlink">
<g id="graph0" class="graph" transform="scale(1 1) rotate(0) translate(36 201.74)">
<title>%3</title>
<polygon fill="dimgray" stroke="transparent" points="-36,36 -36,-201.74 1307.5,-201.74 1307.5,36 -36,36"/>
<text text-anchor="middle" x="635.75" y="-150.54" font-family="Helvetica,sans-Serif" font-size="14.00">Sweep&#39;s Plan &amp; Progress</text>
<!-- start -->
<g id="node1" class="node">
<title>start</title>
</g>
<!-- c25745ea&#45;c295&#45;42a4&#45;aad1&#45;4ebfb5802c3a -->
<g id="node3" class="node">
<title>c25745ea&#45;c295&#45;42a4&#45;aad1&#45;4ebfb5802c3a</title>
<ellipse fill="yellow" stroke="black" cx="186" cy="-99.87" rx="101.23" ry="26.74"/>
<text text-anchor="middle" x="186" y="-103.67" font-family="Helvetica,sans-Serif" font-size="14.00">⋯ Modify</text>
<text text-anchor="middle" x="186" y="-88.67" font-family="Helvetica,sans-Serif" font-size="14.00">ultra_type/view.py</text>
</g>
<!-- start&#45;&gt;c25745ea&#45;c295&#45;42a4&#45;aad1&#45;4ebfb5802c3a -->
<g id="edge8" class="edge">
<title>start&#45;&gt;c25745ea&#45;c295&#45;42a4&#45;aad1&#45;4ebfb5802c3a</title>
<path fill="none" stroke="black" d="M33.68,-99.87C37.16,-99.87 53.59,-99.87 74.46,-99.87"/>
<polygon fill="black" stroke="black" points="74.67,-103.37 84.67,-99.87 74.67,-96.37 74.67,-103.37"/>
<text text-anchor="middle" x="59.19" y="-106.67" font-family="Helvetica,sans-Serif" font-size="14.00">Start</text>
</g>
<!-- end -->
<g id="node2" class="node">
<title>end</title>
</g>
<!-- d6c9a186&#45;6269&#45;4f57&#45;8def&#45;9befd659fa35 -->
<g id="node4" class="node">
<title>d6c9a186&#45;6269&#45;4f57&#45;8def&#45;9befd659fa35</title>
<ellipse fill="white" stroke="black" cx="462" cy="-99.87" rx="101.23" ry="26.74"/>
<text text-anchor="middle" x="462" y="-103.67" font-family="Helvetica,sans-Serif" font-size="14.00">▶ Modify</text>
<text text-anchor="middle" x="462" y="-88.67" font-family="Helvetica,sans-Serif" font-size="14.00">ultra_type/view.py</text>
</g>
<!-- c25745ea&#45;c295&#45;42a4&#45;aad1&#45;4ebfb5802c3a&#45;&gt;d6c9a186&#45;6269&#45;4f57&#45;8def&#45;9befd659fa35 -->
<g id="edge2" class="edge">
<title>c25745ea&#45;c295&#45;42a4&#45;aad1&#45;4ebfb5802c3a&#45;&gt;d6c9a186&#45;6269&#45;4f57&#45;8def&#45;9befd659fa35</title>
<path fill="none" stroke="black" d="M287.34,-99.87C308.45,-99.87 329.55,-99.87 350.66,-99.87"/>
<polygon fill="black" stroke="black" points="350.69,-103.37 360.69,-99.87 350.69,-96.37 350.69,-103.37"/>
</g>
<!-- 29769701&#45;8612&#45;4a9b&#45;aef2&#45;c611888521d7 -->
<g id="node7" class="node">
<title>29769701&#45;8612&#45;4a9b&#45;aef2&#45;c611888521d7</title>
<polygon fill="white" stroke="black" points="296,-36 0,-36 0,0 296,0 296,-36"/>
<text text-anchor="middle" x="148" y="-14.3" font-family="Helvetica,sans-Serif" font-size="14.00">▶ Ran sandbox for `ultra_type/view.py`.</text>
</g>
<!-- c25745ea&#45;c295&#45;42a4&#45;aad1&#45;4ebfb5802c3a&#45;&gt;29769701&#45;8612&#45;4a9b&#45;aef2&#45;c611888521d7 -->
<g id="edge1" class="edge">
<title>c25745ea&#45;c295&#45;42a4&#45;aad1&#45;4ebfb5802c3a&#45;&gt;29769701&#45;8612&#45;4a9b&#45;aef2&#45;c611888521d7</title>
<path fill="none" stroke="black" stroke-dasharray="5,2" d="M173.77,-73.16C169.56,-64.32 164.85,-54.41 160.61,-45.5"/>
<polygon fill="black" stroke="black" points="163.71,-43.86 156.25,-36.34 157.38,-46.87 163.71,-43.86"/>
</g>
<!-- 0dcba031&#45;916d&#45;472e&#45;87cf&#45;9337e1b13f56 -->
<g id="node5" class="node">
<title>0dcba031&#45;916d&#45;472e&#45;87cf&#45;9337e1b13f56</title>
<ellipse fill="white" stroke="black" cx="776" cy="-99.87" rx="101.23" ry="26.74"/>
<text text-anchor="middle" x="776" y="-103.67" font-family="Helvetica,sans-Serif" font-size="14.00">▶ Modify</text>
<text text-anchor="middle" x="776" y="-88.67" font-family="Helvetica,sans-Serif" font-size="14.00">ultra_type/view.py</text>
</g>
<!-- d6c9a186&#45;6269&#45;4f57&#45;8def&#45;9befd659fa35&#45;&gt;0dcba031&#45;916d&#45;472e&#45;87cf&#45;9337e1b13f56 -->
<g id="edge4" class="edge">
<title>d6c9a186&#45;6269&#45;4f57&#45;8def&#45;9befd659fa35&#45;&gt;0dcba031&#45;916d&#45;472e&#45;87cf&#45;9337e1b13f56</title>
<path fill="none" stroke="black" d="M563.19,-99.87C596.99,-99.87 630.78,-99.87 664.58,-99.87"/>
<polygon fill="black" stroke="black" points="664.58,-103.37 674.58,-99.87 664.58,-96.37 664.58,-103.37"/>
</g>
<!-- 9fc897a1&#45;8c45&#45;4074&#45;b904&#45;395998ccc48e -->
<g id="node8" class="node">
<title>9fc897a1&#45;8c45&#45;4074&#45;b904&#45;395998ccc48e</title>
<polygon fill="white" stroke="black" points="610,-36 314,-36 314,0 610,0 610,-36"/>
<text text-anchor="middle" x="462" y="-14.3" font-family="Helvetica,sans-Serif" font-size="14.00">▶ Ran sandbox for `ultra_type/view.py`.</text>
</g>
<!-- d6c9a186&#45;6269&#45;4f57&#45;8def&#45;9befd659fa35&#45;&gt;9fc897a1&#45;8c45&#45;4074&#45;b904&#45;395998ccc48e -->
<g id="edge3" class="edge">
<title>d6c9a186&#45;6269&#45;4f57&#45;8def&#45;9befd659fa35&#45;&gt;9fc897a1&#45;8c45&#45;4074&#45;b904&#45;395998ccc48e</title>
<path fill="none" stroke="black" stroke-dasharray="5,2" d="M462,-72.72C462,-64.27 462,-54.89 462,-46.36"/>
<polygon fill="black" stroke="black" points="465.5,-46.15 462,-36.15 458.5,-46.15 465.5,-46.15"/>
</g>
<!-- c2a9a363&#45;8ad5&#45;4c1c&#45;af36&#45;bbf1da754f63 -->
<g id="node6" class="node">
<title>c2a9a363&#45;8ad5&#45;4c1c&#45;af36&#45;bbf1da754f63</title>
<ellipse fill="white" stroke="black" cx="1072" cy="-99.87" rx="124.4" ry="26.74"/>
<text text-anchor="middle" x="1072" y="-103.67" font-family="Helvetica,sans-Serif" font-size="14.00">▶ Modify</text>
<text text-anchor="middle" x="1072" y="-88.67" font-family="Helvetica,sans-Serif" font-size="14.00">ultra_type/controller.py</text>
</g>
<!-- 0dcba031&#45;916d&#45;472e&#45;87cf&#45;9337e1b13f56&#45;&gt;c2a9a363&#45;8ad5&#45;4c1c&#45;af36&#45;bbf1da754f63 -->
<g id="edge6" class="edge">
<title>0dcba031&#45;916d&#45;472e&#45;87cf&#45;9337e1b13f56&#45;&gt;c2a9a363&#45;8ad5&#45;4c1c&#45;af36&#45;bbf1da754f63</title>
<path fill="none" stroke="black" d="M877.17,-99.87C897.14,-99.87 917.1,-99.87 937.07,-99.87"/>
<polygon fill="black" stroke="black" points="937.19,-103.37 947.19,-99.87 937.19,-96.37 937.19,-103.37"/>
</g>
<!-- 778b5f59&#45;2ce2&#45;4834&#45;b070&#45;f7b43ce966ec -->
<g id="node9" class="node">
<title>778b5f59&#45;2ce2&#45;4834&#45;b070&#45;f7b43ce966ec</title>
<polygon fill="white" stroke="black" points="924,-36 628,-36 628,0 924,0 924,-36"/>
<text text-anchor="middle" x="776" y="-14.3" font-family="Helvetica,sans-Serif" font-size="14.00">▶ Ran sandbox for `ultra_type/view.py`.</text>
</g>
<!-- 0dcba031&#45;916d&#45;472e&#45;87cf&#45;9337e1b13f56&#45;&gt;778b5f59&#45;2ce2&#45;4834&#45;b070&#45;f7b43ce966ec -->
<g id="edge5" class="edge">
<title>0dcba031&#45;916d&#45;472e&#45;87cf&#45;9337e1b13f56&#45;&gt;778b5f59&#45;2ce2&#45;4834&#45;b070&#45;f7b43ce966ec</title>
<path fill="none" stroke="black" stroke-dasharray="5,2" d="M776,-72.72C776,-64.27 776,-54.89 776,-46.36"/>
<polygon fill="black" stroke="black" points="779.5,-46.15 776,-36.15 772.5,-46.15 779.5,-46.15"/>
</g>
<!-- c2a9a363&#45;8ad5&#45;4c1c&#45;af36&#45;bbf1da754f63&#45;&gt;end -->
<g id="edge9" class="edge">
<title>c2a9a363&#45;8ad5&#45;4c1c&#45;af36&#45;bbf1da754f63&#45;&gt;end</title>
<path fill="none" stroke="black" d="M1196.91,-99.87C1216.03,-99.87 1232.81,-99.87 1243.15,-99.87"/>
<polygon fill="black" stroke="black" points="1243.35,-103.37 1253.35,-99.87 1243.35,-96.37 1243.35,-103.37"/>
<text text-anchor="middle" x="1224.98" y="-106.67" font-family="Helvetica,sans-Serif" font-size="14.00">Finish</text>
</g>
<!-- a1297533&#45;a9de&#45;4794&#45;881f&#45;5834a7dd539d -->
<g id="node10" class="node">
<title>a1297533&#45;a9de&#45;4794&#45;881f&#45;5834a7dd539d</title>
<polygon fill="white" stroke="black" points="1271.5,-36 942.5,-36 942.5,0 1271.5,0 1271.5,-36"/>
<text text-anchor="middle" x="1107" y="-14.3" font-family="Helvetica,sans-Serif" font-size="14.00">▶ Ran sandbox for `ultra_type/controller.py`.</text>
</g>
<!-- c2a9a363&#45;8ad5&#45;4c1c&#45;af36&#45;bbf1da754f63&#45;&gt;a1297533&#45;a9de&#45;4794&#45;881f&#45;5834a7dd539d -->
<g id="edge7" class="edge">
<title>c2a9a363&#45;8ad5&#45;4c1c&#45;af36&#45;bbf1da754f63&#45;&gt;a1297533&#45;a9de&#45;4794&#45;881f&#45;5834a7dd539d</title>
<path fill="none" stroke="black" stroke-dasharray="5,2" d="M1083.46,-72.72C1087.28,-63.99 1091.55,-54.26 1095.38,-45.51"/>
<polygon fill="black" stroke="black" points="1098.68,-46.71 1099.49,-36.15 1092.27,-43.9 1098.68,-46.71"/>
</g>
</g>
</svg>
