<?xml version="1.0" encoding="UTF-8" standalone="no"?>
<!DOCTYPE svg PUBLIC "-//W3C//DTD SVG 1.1//EN"
 "http://www.w3.org/Graphics/SVG/1.1/DTD/svg11.dtd">
<!-- Generated by graphviz version 2.43.0 (0)
 -->
<!-- Title: %3 Pages: 1 -->
<svg width="425pt" height="238pt"
 viewBox="0.00 0.00 425.00 237.74" xmlns="http://www.w3.org/2000/svg" xmlns:xlink="http://www.w3.org/1999/xlink">
<g id="graph0" class="graph" transform="scale(1 1) rotate(0) translate(36 201.74)">
<title>%3</title>
<polygon fill="dimgray" stroke="transparent" points="-36,36 -36,-201.74 389,-201.74 389,36 -36,36"/>
<text text-anchor="middle" x="176.5" y="-150.54" font-family="Helvetica,sans-Serif" font-size="14.00">Sweep&#39;s Plan &amp; Progress</text>
<!-- start -->
<g id="node1" class="node">
<title>start</title>
</g>
<!-- c8ff3889&#45;0d8d&#45;4dc3&#45;9b2c&#45;382197bb31af -->
<g id="node3" class="node">
<title>c8ff3889&#45;0d8d&#45;4dc3&#45;9b2c&#45;382197bb31af</title>
<ellipse fill="#0ee832" stroke="black" cx="173.5" cy="-99.87" rx="120.83" ry="26.74"/>
<text text-anchor="middle" x="173.5" y="-103.67" font-family="Helvetica,sans-Serif" font-size="14.00">✓ Test</text>
<text text-anchor="middle" x="173.5" y="-88.67" font-family="Helvetica,sans-Serif" font-size="14.00">tests/test_statistics.py</text>
</g>
<!-- start&#45;&gt;c8ff3889&#45;0d8d&#45;4dc3&#45;9b2c&#45;382197bb31af -->
<g id="edge2" class="edge">
<title>start&#45;&gt;c8ff3889&#45;0d8d&#45;4dc3&#45;9b2c&#45;382197bb31af</title>
<path fill="none" stroke="black" d="M1.27,-99.87C4.93,-99.87 21.23,-99.87 42.45,-99.87"/>
<polygon fill="black" stroke="black" points="42.52,-103.37 52.52,-99.87 42.52,-96.37 42.52,-103.37"/>
<text text-anchor="middle" x="26.79" y="-106.67" font-family="Helvetica,sans-Serif" font-size="14.00">Start</text>
</g>
<!-- end -->
<g id="node2" class="node">
<title>end</title>
</g>
<!-- c8ff3889&#45;0d8d&#45;4dc3&#45;9b2c&#45;382197bb31af&#45;&gt;end -->
<g id="edge3" class="edge">
<title>c8ff3889&#45;0d8d&#45;4dc3&#45;9b2c&#45;382197bb31af&#45;&gt;end</title>
<path fill="none" stroke="black" d="M294.88,-99.87C314.09,-99.87 331.05,-99.87 341.51,-99.87"/>
<polygon fill="black" stroke="black" points="341.84,-103.37 351.84,-99.87 341.84,-96.37 341.84,-103.37"/>
<text text-anchor="middle" x="323.21" y="-106.67" font-family="Helvetica,sans-Serif" font-size="14.00">Finish</text>
</g>
<!-- 03d05cdb&#45;89c1&#45;44a3&#45;a89b&#45;b2b9cf31aebb -->
<g id="node4" class="node">
<title>03d05cdb&#45;89c1&#45;44a3&#45;a89b&#45;b2b9cf31aebb</title>
<polygon fill="white" stroke="black" points="335,-36 12,-36 12,0 335,0 335,-36"/>
<text text-anchor="middle" x="173.5" y="-14.3" font-family="Helvetica,sans-Serif" font-size="14.00">▶ Ran sandbox for `tests/test_statistics.py`.</text>
</g>
<!-- c8ff3889&#45;0d8d&#45;4dc3&#45;9b2c&#45;382197bb31af&#45;&gt;03d05cdb&#45;89c1&#45;44a3&#45;a89b&#45;b2b9cf31aebb -->
<g id="edge1" class="edge">
<title>c8ff3889&#45;0d8d&#45;4dc3&#45;9b2c&#45;382197bb31af&#45;&gt;03d05cdb&#45;89c1&#45;44a3&#45;a89b&#45;b2b9cf31aebb</title>
<path fill="none" stroke="black" stroke-dasharray="5,2" d="M173.5,-72.72C173.5,-64.27 173.5,-54.89 173.5,-46.36"/>
<polygon fill="black" stroke="black" points="177,-46.15 173.5,-36.15 170,-46.15 177,-46.15"/>
</g>
</g>
</svg>
