<?xml version="1.0" encoding="UTF-8" standalone="no"?>
<!DOCTYPE svg PUBLIC "-//W3C//DTD SVG 1.1//EN"
 "http://www.w3.org/Graphics/SVG/1.1/DTD/svg11.dtd">
<!-- Generated by graphviz version 2.43.0 (0)
 -->
<!-- Title: %3 Pages: 1 -->
<svg width="751pt" height="415pt"
 viewBox="0.00 0.00 750.50 415.48" xmlns="http://www.w3.org/2000/svg" xmlns:xlink="http://www.w3.org/1999/xlink">
<g id="graph0" class="graph" transform="scale(1 1) rotate(0) translate(36 379.48)">
<title>%3</title>
<polygon fill="dimgray" stroke="transparent" points="-36,36 -36,-379.48 714.5,-379.48 714.5,36 -36,36"/>
<text text-anchor="middle" x="339.25" y="-328.28" font-family="Helvetica,sans-Serif" font-size="14.00">Sweep&#39;s Plan &amp; Progress</text>
<!-- start -->
<g id="node1" class="node">
<title>start</title>
</g>
<!-- 7e80c70c&#45;48a6&#45;452d&#45;abb0&#45;9c6c4163cec5 -->
<g id="node3" class="node">
<title>7e80c70c&#45;48a6&#45;452d&#45;abb0&#45;9c6c4163cec5</title>
<ellipse fill="#0ee832" stroke="black" cx="421" cy="-277.61" rx="124.4" ry="26.74"/>
<text text-anchor="middle" x="421" y="-281.41" font-family="Helvetica,sans-Serif" font-size="14.00">✓ Modify</text>
<text text-anchor="middle" x="421" y="-266.41" font-family="Helvetica,sans-Serif" font-size="14.00">ultra_type/controller.py</text>
</g>
<!-- start&#45;&gt;7e80c70c&#45;48a6&#45;452d&#45;abb0&#45;9c6c4163cec5 -->
<g id="edge5" class="edge">
<title>start&#45;&gt;7e80c70c&#45;48a6&#45;452d&#45;abb0&#45;9c6c4163cec5</title>
<path fill="none" stroke="black" d="M245.5,-277.61C248.51,-277.61 264.66,-277.61 286.04,-277.61"/>
<polygon fill="black" stroke="black" points="286.2,-281.11 296.2,-277.61 286.2,-274.11 286.2,-281.11"/>
<text text-anchor="middle" x="271.02" y="-284.41" font-family="Helvetica,sans-Serif" font-size="14.00">Start</text>
</g>
<!-- end -->
<g id="node2" class="node">
<title>end</title>
</g>
<!-- 7e80c70c&#45;48a6&#45;452d&#45;abb0&#45;9c6c4163cec5&#45;&gt;end -->
<g id="edge6" class="edge">
<title>7e80c70c&#45;48a6&#45;452d&#45;abb0&#45;9c6c4163cec5&#45;&gt;end</title>
<path fill="none" stroke="black" d="M545.91,-277.61C565.03,-277.61 581.81,-277.61 592.15,-277.61"/>
<polygon fill="black" stroke="black" points="592.35,-281.11 602.35,-277.61 592.35,-274.11 592.35,-281.11"/>
<text text-anchor="middle" x="573.98" y="-284.41" font-family="Helvetica,sans-Serif" font-size="14.00">Finish</text>
</g>
<!-- 1f91a768&#45;e50b&#45;46f4&#45;9b40&#45;60b5e5b4eee2 -->
<g id="node4" class="node">
<title>1f91a768&#45;e50b&#45;46f4&#45;9b40&#45;60b5e5b4eee2</title>
<polygon fill="#ee0000" stroke="black" points="331,-213.74 1,-213.74 1,-177.74 331,-177.74 331,-213.74"/>
<text text-anchor="middle" x="166" y="-192.04" font-family="Helvetica,sans-Serif" font-size="14.00">✗ Ran sandbox for `ultra_type/controller.py`.</text>
</g>
<!-- 7e80c70c&#45;48a6&#45;452d&#45;abb0&#45;9c6c4163cec5&#45;&gt;1f91a768&#45;e50b&#45;46f4&#45;9b40&#45;60b5e5b4eee2 -->
<g id="edge1" class="edge">
<title>7e80c70c&#45;48a6&#45;452d&#45;abb0&#45;9c6c4163cec5&#45;&gt;1f91a768&#45;e50b&#45;46f4&#45;9b40&#45;60b5e5b4eee2</title>
<path fill="none" stroke="black" stroke-dasharray="5,2" d="M352.33,-255.1C314.41,-243.23 267.61,-228.57 230.39,-216.91"/>
<polygon fill="black" stroke="black" points="231.25,-213.51 220.66,-213.86 229.16,-220.19 231.25,-213.51"/>
</g>
<!-- 747499c1&#45;edcc&#45;4c8b&#45;bd30&#45;a8222f962f78 -->
<g id="node5" class="node">
<title>747499c1&#45;edcc&#45;4c8b&#45;bd30&#45;a8222f962f78</title>
<polygon fill="white" stroke="black" points="678.5,-213.74 349.5,-213.74 349.5,-177.74 678.5,-177.74 678.5,-213.74"/>
<text text-anchor="middle" x="514" y="-192.04" font-family="Helvetica,sans-Serif" font-size="14.00">▶ Ran sandbox for `ultra_type/controller.py`.</text>
</g>
<!-- 7e80c70c&#45;48a6&#45;452d&#45;abb0&#45;9c6c4163cec5&#45;&gt;747499c1&#45;edcc&#45;4c8b&#45;bd30&#45;a8222f962f78 -->
<g id="edge4" class="edge">
<title>7e80c70c&#45;48a6&#45;452d&#45;abb0&#45;9c6c4163cec5&#45;&gt;747499c1&#45;edcc&#45;4c8b&#45;bd30&#45;a8222f962f78</title>
<path fill="none" stroke="black" stroke-dasharray="5,2" d="M450.43,-251.34C461.9,-241.48 474.99,-230.24 486.29,-220.53"/>
<polygon fill="black" stroke="black" points="488.86,-222.95 494.16,-213.78 484.3,-217.64 488.86,-222.95"/>
</g>
<!-- bab0e844&#45;a3d7&#45;4408&#45;b71b&#45;13f37d594be1 -->
<g id="node6" class="node">
<title>bab0e844&#45;a3d7&#45;4408&#45;b71b&#45;13f37d594be1</title>
<ellipse fill="#0ee832" stroke="black" cx="166" cy="-99.87" rx="124.4" ry="26.74"/>
<text text-anchor="middle" x="166" y="-103.67" font-family="Helvetica,sans-Serif" font-size="14.00">✓ Modify</text>
<text text-anchor="middle" x="166" y="-88.67" font-family="Helvetica,sans-Serif" font-size="14.00">ultra_type/controller.py</text>
</g>
<!-- 1f91a768&#45;e50b&#45;46f4&#45;9b40&#45;60b5e5b4eee2&#45;&gt;bab0e844&#45;a3d7&#45;4408&#45;b71b&#45;13f37d594be1 -->
<g id="edge2" class="edge">
<title>1f91a768&#45;e50b&#45;46f4&#45;9b40&#45;60b5e5b4eee2&#45;&gt;bab0e844&#45;a3d7&#45;4408&#45;b71b&#45;13f37d594be1</title>
<path fill="none" stroke="black" d="M166,-177.52C166,-166.22 166,-151.01 166,-137.12"/>
<polygon fill="black" stroke="black" points="169.5,-136.84 166,-126.84 162.5,-136.84 169.5,-136.84"/>
<text text-anchor="middle" x="263.5" y="-148.54" font-family="Helvetica,sans-Serif" font-size="14.00">Additional changes required</text>
</g>
<!-- eaa82886&#45;7418&#45;4617&#45;8655&#45;9b90bdcb61f3 -->
<g id="node7" class="node">
<title>eaa82886&#45;7418&#45;4617&#45;8655&#45;9b90bdcb61f3</title>
<polygon fill="yellow" stroke="black" points="332,-36 0,-36 0,0 332,0 332,-36"/>
<text text-anchor="middle" x="166" y="-14.3" font-family="Helvetica,sans-Serif" font-size="14.00">⋯ Ran sandbox for `ultra_type/controller.py`.</text>
</g>
<!-- bab0e844&#45;a3d7&#45;4408&#45;b71b&#45;13f37d594be1&#45;&gt;eaa82886&#45;7418&#45;4617&#45;8655&#45;9b90bdcb61f3 -->
<g id="edge3" class="edge">
<title>bab0e844&#45;a3d7&#45;4408&#45;b71b&#45;13f37d594be1&#45;&gt;eaa82886&#45;7418&#45;4617&#45;8655&#45;9b90bdcb61f3</title>
<path fill="none" stroke="black" stroke-dasharray="5,2" d="M166,-72.72C166,-64.27 166,-54.89 166,-46.36"/>
<polygon fill="black" stroke="black" points="169.5,-46.15 166,-36.15 162.5,-46.15 169.5,-46.15"/>
</g>
</g>
</svg>
