<?xml version="1.0" encoding="UTF-8" standalone="no"?>
<!DOCTYPE svg PUBLIC "-//W3C//DTD SVG 1.1//EN"
 "http://www.w3.org/Graphics/SVG/1.1/DTD/svg11.dtd">
<!-- Generated by graphviz version 2.43.0 (0)
 -->
<!-- Title: %3 Pages: 1 -->
<svg width="431pt" height="238pt"
 viewBox="0.00 0.00 431.00 237.74" xmlns="http://www.w3.org/2000/svg" xmlns:xlink="http://www.w3.org/1999/xlink">
<g id="graph0" class="graph" transform="scale(1 1) rotate(0) translate(36 201.74)">
<title>%3</title>
<polygon fill="dimgray" stroke="transparent" points="-36,36 -36,-201.74 395,-201.74 395,36 -36,36"/>
<text text-anchor="middle" x="179.5" y="-150.54" font-family="Helvetica,sans-Serif" font-size="14.00">Sweep&#39;s Plan &amp; Progress</text>
<!-- start -->
<g id="node1" class="node">
<title>start</title>
</g>
<!-- 5d7c54de&#45;05ae&#45;4ada&#45;8cc1&#45;c1dcb7b1f856 -->
<g id="node3" class="node">
<title>5d7c54de&#45;05ae&#45;4ada&#45;8cc1&#45;c1dcb7b1f856</title>
<ellipse fill="#0ee832" stroke="black" cx="176.5" cy="-99.87" rx="124.4" ry="26.74"/>
<text text-anchor="middle" x="176.5" y="-103.67" font-family="Helvetica,sans-Serif" font-size="14.00">✓ Modify</text>
<text text-anchor="middle" x="176.5" y="-88.67" font-family="Helvetica,sans-Serif" font-size="14.00">ultra_type/controller.py</text>
</g>
<!-- start&#45;&gt;5d7c54de&#45;05ae&#45;4ada&#45;8cc1&#45;c1dcb7b1f856 -->
<g id="edge2" class="edge">
<title>start&#45;&gt;5d7c54de&#45;05ae&#45;4ada&#45;8cc1&#45;c1dcb7b1f856</title>
<path fill="none" stroke="black" d="M1,-99.87C4.01,-99.87 20.16,-99.87 41.54,-99.87"/>
<polygon fill="black" stroke="black" points="41.7,-103.37 51.7,-99.87 41.7,-96.37 41.7,-103.37"/>
<text text-anchor="middle" x="26.52" y="-106.67" font-family="Helvetica,sans-Serif" font-size="14.00">Start</text>
</g>
<!-- end -->
<g id="node2" class="node">
<title>end</title>
</g>
<!-- 5d7c54de&#45;05ae&#45;4ada&#45;8cc1&#45;c1dcb7b1f856&#45;&gt;end -->
<g id="edge3" class="edge">
<title>5d7c54de&#45;05ae&#45;4ada&#45;8cc1&#45;c1dcb7b1f856&#45;&gt;end</title>
<path fill="none" stroke="black" d="M301.41,-99.87C320.53,-99.87 337.31,-99.87 347.65,-99.87"/>
<polygon fill="black" stroke="black" points="347.85,-103.37 357.85,-99.87 347.85,-96.37 347.85,-103.37"/>
<text text-anchor="middle" x="329.48" y="-106.67" font-family="Helvetica,sans-Serif" font-size="14.00">Finish</text>
</g>
<!-- b8c6d2a2&#45;60ec&#45;4a87&#45;a96b&#45;5f17f0d114b9 -->
<g id="node4" class="node">
<title>b8c6d2a2&#45;60ec&#45;4a87&#45;a96b&#45;5f17f0d114b9</title>
<polygon fill="yellow" stroke="black" points="342.5,-36 10.5,-36 10.5,0 342.5,0 342.5,-36"/>
<text text-anchor="middle" x="176.5" y="-14.3" font-family="Helvetica,sans-Serif" font-size="14.00">⋯ Ran sandbox for `ultra_type/controller.py`.</text>
</g>
<!-- 5d7c54de&#45;05ae&#45;4ada&#45;8cc1&#45;c1dcb7b1f856&#45;&gt;b8c6d2a2&#45;60ec&#45;4a87&#45;a96b&#45;5f17f0d114b9 -->
<g id="edge1" class="edge">
<title>5d7c54de&#45;05ae&#45;4ada&#45;8cc1&#45;c1dcb7b1f856&#45;&gt;b8c6d2a2&#45;60ec&#45;4a87&#45;a96b&#45;5f17f0d114b9</title>
<path fill="none" stroke="black" stroke-dasharray="5,2" d="M176.5,-72.72C176.5,-64.27 176.5,-54.89 176.5,-46.36"/>
<polygon fill="black" stroke="black" points="180,-46.15 176.5,-36.15 173,-46.15 180,-46.15"/>
</g>
</g>
</svg>
