<?xml version="1.0" encoding="UTF-8" standalone="no"?>
<!DOCTYPE svg PUBLIC "-//W3C//DTD SVG 1.1//EN"
 "http://www.w3.org/Graphics/SVG/1.1/DTD/svg11.dtd">
<!-- Generated by graphviz version 2.43.0 (0)
 -->
<!-- Title: %3 Pages: 1 -->
<svg width="1526pt" height="238pt"
 viewBox="0.00 0.00 1526.00 237.74" xmlns="http://www.w3.org/2000/svg" xmlns:xlink="http://www.w3.org/1999/xlink">
<g id="graph0" class="graph" transform="scale(1 1) rotate(0) translate(36 201.74)">
<title>%3</title>
<polygon fill="dimgray" stroke="transparent" points="-36,36 -36,-201.74 1490,-201.74 1490,36 -36,36"/>
<text text-anchor="middle" x="727" y="-150.54" font-family="Helvetica,sans-Serif" font-size="14.00">Sweep&#39;s Plan &amp; Progress</text>
<!-- start -->
<g id="node1" class="node">
<title>start</title>
</g>
<!-- c7e9640d&#45;3b4d&#45;4da3&#45;aa4e&#45;3776dc4f84c7 -->
<g id="node3" class="node">
<title>c7e9640d&#45;3b4d&#45;4da3&#45;aa4e&#45;3776dc4f84c7</title>
<ellipse fill="#0ee832" stroke="black" cx="240.5" cy="-99.87" rx="124.4" ry="26.74"/>
<text text-anchor="middle" x="240.5" y="-103.67" font-family="Helvetica,sans-Serif" font-size="14.00">✓ Modify</text>
<text text-anchor="middle" x="240.5" y="-88.67" font-family="Helvetica,sans-Serif" font-size="14.00">ultra_type/controller.py</text>
</g>
<!-- start&#45;&gt;c7e9640d&#45;3b4d&#45;4da3&#45;aa4e&#45;3776dc4f84c7 -->
<g id="edge8" class="edge">
<title>start&#45;&gt;c7e9640d&#45;3b4d&#45;4da3&#45;aa4e&#45;3776dc4f84c7</title>
<path fill="none" stroke="black" d="M65,-99.87C68.01,-99.87 84.16,-99.87 105.54,-99.87"/>
<polygon fill="black" stroke="black" points="105.7,-103.37 115.7,-99.87 105.7,-96.37 105.7,-103.37"/>
<text text-anchor="middle" x="90.52" y="-106.67" font-family="Helvetica,sans-Serif" font-size="14.00">Start</text>
</g>
<!-- end -->
<g id="node2" class="node">
<title>end</title>
</g>
<!-- c2ec7600&#45;ce16&#45;4a7b&#45;9ad1&#45;3bcf3d33a2f3 -->
<g id="node4" class="node">
<title>c2ec7600&#45;ce16&#45;4a7b&#45;9ad1&#45;3bcf3d33a2f3</title>
<ellipse fill="white" stroke="black" cx="556.5" cy="-99.87" rx="101.23" ry="26.74"/>
<text text-anchor="middle" x="556.5" y="-103.67" font-family="Helvetica,sans-Serif" font-size="14.00">▶ Modify</text>
<text text-anchor="middle" x="556.5" y="-88.67" font-family="Helvetica,sans-Serif" font-size="14.00">ultra_type/view.py</text>
</g>
<!-- c7e9640d&#45;3b4d&#45;4da3&#45;aa4e&#45;3776dc4f84c7&#45;&gt;c2ec7600&#45;ce16&#45;4a7b&#45;9ad1&#45;3bcf3d33a2f3 -->
<g id="edge2" class="edge">
<title>c7e9640d&#45;3b4d&#45;4da3&#45;aa4e&#45;3776dc4f84c7&#45;&gt;c2ec7600&#45;ce16&#45;4a7b&#45;9ad1&#45;3bcf3d33a2f3</title>
<path fill="none" stroke="black" d="M365.17,-99.87C391.79,-99.87 418.41,-99.87 445.03,-99.87"/>
<polygon fill="black" stroke="black" points="445.23,-103.37 455.23,-99.87 445.23,-96.37 445.23,-103.37"/>
</g>
<!-- 3c28abea&#45;0cbd&#45;46cd&#45;bb61&#45;36ca66e11756 -->
<g id="node7" class="node">
<title>3c28abea&#45;0cbd&#45;46cd&#45;bb61&#45;36ca66e11756</title>
<polygon fill="yellow" stroke="black" points="371,-36 0,-36 0,0 371,0 371,-36"/>
<text text-anchor="middle" x="185.5" y="-14.3" font-family="Helvetica,sans-Serif" font-size="14.00">⋯ Run GitHub Actions for `ultra_type/controller.py`</text>
</g>
<!-- c7e9640d&#45;3b4d&#45;4da3&#45;aa4e&#45;3776dc4f84c7&#45;&gt;3c28abea&#45;0cbd&#45;46cd&#45;bb61&#45;36ca66e11756 -->
<g id="edge1" class="edge">
<title>c7e9640d&#45;3b4d&#45;4da3&#45;aa4e&#45;3776dc4f84c7&#45;&gt;3c28abea&#45;0cbd&#45;46cd&#45;bb61&#45;36ca66e11756</title>
<path fill="none" stroke="black" stroke-dasharray="5,2" d="M222.79,-73.16C216.51,-64.04 209.45,-53.77 203.17,-44.65"/>
<polygon fill="black" stroke="black" points="205.99,-42.59 197.44,-36.34 200.23,-46.56 205.99,-42.59"/>
</g>
<!-- 2d244272&#45;6c92&#45;4878&#45;aee1&#45;6b6b1470b4be -->
<g id="node5" class="node">
<title>2d244272&#45;6c92&#45;4878&#45;aee1&#45;6b6b1470b4be</title>
<ellipse fill="white" stroke="black" cx="915.5" cy="-99.87" rx="109.7" ry="26.74"/>
<text text-anchor="middle" x="915.5" y="-103.67" font-family="Helvetica,sans-Serif" font-size="14.00">▶ Modify</text>
<text text-anchor="middle" x="915.5" y="-88.67" font-family="Helvetica,sans-Serif" font-size="14.00">ultra_type/clicker.py</text>
</g>
<!-- c2ec7600&#45;ce16&#45;4a7b&#45;9ad1&#45;3bcf3d33a2f3&#45;&gt;2d244272&#45;6c92&#45;4878&#45;aee1&#45;6b6b1470b4be -->
<g id="edge4" class="edge">
<title>c2ec7600&#45;ce16&#45;4a7b&#45;9ad1&#45;3bcf3d33a2f3&#45;&gt;2d244272&#45;6c92&#45;4878&#45;aee1&#45;6b6b1470b4be</title>
<path fill="none" stroke="black" d="M657.82,-99.87C703.77,-99.87 749.72,-99.87 795.67,-99.87"/>
<polygon fill="black" stroke="black" points="795.78,-103.37 805.78,-99.87 795.78,-96.37 795.78,-103.37"/>
</g>
<!-- d1135ece&#45;305b&#45;45b4&#45;8061&#45;f003f37c09ea -->
<g id="node8" class="node">
<title>d1135ece&#45;305b&#45;45b4&#45;8061&#45;f003f37c09ea</title>
<polygon fill="white" stroke="black" points="724,-36 389,-36 389,0 724,0 724,-36"/>
<text text-anchor="middle" x="556.5" y="-14.3" font-family="Helvetica,sans-Serif" font-size="14.00">▶ Run GitHub Actions for `ultra_type/view.py`</text>
</g>
<!-- c2ec7600&#45;ce16&#45;4a7b&#45;9ad1&#45;3bcf3d33a2f3&#45;&gt;d1135ece&#45;305b&#45;45b4&#45;8061&#45;f003f37c09ea -->
<g id="edge3" class="edge">
<title>c2ec7600&#45;ce16&#45;4a7b&#45;9ad1&#45;3bcf3d33a2f3&#45;&gt;d1135ece&#45;305b&#45;45b4&#45;8061&#45;f003f37c09ea</title>
<path fill="none" stroke="black" stroke-dasharray="5,2" d="M556.5,-72.72C556.5,-64.27 556.5,-54.89 556.5,-46.36"/>
<polygon fill="black" stroke="black" points="560,-46.15 556.5,-36.15 553,-46.15 560,-46.15"/>
</g>
<!-- 9c8d3b8e&#45;16b1&#45;4a41&#45;92fe&#45;722412f87a5a -->
<g id="node6" class="node">
<title>9c8d3b8e&#45;16b1&#45;4a41&#45;92fe&#45;722412f87a5a</title>
<ellipse fill="white" stroke="black" cx="1225.5" cy="-99.87" rx="109.7" ry="26.74"/>
<text text-anchor="middle" x="1225.5" y="-103.67" font-family="Helvetica,sans-Serif" font-size="14.00">▶ Modify</text>
<text text-anchor="middle" x="1225.5" y="-88.67" font-family="Helvetica,sans-Serif" font-size="14.00">ultra_type/model.py</text>
</g>
<!-- 2d244272&#45;6c92&#45;4878&#45;aee1&#45;6b6b1470b4be&#45;&gt;9c8d3b8e&#45;16b1&#45;4a41&#45;92fe&#45;722412f87a5a -->
<g id="edge6" class="edge">
<title>2d244272&#45;6c92&#45;4878&#45;aee1&#45;6b6b1470b4be&#45;&gt;9c8d3b8e&#45;16b1&#45;4a41&#45;92fe&#45;722412f87a5a</title>
<path fill="none" stroke="black" d="M1025.39,-99.87C1052.08,-99.87 1078.76,-99.87 1105.45,-99.87"/>
<polygon fill="black" stroke="black" points="1105.68,-103.37 1115.68,-99.87 1105.68,-96.37 1105.68,-103.37"/>
</g>
<!-- 17c51c98&#45;ac86&#45;4479&#45;a184&#45;5b786bc50634 -->
<g id="node9" class="node">
<title>17c51c98&#45;ac86&#45;4479&#45;a184&#45;5b786bc50634</title>
<polygon fill="white" stroke="black" points="1089,-36 742,-36 742,0 1089,0 1089,-36"/>
<text text-anchor="middle" x="915.5" y="-14.3" font-family="Helvetica,sans-Serif" font-size="14.00">▶ Run GitHub Actions for `ultra_type/clicker.py`</text>
</g>
<!-- 2d244272&#45;6c92&#45;4878&#45;aee1&#45;6b6b1470b4be&#45;&gt;17c51c98&#45;ac86&#45;4479&#45;a184&#45;5b786bc50634 -->
<g id="edge5" class="edge">
<title>2d244272&#45;6c92&#45;4878&#45;aee1&#45;6b6b1470b4be&#45;&gt;17c51c98&#45;ac86&#45;4479&#45;a184&#45;5b786bc50634</title>
<path fill="none" stroke="black" stroke-dasharray="5,2" d="M915.5,-72.72C915.5,-64.27 915.5,-54.89 915.5,-46.36"/>
<polygon fill="black" stroke="black" points="919,-46.15 915.5,-36.15 912,-46.15 919,-46.15"/>
</g>
<!-- 9c8d3b8e&#45;16b1&#45;4a41&#45;92fe&#45;722412f87a5a&#45;&gt;end -->
<g id="edge9" class="edge">
<title>9c8d3b8e&#45;16b1&#45;4a41&#45;92fe&#45;722412f87a5a&#45;&gt;end</title>
<path fill="none" stroke="black" d="M1335.21,-99.87C1354.62,-99.87 1372.01,-99.87 1382.63,-99.87"/>
<polygon fill="black" stroke="black" points="1382.82,-103.37 1392.82,-99.87 1382.82,-96.37 1382.82,-103.37"/>
<text text-anchor="middle" x="1364.05" y="-106.67" font-family="Helvetica,sans-Serif" font-size="14.00">Finish</text>
</g>
<!-- 99d3e6cc&#45;eea9&#45;4d81&#45;8314&#45;bf889d364369 -->
<g id="node10" class="node">
<title>99d3e6cc&#45;eea9&#45;4d81&#45;8314&#45;bf889d364369</title>
<polygon fill="white" stroke="black" points="1454,-36 1107,-36 1107,0 1454,0 1454,-36"/>
<text text-anchor="middle" x="1280.5" y="-14.3" font-family="Helvetica,sans-Serif" font-size="14.00">▶ Run GitHub Actions for `ultra_type/model.py`</text>
</g>
<!-- 9c8d3b8e&#45;16b1&#45;4a41&#45;92fe&#45;722412f87a5a&#45;&gt;99d3e6cc&#45;eea9&#45;4d81&#45;8314&#45;bf889d364369 -->
<g id="edge7" class="edge">
<title>9c8d3b8e&#45;16b1&#45;4a41&#45;92fe&#45;722412f87a5a&#45;&gt;99d3e6cc&#45;eea9&#45;4d81&#45;8314&#45;bf889d364369</title>
<path fill="none" stroke="black" stroke-dasharray="5,2" d="M1243.21,-73.16C1249.49,-64.04 1256.55,-53.77 1262.83,-44.65"/>
<polygon fill="black" stroke="black" points="1265.77,-46.56 1268.56,-36.34 1260.01,-42.59 1265.77,-46.56"/>
</g>
</g>
</svg>
