<?xml version="1.0" encoding="UTF-8" standalone="no"?>
<!DOCTYPE svg PUBLIC "-//W3C//DTD SVG 1.1//EN"
 "http://www.w3.org/Graphics/SVG/1.1/DTD/svg11.dtd">
<!-- Generated by graphviz version 2.43.0 (0)
 -->
<!-- Title: %3 Pages: 1 -->
<svg width="1346pt" height="165pt"
 viewBox="0.00 0.00 1346.00 164.74" xmlns="http://www.w3.org/2000/svg" xmlns:xlink="http://www.w3.org/1999/xlink">
<g id="graph0" class="graph" transform="scale(1 1) rotate(0) translate(36 128.74)">
<title>%3</title>
<polygon fill="dimgray" stroke="transparent" points="-36,36 -36,-128.74 1310,-128.74 1310,36 -36,36"/>
<text text-anchor="middle" x="637" y="-77.54" font-family="Helvetica,sans-Serif" font-size="14.00">Sweep&#39;s Plan &amp; Progress</text>
<!-- start -->
<g id="node1" class="node">
<title>start</title>
</g>
<!-- b08131c7&#45;e2fd&#45;4b60&#45;bc68&#45;b0dc173f1c7b -->
<g id="node3" class="node">
<title>b08131c7&#45;e2fd&#45;4b60&#45;bc68&#45;b0dc173f1c7b</title>
<ellipse fill="#0ee832" stroke="black" cx="162.5" cy="-26.87" rx="109.7" ry="26.74"/>
<text text-anchor="middle" x="162.5" y="-30.67" font-family="Helvetica,sans-Serif" font-size="14.00">✓ Modify</text>
<text text-anchor="middle" x="162.5" y="-15.67" font-family="Helvetica,sans-Serif" font-size="14.00">ultra_type/model.py</text>
</g>
<!-- start&#45;&gt;b08131c7&#45;e2fd&#45;4b60&#45;bc68&#45;b0dc173f1c7b -->
<g id="edge5" class="edge">
<title>start&#45;&gt;b08131c7&#45;e2fd&#45;4b60&#45;bc68&#45;b0dc173f1c7b</title>
<path fill="none" stroke="black" d="M1.22,-26.87C4.81,-26.87 21.35,-26.87 42.57,-26.87"/>
<polygon fill="black" stroke="black" points="42.62,-30.37 52.62,-26.87 42.62,-23.37 42.62,-30.37"/>
<text text-anchor="middle" x="26.95" y="-33.67" font-family="Helvetica,sans-Serif" font-size="14.00">Start</text>
</g>
<!-- end -->
<g id="node2" class="node">
<title>end</title>
</g>
<!-- 06a36339&#45;eb6c&#45;4e61&#45;a3ab&#45;e6d8c63628cb -->
<g id="node4" class="node">
<title>06a36339&#45;eb6c&#45;4e61&#45;a3ab&#45;e6d8c63628cb</title>
<ellipse fill="#0ee832" stroke="black" cx="432.5" cy="-26.87" rx="124.4" ry="26.74"/>
<text text-anchor="middle" x="432.5" y="-30.67" font-family="Helvetica,sans-Serif" font-size="14.00">✓ Modify</text>
<text text-anchor="middle" x="432.5" y="-15.67" font-family="Helvetica,sans-Serif" font-size="14.00">ultra_type/controller.py</text>
</g>
<!-- b08131c7&#45;e2fd&#45;4b60&#45;bc68&#45;b0dc173f1c7b&#45;&gt;06a36339&#45;eb6c&#45;4e61&#45;a3ab&#45;e6d8c63628cb -->
<g id="edge1" class="edge">
<title>b08131c7&#45;e2fd&#45;4b60&#45;bc68&#45;b0dc173f1c7b&#45;&gt;06a36339&#45;eb6c&#45;4e61&#45;a3ab&#45;e6d8c63628cb</title>
<path fill="none" stroke="black" d="M272.19,-26.87C280.74,-26.87 289.29,-26.87 297.84,-26.87"/>
<polygon fill="black" stroke="black" points="297.88,-30.37 307.88,-26.87 297.88,-23.37 297.88,-30.37"/>
</g>
<!-- 4872ae60&#45;3ce9&#45;4bda&#45;84da&#45;9c156d46a07f -->
<g id="node5" class="node">
<title>4872ae60&#45;3ce9&#45;4bda&#45;84da&#45;9c156d46a07f</title>
<ellipse fill="#0ee832" stroke="black" cx="696.5" cy="-26.87" rx="103.89" ry="26.74"/>
<text text-anchor="middle" x="696.5" y="-30.67" font-family="Helvetica,sans-Serif" font-size="14.00">✓ Modify</text>
<text text-anchor="middle" x="696.5" y="-15.67" font-family="Helvetica,sans-Serif" font-size="14.00">ultra_type/main.py</text>
</g>
<!-- 06a36339&#45;eb6c&#45;4e61&#45;a3ab&#45;e6d8c63628cb&#45;&gt;4872ae60&#45;3ce9&#45;4bda&#45;84da&#45;9c156d46a07f -->
<g id="edge2" class="edge">
<title>06a36339&#45;eb6c&#45;4e61&#45;a3ab&#45;e6d8c63628cb&#45;&gt;4872ae60&#45;3ce9&#45;4bda&#45;84da&#45;9c156d46a07f</title>
<path fill="none" stroke="black" d="M557.02,-26.87C565.42,-26.87 573.81,-26.87 582.2,-26.87"/>
<polygon fill="black" stroke="black" points="582.44,-30.37 592.44,-26.87 582.44,-23.37 582.44,-30.37"/>
</g>
<!-- 4adb0d44&#45;68bf&#45;4b3a&#45;98b8&#45;729d67c83cf1 -->
<g id="node6" class="node">
<title>4adb0d44&#45;68bf&#45;4b3a&#45;98b8&#45;729d67c83cf1</title>
<ellipse fill="#0ee832" stroke="black" cx="934.5" cy="-26.87" rx="98.08" ry="26.74"/>
<text text-anchor="middle" x="934.5" y="-30.67" font-family="Helvetica,sans-Serif" font-size="14.00">✓ Create</text>
<text text-anchor="middle" x="934.5" y="-15.67" font-family="Helvetica,sans-Serif" font-size="14.00">tests/test_user.py</text>
</g>
<!-- 4872ae60&#45;3ce9&#45;4bda&#45;84da&#45;9c156d46a07f&#45;&gt;4adb0d44&#45;68bf&#45;4b3a&#45;98b8&#45;729d67c83cf1 -->
<g id="edge3" class="edge">
<title>4872ae60&#45;3ce9&#45;4bda&#45;84da&#45;9c156d46a07f&#45;&gt;4adb0d44&#45;68bf&#45;4b3a&#45;98b8&#45;729d67c83cf1</title>
<path fill="none" stroke="black" d="M800.62,-26.87C809.14,-26.87 817.66,-26.87 826.18,-26.87"/>
<polygon fill="black" stroke="black" points="826.19,-30.37 836.19,-26.87 826.19,-23.37 826.19,-30.37"/>
</g>
<!-- 57828432&#45;84f3&#45;4389&#45;8f0d&#45;0948678a93bd -->
<g id="node7" class="node">
<title>57828432&#45;84f3&#45;4389&#45;8f0d&#45;0948678a93bd</title>
<ellipse fill="#0ee832" stroke="black" cx="1141.5" cy="-26.87" rx="73.58" ry="26.74"/>
<text text-anchor="middle" x="1141.5" y="-30.67" font-family="Helvetica,sans-Serif" font-size="14.00">✓ Modify</text>
<text text-anchor="middle" x="1141.5" y="-15.67" font-family="Helvetica,sans-Serif" font-size="14.00">README.md</text>
</g>
<!-- 4adb0d44&#45;68bf&#45;4b3a&#45;98b8&#45;729d67c83cf1&#45;&gt;57828432&#45;84f3&#45;4389&#45;8f0d&#45;0948678a93bd -->
<g id="edge4" class="edge">
<title>4adb0d44&#45;68bf&#45;4b3a&#45;98b8&#45;729d67c83cf1&#45;&gt;57828432&#45;84f3&#45;4389&#45;8f0d&#45;0948678a93bd</title>
<path fill="none" stroke="black" d="M1033.15,-26.87C1041.37,-26.87 1049.6,-26.87 1057.82,-26.87"/>
<polygon fill="black" stroke="black" points="1057.85,-30.37 1067.85,-26.87 1057.85,-23.37 1057.85,-30.37"/>
</g>
<!-- 57828432&#45;84f3&#45;4389&#45;8f0d&#45;0948678a93bd&#45;&gt;end -->
<g id="edge6" class="edge">
<title>57828432&#45;84f3&#45;4389&#45;8f0d&#45;0948678a93bd&#45;&gt;end</title>
<path fill="none" stroke="black" d="M1215.22,-26.87C1233.84,-26.87 1251.64,-26.87 1262.56,-26.87"/>
<polygon fill="black" stroke="black" points="1262.78,-30.37 1272.78,-26.87 1262.78,-23.37 1262.78,-30.37"/>
<text text-anchor="middle" x="1244.02" y="-33.67" font-family="Helvetica,sans-Serif" font-size="14.00">Finish</text>
</g>
</g>
</svg>
