<?xml version="1.0" encoding="UTF-8" standalone="no"?>
<!DOCTYPE svg PUBLIC "-//W3C//DTD SVG 1.1//EN"
 "http://www.w3.org/Graphics/SVG/1.1/DTD/svg11.dtd">
<!-- Generated by graphviz version 2.43.0 (0)
 -->
<!-- Title: %3 Pages: 1 -->
<svg width="1660pt" height="342pt"
 viewBox="0.00 0.00 1660.00 342.48" xmlns="http://www.w3.org/2000/svg" xmlns:xlink="http://www.w3.org/1999/xlink">
<g id="graph0" class="graph" transform="scale(1 1) rotate(0) translate(36 306.48)">
<title>%3</title>
<polygon fill="dimgray" stroke="transparent" points="-36,36 -36,-306.48 1624,-306.48 1624,36 -36,36"/>
<text text-anchor="middle" x="794" y="-255.28" font-family="Helvetica,sans-Serif" font-size="14.00">Sweep&#39;s Plan &amp; Progress</text>
<!-- start -->
<g id="node1" class="node">
<title>start</title>
</g>
<!-- c25745ea&#45;c295&#45;42a4&#45;aad1&#45;4ebfb5802c3a -->
<g id="node3" class="node">
<title>c25745ea&#45;c295&#45;42a4&#45;aad1&#45;4ebfb5802c3a</title>
<ellipse fill="#0ee832" stroke="black" cx="186.5" cy="-204.61" rx="101.23" ry="26.74"/>
<text text-anchor="middle" x="186.5" y="-208.41" font-family="Helvetica,sans-Serif" font-size="14.00">✓ Modify</text>
<text text-anchor="middle" x="186.5" y="-193.41" font-family="Helvetica,sans-Serif" font-size="14.00">ultra_type/view.py</text>
</g>
<!-- start&#45;&gt;c25745ea&#45;c295&#45;42a4&#45;aad1&#45;4ebfb5802c3a -->
<g id="edge10" class="edge">
<title>start&#45;&gt;c25745ea&#45;c295&#45;42a4&#45;aad1&#45;4ebfb5802c3a</title>
<path fill="none" stroke="black" d="M34.18,-204.61C37.66,-204.61 54.09,-204.61 74.96,-204.61"/>
<polygon fill="black" stroke="black" points="75.17,-208.11 85.17,-204.61 75.17,-201.11 75.17,-208.11"/>
<text text-anchor="middle" x="59.69" y="-211.41" font-family="Helvetica,sans-Serif" font-size="14.00">Start</text>
</g>
<!-- end -->
<g id="node2" class="node">
<title>end</title>
</g>
<!-- d6c9a186&#45;6269&#45;4f57&#45;8def&#45;9befd659fa35 -->
<g id="node4" class="node">
<title>d6c9a186&#45;6269&#45;4f57&#45;8def&#45;9befd659fa35</title>
<ellipse fill="#0ee832" stroke="black" cx="693.5" cy="-204.61" rx="101.23" ry="26.74"/>
<text text-anchor="middle" x="693.5" y="-208.41" font-family="Helvetica,sans-Serif" font-size="14.00">✓ Modify</text>
<text text-anchor="middle" x="693.5" y="-193.41" font-family="Helvetica,sans-Serif" font-size="14.00">ultra_type/view.py</text>
</g>
<!-- c25745ea&#45;c295&#45;42a4&#45;aad1&#45;4ebfb5802c3a&#45;&gt;d6c9a186&#45;6269&#45;4f57&#45;8def&#45;9befd659fa35 -->
<g id="edge2" class="edge">
<title>c25745ea&#45;c295&#45;42a4&#45;aad1&#45;4ebfb5802c3a&#45;&gt;d6c9a186&#45;6269&#45;4f57&#45;8def&#45;9befd659fa35</title>
<path fill="none" stroke="black" d="M288,-204.61C386.01,-204.61 484.02,-204.61 582.03,-204.61"/>
<polygon fill="black" stroke="black" points="582.12,-208.11 592.12,-204.61 582.12,-201.11 582.12,-208.11"/>
</g>
<!-- 29769701&#45;8612&#45;4a9b&#45;aef2&#45;c611888521d7 -->
<g id="node7" class="node">
<title>29769701&#45;8612&#45;4a9b&#45;aef2&#45;c611888521d7</title>
<polygon fill="#0ee832" stroke="black" points="297,-140.74 0,-140.74 0,-104.74 297,-104.74 297,-140.74"/>
<text text-anchor="middle" x="148.5" y="-119.04" font-family="Helvetica,sans-Serif" font-size="14.00">✓ Ran sandbox for `ultra_type/view.py`.</text>
</g>
<!-- c25745ea&#45;c295&#45;42a4&#45;aad1&#45;4ebfb5802c3a&#45;&gt;29769701&#45;8612&#45;4a9b&#45;aef2&#45;c611888521d7 -->
<g id="edge1" class="edge">
<title>c25745ea&#45;c295&#45;42a4&#45;aad1&#45;4ebfb5802c3a&#45;&gt;29769701&#45;8612&#45;4a9b&#45;aef2&#45;c611888521d7</title>
<path fill="none" stroke="black" stroke-dasharray="5,2" d="M174.27,-177.9C170.06,-169.06 165.35,-159.15 161.11,-150.24"/>
<polygon fill="black" stroke="black" points="164.21,-148.6 156.75,-141.08 157.88,-151.61 164.21,-148.6"/>
</g>
<!-- 0dcba031&#45;916d&#45;472e&#45;87cf&#45;9337e1b13f56 -->
<g id="node5" class="node">
<title>0dcba031&#45;916d&#45;472e&#45;87cf&#45;9337e1b13f56</title>
<ellipse fill="white" stroke="black" cx="1092.5" cy="-204.61" rx="101.23" ry="26.74"/>
<text text-anchor="middle" x="1092.5" y="-208.41" font-family="Helvetica,sans-Serif" font-size="14.00">▶ Modify</text>
<text text-anchor="middle" x="1092.5" y="-193.41" font-family="Helvetica,sans-Serif" font-size="14.00">ultra_type/view.py</text>
</g>
<!-- d6c9a186&#45;6269&#45;4f57&#45;8def&#45;9befd659fa35&#45;&gt;0dcba031&#45;916d&#45;472e&#45;87cf&#45;9337e1b13f56 -->
<g id="edge6" class="edge">
<title>d6c9a186&#45;6269&#45;4f57&#45;8def&#45;9befd659fa35&#45;&gt;0dcba031&#45;916d&#45;472e&#45;87cf&#45;9337e1b13f56</title>
<path fill="none" stroke="black" d="M794.81,-204.61C856.86,-204.61 918.91,-204.61 980.97,-204.61"/>
<polygon fill="black" stroke="black" points="981.33,-208.11 991.33,-204.61 981.33,-201.11 981.33,-208.11"/>
</g>
<!-- 9fc897a1&#45;8c45&#45;4074&#45;b904&#45;395998ccc48e -->
<g id="node8" class="node">
<title>9fc897a1&#45;8c45&#45;4074&#45;b904&#45;395998ccc48e</title>
<polygon fill="#ee0000" stroke="black" points="612,-140.74 315,-140.74 315,-104.74 612,-104.74 612,-140.74"/>
<text text-anchor="middle" x="463.5" y="-119.04" font-family="Helvetica,sans-Serif" font-size="14.00">✗ Ran sandbox for `ultra_type/view.py`.</text>
</g>
<!-- d6c9a186&#45;6269&#45;4f57&#45;8def&#45;9befd659fa35&#45;&gt;9fc897a1&#45;8c45&#45;4074&#45;b904&#45;395998ccc48e -->
<g id="edge3" class="edge">
<title>d6c9a186&#45;6269&#45;4f57&#45;8def&#45;9befd659fa35&#45;&gt;9fc897a1&#45;8c45&#45;4074&#45;b904&#45;395998ccc48e</title>
<path fill="none" stroke="black" stroke-dasharray="5,2" d="M633.67,-182.83C599.39,-170.93 556.53,-156.05 522.4,-144.19"/>
<polygon fill="black" stroke="black" points="523.16,-140.75 512.57,-140.78 520.87,-147.37 523.16,-140.75"/>
</g>
<!-- 6a7f8f47&#45;5160&#45;4957&#45;b5b0&#45;dfdfe062e820 -->
<g id="node9" class="node">
<title>6a7f8f47&#45;5160&#45;4957&#45;b5b0&#45;dfdfe062e820</title>
<polygon fill="white" stroke="black" points="926.5,-140.74 630.5,-140.74 630.5,-104.74 926.5,-104.74 926.5,-140.74"/>
<text text-anchor="middle" x="778.5" y="-119.04" font-family="Helvetica,sans-Serif" font-size="14.00">▶ Ran sandbox for `ultra_type/view.py`.</text>
</g>
<!-- d6c9a186&#45;6269&#45;4f57&#45;8def&#45;9befd659fa35&#45;&gt;6a7f8f47&#45;5160&#45;4957&#45;b5b0&#45;dfdfe062e820 -->
<g id="edge5" class="edge">
<title>d6c9a186&#45;6269&#45;4f57&#45;8def&#45;9befd659fa35&#45;&gt;6a7f8f47&#45;5160&#45;4957&#45;b5b0&#45;dfdfe062e820</title>
<path fill="none" stroke="black" stroke-dasharray="5,2" d="M720.39,-178.34C730.78,-168.58 742.61,-157.46 752.88,-147.82"/>
<polygon fill="black" stroke="black" points="755.48,-150.17 760.37,-140.78 750.69,-145.07 755.48,-150.17"/>
</g>
<!-- c2a9a363&#45;8ad5&#45;4c1c&#45;af36&#45;bbf1da754f63 -->
<g id="node6" class="node">
<title>c2a9a363&#45;8ad5&#45;4c1c&#45;af36&#45;bbf1da754f63</title>
<ellipse fill="white" stroke="black" cx="1388.5" cy="-204.61" rx="124.4" ry="26.74"/>
<text text-anchor="middle" x="1388.5" y="-208.41" font-family="Helvetica,sans-Serif" font-size="14.00">▶ Modify</text>
<text text-anchor="middle" x="1388.5" y="-193.41" font-family="Helvetica,sans-Serif" font-size="14.00">ultra_type/controller.py</text>
</g>
<!-- 0dcba031&#45;916d&#45;472e&#45;87cf&#45;9337e1b13f56&#45;&gt;c2a9a363&#45;8ad5&#45;4c1c&#45;af36&#45;bbf1da754f63 -->
<g id="edge8" class="edge">
<title>0dcba031&#45;916d&#45;472e&#45;87cf&#45;9337e1b13f56&#45;&gt;c2a9a363&#45;8ad5&#45;4c1c&#45;af36&#45;bbf1da754f63</title>
<path fill="none" stroke="black" d="M1193.67,-204.61C1213.64,-204.61 1233.6,-204.61 1253.57,-204.61"/>
<polygon fill="black" stroke="black" points="1253.69,-208.11 1263.69,-204.61 1253.69,-201.11 1253.69,-208.11"/>
</g>
<!-- 778b5f59&#45;2ce2&#45;4834&#45;b070&#45;f7b43ce966ec -->
<g id="node10" class="node">
<title>778b5f59&#45;2ce2&#45;4834&#45;b070&#45;f7b43ce966ec</title>
<polygon fill="white" stroke="black" points="1240.5,-140.74 944.5,-140.74 944.5,-104.74 1240.5,-104.74 1240.5,-140.74"/>
<text text-anchor="middle" x="1092.5" y="-119.04" font-family="Helvetica,sans-Serif" font-size="14.00">▶ Ran sandbox for `ultra_type/view.py`.</text>
</g>
<!-- 0dcba031&#45;916d&#45;472e&#45;87cf&#45;9337e1b13f56&#45;&gt;778b5f59&#45;2ce2&#45;4834&#45;b070&#45;f7b43ce966ec -->
<g id="edge7" class="edge">
<title>0dcba031&#45;916d&#45;472e&#45;87cf&#45;9337e1b13f56&#45;&gt;778b5f59&#45;2ce2&#45;4834&#45;b070&#45;f7b43ce966ec</title>
<path fill="none" stroke="black" stroke-dasharray="5,2" d="M1092.5,-177.46C1092.5,-169.01 1092.5,-159.63 1092.5,-151.1"/>
<polygon fill="black" stroke="black" points="1096,-150.89 1092.5,-140.89 1089,-150.89 1096,-150.89"/>
</g>
<!-- c2a9a363&#45;8ad5&#45;4c1c&#45;af36&#45;bbf1da754f63&#45;&gt;end -->
<g id="edge11" class="edge">
<title>c2a9a363&#45;8ad5&#45;4c1c&#45;af36&#45;bbf1da754f63&#45;&gt;end</title>
<path fill="none" stroke="black" d="M1513.41,-204.61C1532.53,-204.61 1549.31,-204.61 1559.65,-204.61"/>
<polygon fill="black" stroke="black" points="1559.85,-208.11 1569.85,-204.61 1559.85,-201.11 1559.85,-208.11"/>
<text text-anchor="middle" x="1541.48" y="-211.41" font-family="Helvetica,sans-Serif" font-size="14.00">Finish</text>
</g>
<!-- a1297533&#45;a9de&#45;4794&#45;881f&#45;5834a7dd539d -->
<g id="node11" class="node">
<title>a1297533&#45;a9de&#45;4794&#45;881f&#45;5834a7dd539d</title>
<polygon fill="white" stroke="black" points="1588,-140.74 1259,-140.74 1259,-104.74 1588,-104.74 1588,-140.74"/>
<text text-anchor="middle" x="1423.5" y="-119.04" font-family="Helvetica,sans-Serif" font-size="14.00">▶ Ran sandbox for `ultra_type/controller.py`.</text>
</g>
<!-- c2a9a363&#45;8ad5&#45;4c1c&#45;af36&#45;bbf1da754f63&#45;&gt;a1297533&#45;a9de&#45;4794&#45;881f&#45;5834a7dd539d -->
<g id="edge9" class="edge">
<title>c2a9a363&#45;8ad5&#45;4c1c&#45;af36&#45;bbf1da754f63&#45;&gt;a1297533&#45;a9de&#45;4794&#45;881f&#45;5834a7dd539d</title>
<path fill="none" stroke="black" stroke-dasharray="5,2" d="M1399.96,-177.46C1403.78,-168.73 1408.05,-159 1411.88,-150.25"/>
<polygon fill="black" stroke="black" points="1415.18,-151.45 1415.99,-140.89 1408.77,-148.64 1415.18,-151.45"/>
</g>
<!-- 110baa4a&#45;82dd&#45;46f3&#45;96f4&#45;4d7beb1bc461 -->
<g id="node12" class="node">
<title>110baa4a&#45;82dd&#45;46f3&#45;96f4&#45;4d7beb1bc461</title>
<ellipse fill="yellow" stroke="black" cx="463.5" cy="-26.87" rx="101.23" ry="26.74"/>
<text text-anchor="middle" x="463.5" y="-30.67" font-family="Helvetica,sans-Serif" font-size="14.00">⋯ Modify</text>
<text text-anchor="middle" x="463.5" y="-15.67" font-family="Helvetica,sans-Serif" font-size="14.00">ultra_type/view.py</text>
</g>
<!-- 9fc897a1&#45;8c45&#45;4074&#45;b904&#45;395998ccc48e&#45;&gt;110baa4a&#45;82dd&#45;46f3&#45;96f4&#45;4d7beb1bc461 -->
<g id="edge4" class="edge">
<title>9fc897a1&#45;8c45&#45;4074&#45;b904&#45;395998ccc48e&#45;&gt;110baa4a&#45;82dd&#45;46f3&#45;96f4&#45;4d7beb1bc461</title>
<path fill="none" stroke="black" d="M463.5,-104.52C463.5,-93.22 463.5,-78.01 463.5,-64.12"/>
<polygon fill="black" stroke="black" points="467,-63.84 463.5,-53.84 460,-63.84 467,-63.84"/>
<text text-anchor="middle" x="561" y="-75.54" font-family="Helvetica,sans-Serif" font-size="14.00">Additional changes required</text>
</g>
</g>
</svg>
