<?xml version="1.0" encoding="UTF-8" standalone="no"?>
<!DOCTYPE svg PUBLIC "-//W3C//DTD SVG 1.1//EN"
 "http://www.w3.org/Graphics/SVG/1.1/DTD/svg11.dtd">
<!-- Generated by graphviz version 2.43.0 (0)
 -->
<!-- Title: %3 Pages: 1 -->
<svg width="917pt" height="593pt"
 viewBox="0.00 0.00 917.00 593.22" xmlns="http://www.w3.org/2000/svg" xmlns:xlink="http://www.w3.org/1999/xlink">
<g id="graph0" class="graph" transform="scale(1 1) rotate(0) translate(36 557.22)">
<title>%3</title>
<polygon fill="dimgray" stroke="transparent" points="-36,36 -36,-557.22 881,-557.22 881,36 -36,36"/>
<text text-anchor="middle" x="422.5" y="-506.02" font-family="Helvetica,sans-Serif" font-size="14.00">Sweep&#39;s Plan &amp; Progress</text>
<!-- start -->
<g id="node1" class="node">
<title>start</title>
</g>
<!-- 825b5458&#45;bc60&#45;494f&#45;ae44&#45;16dd87cbad68 -->
<g id="node3" class="node">
<title>825b5458&#45;bc60&#45;494f&#45;ae44&#45;16dd87cbad68</title>
<ellipse fill="#0ee832" stroke="black" cx="589" cy="-455.35" rx="123.07" ry="26.74"/>
<text text-anchor="middle" x="589" y="-459.15" font-family="Helvetica,sans-Serif" font-size="14.00">✓ Test</text>
<text text-anchor="middle" x="589" y="-444.15" font-family="Helvetica,sans-Serif" font-size="14.00">tests/test_language.py</text>
</g>
<!-- start&#45;&gt;825b5458&#45;bc60&#45;494f&#45;ae44&#45;16dd87cbad68 -->
<g id="edge8" class="edge">
<title>start&#45;&gt;825b5458&#45;bc60&#45;494f&#45;ae44&#45;16dd87cbad68</title>
<path fill="none" stroke="black" d="M414.5,-455.35C417.53,-455.35 433.92,-455.35 455.55,-455.35"/>
<polygon fill="black" stroke="black" points="455.82,-458.85 465.83,-455.35 455.83,-451.85 455.82,-458.85"/>
<text text-anchor="middle" x="440.23" y="-462.15" font-family="Helvetica,sans-Serif" font-size="14.00">Start</text>
</g>
<!-- end -->
<g id="node2" class="node">
<title>end</title>
</g>
<!-- 825b5458&#45;bc60&#45;494f&#45;ae44&#45;16dd87cbad68&#45;&gt;end -->
<g id="edge9" class="edge">
<title>825b5458&#45;bc60&#45;494f&#45;ae44&#45;16dd87cbad68&#45;&gt;end</title>
<path fill="none" stroke="black" d="M712.23,-455.35C731.52,-455.35 748.51,-455.35 758.99,-455.35"/>
<polygon fill="black" stroke="black" points="759.34,-458.85 769.34,-455.35 759.34,-451.85 759.34,-458.85"/>
<text text-anchor="middle" x="740.77" y="-462.15" font-family="Helvetica,sans-Serif" font-size="14.00">Finish</text>
</g>
<!-- f1f8e6e3&#45;53a3&#45;4f1f&#45;867f&#45;354664e0835f -->
<g id="node4" class="node">
<title>f1f8e6e3&#45;53a3&#45;4f1f&#45;867f&#45;354664e0835f</title>
<polygon fill="#ee0000" stroke="black" points="501,-391.48 173,-391.48 173,-355.48 501,-355.48 501,-391.48"/>
<text text-anchor="middle" x="337" y="-369.78" font-family="Helvetica,sans-Serif" font-size="14.00">✗ Ran sandbox for `tests/test_language.py`.</text>
</g>
<!-- 825b5458&#45;bc60&#45;494f&#45;ae44&#45;16dd87cbad68&#45;&gt;f1f8e6e3&#45;53a3&#45;4f1f&#45;867f&#45;354664e0835f -->
<g id="edge1" class="edge">
<title>825b5458&#45;bc60&#45;494f&#45;ae44&#45;16dd87cbad68&#45;&gt;f1f8e6e3&#45;53a3&#45;4f1f&#45;867f&#45;354664e0835f</title>
<path fill="none" stroke="black" stroke-dasharray="5,2" d="M521.14,-432.84C483.67,-420.97 437.41,-406.31 400.64,-394.65"/>
<polygon fill="black" stroke="black" points="401.61,-391.29 391.02,-391.6 399.49,-397.96 401.61,-391.29"/>
</g>
<!-- 88533ac2&#45;292c&#45;495c&#45;bbd5&#45;20f52b229fc0 -->
<g id="node5" class="node">
<title>88533ac2&#45;292c&#45;495c&#45;bbd5&#45;20f52b229fc0</title>
<polygon fill="white" stroke="black" points="845,-391.48 519,-391.48 519,-355.48 845,-355.48 845,-391.48"/>
<text text-anchor="middle" x="682" y="-369.78" font-family="Helvetica,sans-Serif" font-size="14.00">▶ Ran sandbox for `tests/test_language.py`.</text>
</g>
<!-- 825b5458&#45;bc60&#45;494f&#45;ae44&#45;16dd87cbad68&#45;&gt;88533ac2&#45;292c&#45;495c&#45;bbd5&#45;20f52b229fc0 -->
<g id="edge7" class="edge">
<title>825b5458&#45;bc60&#45;494f&#45;ae44&#45;16dd87cbad68&#45;&gt;88533ac2&#45;292c&#45;495c&#45;bbd5&#45;20f52b229fc0</title>
<path fill="none" stroke="black" stroke-dasharray="5,2" d="M618.43,-429.08C629.9,-419.22 642.99,-407.98 654.29,-398.27"/>
<polygon fill="black" stroke="black" points="656.86,-400.69 662.16,-391.52 652.3,-395.38 656.86,-400.69"/>
</g>
<!-- 773c02e7&#45;5dba&#45;405f&#45;9755&#45;521ff0b7390e -->
<g id="node6" class="node">
<title>773c02e7&#45;5dba&#45;405f&#45;9755&#45;521ff0b7390e</title>
<ellipse fill="#0ee832" stroke="black" cx="337" cy="-277.61" rx="123.07" ry="26.74"/>
<text text-anchor="middle" x="337" y="-281.41" font-family="Helvetica,sans-Serif" font-size="14.00">✓ Modify</text>
<text text-anchor="middle" x="337" y="-266.41" font-family="Helvetica,sans-Serif" font-size="14.00">tests/test_language.py</text>
</g>
<!-- f1f8e6e3&#45;53a3&#45;4f1f&#45;867f&#45;354664e0835f&#45;&gt;773c02e7&#45;5dba&#45;405f&#45;9755&#45;521ff0b7390e -->
<g id="edge2" class="edge">
<title>f1f8e6e3&#45;53a3&#45;4f1f&#45;867f&#45;354664e0835f&#45;&gt;773c02e7&#45;5dba&#45;405f&#45;9755&#45;521ff0b7390e</title>
<path fill="none" stroke="black" d="M337,-355.26C337,-343.96 337,-328.75 337,-314.86"/>
<polygon fill="black" stroke="black" points="340.5,-314.58 337,-304.58 333.5,-314.58 340.5,-314.58"/>
<text text-anchor="middle" x="434.5" y="-326.28" font-family="Helvetica,sans-Serif" font-size="14.00">Additional changes required</text>
</g>
<!-- 479c8a26&#45;92e5&#45;4d2d&#45;bdba&#45;e55d1e90d480 -->
<g id="node7" class="node">
<title>479c8a26&#45;92e5&#45;4d2d&#45;bdba&#45;e55d1e90d480</title>
<polygon fill="#ee0000" stroke="black" points="328,-213.74 0,-213.74 0,-177.74 328,-177.74 328,-213.74"/>
<text text-anchor="middle" x="164" y="-192.04" font-family="Helvetica,sans-Serif" font-size="14.00">✗ Ran sandbox for `tests/test_language.py`.</text>
</g>
<!-- 773c02e7&#45;5dba&#45;405f&#45;9755&#45;521ff0b7390e&#45;&gt;479c8a26&#45;92e5&#45;4d2d&#45;bdba&#45;e55d1e90d480 -->
<g id="edge3" class="edge">
<title>773c02e7&#45;5dba&#45;405f&#45;9755&#45;521ff0b7390e&#45;&gt;479c8a26&#45;92e5&#45;4d2d&#45;bdba&#45;e55d1e90d480</title>
<path fill="none" stroke="black" stroke-dasharray="5,2" d="M286.03,-253.08C262.03,-242 233.61,-228.88 210.24,-218.09"/>
<polygon fill="black" stroke="black" points="211.43,-214.78 200.89,-213.77 208.5,-221.14 211.43,-214.78"/>
</g>
<!-- f1fa4d9c&#45;0490&#45;4e9a&#45;83d6&#45;420ceb1e695c -->
<g id="node8" class="node">
<title>f1fa4d9c&#45;0490&#45;4e9a&#45;83d6&#45;420ceb1e695c</title>
<polygon fill="yellow" stroke="black" points="676,-213.74 346,-213.74 346,-177.74 676,-177.74 676,-213.74"/>
<text text-anchor="middle" x="511" y="-192.04" font-family="Helvetica,sans-Serif" font-size="14.00">⋯ Ran sandbox for `tests/test_language.py`.</text>
</g>
<!-- 773c02e7&#45;5dba&#45;405f&#45;9755&#45;521ff0b7390e&#45;&gt;f1fa4d9c&#45;0490&#45;4e9a&#45;83d6&#45;420ceb1e695c -->
<g id="edge6" class="edge">
<title>773c02e7&#45;5dba&#45;405f&#45;9755&#45;521ff0b7390e&#45;&gt;f1fa4d9c&#45;0490&#45;4e9a&#45;83d6&#45;420ceb1e695c</title>
<path fill="none" stroke="black" stroke-dasharray="5,2" d="M388.26,-253.08C412.51,-241.95 441.24,-228.76 464.81,-217.94"/>
<polygon fill="black" stroke="black" points="466.27,-221.12 473.9,-213.77 463.35,-214.76 466.27,-221.12"/>
</g>
<!-- 1e61f4df&#45;cb4e&#45;4651&#45;ab32&#45;39f1e83fdc00 -->
<g id="node9" class="node">
<title>1e61f4df&#45;cb4e&#45;4651&#45;ab32&#45;39f1e83fdc00</title>
<ellipse fill="#0ee832" stroke="black" cx="164" cy="-99.87" rx="123.07" ry="26.74"/>
<text text-anchor="middle" x="164" y="-103.67" font-family="Helvetica,sans-Serif" font-size="14.00">✓ Modify</text>
<text text-anchor="middle" x="164" y="-88.67" font-family="Helvetica,sans-Serif" font-size="14.00">tests/test_language.py</text>
</g>
<!-- 479c8a26&#45;92e5&#45;4d2d&#45;bdba&#45;e55d1e90d480&#45;&gt;1e61f4df&#45;cb4e&#45;4651&#45;ab32&#45;39f1e83fdc00 -->
<g id="edge4" class="edge">
<title>479c8a26&#45;92e5&#45;4d2d&#45;bdba&#45;e55d1e90d480&#45;&gt;1e61f4df&#45;cb4e&#45;4651&#45;ab32&#45;39f1e83fdc00</title>
<path fill="none" stroke="black" d="M164,-177.52C164,-166.22 164,-151.01 164,-137.12"/>
<polygon fill="black" stroke="black" points="167.5,-136.84 164,-126.84 160.5,-136.84 167.5,-136.84"/>
<text text-anchor="middle" x="261.5" y="-148.54" font-family="Helvetica,sans-Serif" font-size="14.00">Additional changes required</text>
</g>
<!-- 7f25acda&#45;820c&#45;4a76&#45;ae0d&#45;95595037bdf9 -->
<g id="node10" class="node">
<title>7f25acda&#45;820c&#45;4a76&#45;ae0d&#45;95595037bdf9</title>
<polygon fill="#0ee832" stroke="black" points="328,-36 0,-36 0,0 328,0 328,-36"/>
<text text-anchor="middle" x="164" y="-14.3" font-family="Helvetica,sans-Serif" font-size="14.00">✓ Ran sandbox for `tests/test_language.py`.</text>
</g>
<!-- 1e61f4df&#45;cb4e&#45;4651&#45;ab32&#45;39f1e83fdc00&#45;&gt;7f25acda&#45;820c&#45;4a76&#45;ae0d&#45;95595037bdf9 -->
<g id="edge5" class="edge">
<title>1e61f4df&#45;cb4e&#45;4651&#45;ab32&#45;39f1e83fdc00&#45;&gt;7f25acda&#45;820c&#45;4a76&#45;ae0d&#45;95595037bdf9</title>
<path fill="none" stroke="black" stroke-dasharray="5,2" d="M164,-72.72C164,-64.27 164,-54.89 164,-46.36"/>
<polygon fill="black" stroke="black" points="167.5,-46.15 164,-36.15 160.5,-46.15 167.5,-46.15"/>
</g>
</g>
</svg>
