<?xml version="1.0" encoding="UTF-8" standalone="no"?>
<!DOCTYPE svg PUBLIC "-//W3C//DTD SVG 1.1//EN"
 "http://www.w3.org/Graphics/SVG/1.1/DTD/svg11.dtd">
<!-- Generated by graphviz version 2.43.0 (0)
 -->
<!-- Title: %3 Pages: 1 -->
<svg width="425pt" height="165pt"
 viewBox="0.00 0.00 425.00 164.74" xmlns="http://www.w3.org/2000/svg" xmlns:xlink="http://www.w3.org/1999/xlink">
<g id="graph0" class="graph" transform="scale(1 1) rotate(0) translate(36 128.74)">
<title>%3</title>
<polygon fill="dimgray" stroke="transparent" points="-36,36 -36,-128.74 389,-128.74 389,36 -36,36"/>
<text text-anchor="middle" x="176.5" y="-77.54" font-family="Helvetica,sans-Serif" font-size="14.00">Sweep&#39;s Plan &amp; Progress</text>
<!-- start -->
<g id="node1" class="node">
<title>start</title>
</g>
<!-- 30c392fd&#45;d098&#45;4df9&#45;a436&#45;140f4199c62c -->
<g id="node3" class="node">
<title>30c392fd&#45;d098&#45;4df9&#45;a436&#45;140f4199c62c</title>
<ellipse fill="yellow" stroke="black" cx="173.5" cy="-26.87" rx="120.83" ry="26.74"/>
<text text-anchor="middle" x="173.5" y="-30.67" font-family="Helvetica,sans-Serif" font-size="14.00">⋯ Test</text>
<text text-anchor="middle" x="173.5" y="-15.67" font-family="Helvetica,sans-Serif" font-size="14.00">tests/test_statistics.py</text>
</g>
<!-- start&#45;&gt;30c392fd&#45;d098&#45;4df9&#45;a436&#45;140f4199c62c -->
<g id="edge1" class="edge">
<title>start&#45;&gt;30c392fd&#45;d098&#45;4df9&#45;a436&#45;140f4199c62c</title>
<path fill="none" stroke="black" d="M1.27,-26.87C4.93,-26.87 21.23,-26.87 42.45,-26.87"/>
<polygon fill="black" stroke="black" points="42.52,-30.37 52.52,-26.87 42.52,-23.37 42.52,-30.37"/>
<text text-anchor="middle" x="26.79" y="-33.67" font-family="Helvetica,sans-Serif" font-size="14.00">Start</text>
</g>
<!-- end -->
<g id="node2" class="node">
<title>end</title>
</g>
<!-- 30c392fd&#45;d098&#45;4df9&#45;a436&#45;140f4199c62c&#45;&gt;end -->
<g id="edge2" class="edge">
<title>30c392fd&#45;d098&#45;4df9&#45;a436&#45;140f4199c62c&#45;&gt;end</title>
<path fill="none" stroke="black" d="M294.88,-26.87C314.09,-26.87 331.05,-26.87 341.51,-26.87"/>
<polygon fill="black" stroke="black" points="341.84,-30.37 351.84,-26.87 341.84,-23.37 341.84,-30.37"/>
<text text-anchor="middle" x="323.21" y="-33.67" font-family="Helvetica,sans-Serif" font-size="14.00">Finish</text>
</g>
</g>
</svg>
