<?xml version="1.0" encoding="UTF-8" standalone="no"?>
<!DOCTYPE svg PUBLIC "-//W3C//DTD SVG 1.1//EN"
 "http://www.w3.org/Graphics/SVG/1.1/DTD/svg11.dtd">
<!-- Generated by graphviz version 2.43.0 (0)
 -->
<!-- Title: %3 Pages: 1 -->
<svg width="431pt" height="238pt"
 viewBox="0.00 0.00 431.00 237.74" xmlns="http://www.w3.org/2000/svg" xmlns:xlink="http://www.w3.org/1999/xlink">
<g id="graph0" class="graph" transform="scale(1 1) rotate(0) translate(36 201.74)">
<title>%3</title>
<polygon fill="dimgray" stroke="transparent" points="-36,36 -36,-201.74 395,-201.74 395,36 -36,36"/>
<text text-anchor="middle" x="179.5" y="-150.54" font-family="Helvetica,sans-Serif" font-size="14.00">Sweep&#39;s Plan &amp; Progress</text>
<!-- start -->
<g id="node1" class="node">
<title>start</title>
</g>
<!-- 7e80c70c&#45;48a6&#45;452d&#45;abb0&#45;9c6c4163cec5 -->
<g id="node3" class="node">
<title>7e80c70c&#45;48a6&#45;452d&#45;abb0&#45;9c6c4163cec5</title>
<ellipse fill="yellow" stroke="black" cx="176.5" cy="-99.87" rx="124.4" ry="26.74"/>
<text text-anchor="middle" x="176.5" y="-103.67" font-family="Helvetica,sans-Serif" font-size="14.00">⋯ Modify</text>
<text text-anchor="middle" x="176.5" y="-88.67" font-family="Helvetica,sans-Serif" font-size="14.00">ultra_type/controller.py</text>
</g>
<!-- start&#45;&gt;7e80c70c&#45;48a6&#45;452d&#45;abb0&#45;9c6c4163cec5 -->
<g id="edge2" class="edge">
<title>start&#45;&gt;7e80c70c&#45;48a6&#45;452d&#45;abb0&#45;9c6c4163cec5</title>
<path fill="none" stroke="black" d="M1,-99.87C4.01,-99.87 20.16,-99.87 41.54,-99.87"/>
<polygon fill="black" stroke="black" points="41.7,-103.37 51.7,-99.87 41.7,-96.37 41.7,-103.37"/>
<text text-anchor="middle" x="26.52" y="-106.67" font-family="Helvetica,sans-Serif" font-size="14.00">Start</text>
</g>
<!-- end -->
<g id="node2" class="node">
<title>end</title>
</g>
<!-- 7e80c70c&#45;48a6&#45;452d&#45;abb0&#45;9c6c4163cec5&#45;&gt;end -->
<g id="edge3" class="edge">
<title>7e80c70c&#45;48a6&#45;452d&#45;abb0&#45;9c6c4163cec5&#45;&gt;end</title>
<path fill="none" stroke="black" d="M301.41,-99.87C320.53,-99.87 337.31,-99.87 347.65,-99.87"/>
<polygon fill="black" stroke="black" points="347.85,-103.37 357.85,-99.87 347.85,-96.37 347.85,-103.37"/>
<text text-anchor="middle" x="329.48" y="-106.67" font-family="Helvetica,sans-Serif" font-size="14.00">Finish</text>
</g>
<!-- 1f91a768&#45;e50b&#45;46f4&#45;9b40&#45;60b5e5b4eee2 -->
<g id="node4" class="node">
<title>1f91a768&#45;e50b&#45;46f4&#45;9b40&#45;60b5e5b4eee2</title>
<polygon fill="white" stroke="black" points="341,-36 12,-36 12,0 341,0 341,-36"/>
<text text-anchor="middle" x="176.5" y="-14.3" font-family="Helvetica,sans-Serif" font-size="14.00">▶ Ran sandbox for `ultra_type/controller.py`.</text>
</g>
<!-- 7e80c70c&#45;48a6&#45;452d&#45;abb0&#45;9c6c4163cec5&#45;&gt;1f91a768&#45;e50b&#45;46f4&#45;9b40&#45;60b5e5b4eee2 -->
<g id="edge1" class="edge">
<title>7e80c70c&#45;48a6&#45;452d&#45;abb0&#45;9c6c4163cec5&#45;&gt;1f91a768&#45;e50b&#45;46f4&#45;9b40&#45;60b5e5b4eee2</title>
<path fill="none" stroke="black" stroke-dasharray="5,2" d="M176.5,-72.72C176.5,-64.27 176.5,-54.89 176.5,-46.36"/>
<polygon fill="black" stroke="black" points="180,-46.15 176.5,-36.15 173,-46.15 180,-46.15"/>
</g>
</g>
</svg>
